<mxfile host="65bd71144e">
    <diagram id="eVbAYEZh0BobLJnkJhok" name="Page-1">
        <mxGraphModel dx="2270" dy="981" grid="1" gridSize="10" guides="1" tooltips="1" connect="1" arrows="1" fold="1" page="1" pageScale="1" pageWidth="850" pageHeight="1100" math="0" shadow="0">
            <root>
                <mxCell id="0"/>
                <mxCell id="1" parent="0"/>
                <mxCell id="7" style="edgeStyle=orthogonalEdgeStyle;rounded=0;orthogonalLoop=1;jettySize=auto;html=1;exitX=1;exitY=0.5;exitDx=0;exitDy=0;entryX=0;entryY=0.5;entryDx=0;entryDy=0;" edge="1" parent="1" source="3" target="5">
                    <mxGeometry relative="1" as="geometry"/>
                </mxCell>
                <mxCell id="28" style="edgeStyle=orthogonalEdgeStyle;rounded=0;orthogonalLoop=1;jettySize=auto;html=1;exitX=0.5;exitY=1;exitDx=0;exitDy=0;entryX=0.5;entryY=0;entryDx=0;entryDy=0;" edge="1" parent="1" source="3" target="27">
                    <mxGeometry relative="1" as="geometry">
                        <Array as="points">
                            <mxPoint x="90" y="720"/>
                        </Array>
                    </mxGeometry>
                </mxCell>
                <mxCell id="29" value="生成web app" style="edgeLabel;html=1;align=center;verticalAlign=middle;resizable=0;points=[];" vertex="1" connectable="0" parent="28">
                    <mxGeometry x="-0.1" y="-4" relative="1" as="geometry">
                        <mxPoint as="offset"/>
                    </mxGeometry>
                </mxCell>
                <mxCell id="40" style="edgeStyle=orthogonalEdgeStyle;rounded=0;orthogonalLoop=1;jettySize=auto;html=1;exitX=1;exitY=0.5;exitDx=0;exitDy=0;entryX=0;entryY=0.5;entryDx=0;entryDy=0;" edge="1" parent="1" source="3" target="20">
                    <mxGeometry relative="1" as="geometry"/>
                </mxCell>
                <mxCell id="3" value="配置中心" style="swimlane;" vertex="1" parent="1">
                    <mxGeometry x="-150" y="150" width="480" height="310" as="geometry">
                        <mxRectangle x="240" y="250" width="80" height="23" as="alternateBounds"/>
                    </mxGeometry>
                </mxCell>
                <mxCell id="57" value="" style="shape=image;verticalLabelPosition=bottom;labelBackgroundColor=#ffffff;verticalAlign=top;aspect=fixed;imageAspect=0;image=data:image/png,iVBORw0KGgoAAAANSUhEUgAAAggAAAEbCAYAAAC/VnzLAAAgAElEQVR4XuxdB3Rcxdm9b3tT7724ykXuNsaFjunF9BIIEEILJQFCCH8ILQRCSUhiQqihhNB7M2BjMDbuXW7qVu91d7X9P3fWK8uy5F1Zki3bMz46snbnzZu5b958d76ZuZ8yadIkH2SSCEgEJAISAYmAREAi0AUBZdqN/5EEQXYJiYBEQCIgEZAISAT2QkCZ+fBmSRBkp5AISAQkAhIBiYBEQBIE2QckAhIBiYBEQCIgEdg/AtKDIHuIREAiIBGQCEgEJAL7ICAJguwUEgGJgERAInBEIqByK/B2qNB1HV0BoPYCKp+y+yfw/z2fqX27/4/deZhf/B9Q+xQou3/vKUOBiuUqCnYkt8Kqcx82eEZ41RjtNIr6Nqs8yNfZ4d1d+14JgkoB7jwtGSlRWtz5v1J45E6Fw+aBy4oeOQhwMJOv3pHzPGVLDi4Crlo1aho9e91U5VWg8wFajwpqrwKtTwWNR4HOq4LGp0DDz7z+3xqvyv9/3+7fzCOu2f29j3kD16nE54XTmrE1reXgNvQA7zajw4JchwkKBxqONT7AAx9eiagT484+BEGnUXDvmSmYNz6y85Zerw9fb2nBmyvrUVDTcYBVkZdJBCQCoSIwOskAs06NzDi9eGm3V9nR2uFBeaNTFDE2xYgpmRbx/10NDizZ3tpj0ZPSTehw+bCtyt7rrU8ZG4Hvt7fCuXsWcEZuJL7Y1BxSVa+eFYdXl9WFlLe3TJyMjEk2Qa0CdlZ3wO4KzF/6Vay8WCKA7gRBo3iQYGjFuMhyLC+duJsM7Db63QiC1tONGAhSEMirIDZWDWutby+CQIIxGARhzsgwzB4Rjg6XF19sasKO6t7tcHyYFmdOjERNiwvf5LXA1cvsPt6jxTntUdDqFJx9WxQiEzRY+XEbti6zo1ztxNemln0Jwqd3jMbjn1fgF8fFY2Si3+2wqcyKfy6qxvmTo/HwJxWy20kEJAKDjEC4UQ2HyytYvEpR4PX5cOdpSfjzZ5XizlfMjEVihBbPL6nFZ78ejeteLoRWBWTGGlDf7kZuqhFvr2pASpQONqdXDCynjovEf3+qF9dfOTMW+TUdqG934c8XZuDPn5Vj/S4bjh0ehrvPSMZdb5VgXIoZLo8XX21uxvyp0fhkfROcbh/OmBAp3BpfbmrGP3+WhVteL8aJORFYlt+K6+YmYOGWZhTWdmDeuAikRevx4g+1+0Xr8mP8dRmXakRRrQNLd7bCK90mg9zDjo7iuxOE2clb4XLpobhVyKsZgYxYLWbkmLH0JyvmnxKJ995vEV4E4RUQBCHgTdjjSQh4GG55OgIv3dG+28Ow29vgU1DQiwchN9WEzeU2TMowgxP2syZGYcGiamTFGbC6uB1p0TpcMzsedqcHT3xVtdcDWnzPGDz6aQUyYnW4/Jg4nPSXrT0+QJb7y+PjcfXseHi8Plz7UqF4t3pKV7fGQedTMO44E6ad5Z9s1O1y4esXm9Fh9+FTS9O+BGH5/43zZ2x14emFlYgya3De5GhBFn4qbBPLDTJJBCQCg4vAjGyLMOrD4w0oqPW/4BdPj8F975d1EoRpmWZ8u7UV95yZjH99V4P0aB2abR4x0KwrsWJKlkUMSPRAXD07Dou2NuOE0RHC4Fc2ORFmVOPH/DY8dH4aHvyoTMxKxqea8MfzUvGH98vwzJWZeOyzCkzLsqDZ5sblM+Pw14VVSI/Ro7LJgeUF7Xj6sgxUNDnx4dpGnDkhCvk1dswdFY5rXizE89dk451VDWIWw3TVsXHIiNHh4U/3nmRcNzdelJEcqYPH5xPX2J3SizC4PezoKL0rQRgfU4o/H/saqtuj8bsl18PZYUJmgg6zxpqxeGk7Lj0jCqefFIaKChcWPNOIW38Vg+GjdPj7I4045QwLCje7cM5VFjx6bSOu+m04kodpsPTtDkw9VY/ClW5894xDEIqCqc3Ymr7vEsO0LDOK6hwYmWCA1wvsanKIWf70bAtWFLYjI1aPqZlmsdfh3TUNnQ/oomkx+PW8JBTVdWBbpR1n5EbhlteLsGGXbZ+HqFMrePPGEUiO0onv1hS347b/lvT4sK9viRef60wK5t8ZA2O4ChsXWbF+oVWMGZ/0RhD4cv7i5UI0WN347w0jEGPRiIIkQTg6XirZykOPQHKkVsz8u6Y7Tk3CAx+VdxKEcSlGvLK0DlanF8eNDscXG5tx7HALyhqdqG114ZkrMvHx+iaMSDBgcoZZeAYjTWpMyrDgiS8rO12Pz12djbvfLkVbh3+t9tXrh+M3/yvBS9cOw3l/34G3bhohvBG3npyIv39TjVVF7ahs9i91fHN3jqjnVS8U4NEL0vHG8jqYdCos3taKm09KFDOkQOLypU6jQvvu+wQ+v2ZOHNaX2sDlkKoWF77Na4FbuhAOfSc8AmrQlSAsOO45fFI8A222MKyvHin2IGTG6zA314I162yYNzsMl14QhVdfb8KqpXbceGM0MrJ0eP7JJqg9Cs653IL2Jh8+f8GKyXOMOP06I5a+5cC2b1yIiVejdIVHeBPoQcjrgSBMTjdjU7lNvIuc6eckG/HBukZwiU+nUmF5URtSInXYVGZDu2PPvgmLQY2v78pBXZtLLDua9Cqc8FgeHO593WwGrQr0NnRNxz6ypccn+YuWeFEPJlOEChqNAlubF26nv9weCcL1x8Xjhe/3uAS55ECCQFfkB2sa8Z8f+7feeAT0OdkEicCgI8A9Bu5ua4enjY/EM9/4De65k6MQZdJ0vo/8+7ttrUiK0OHu05OwYZcVTTaPmAnQmHN5oai2Q8wsfipoE6TBqFPhxe9r8dszkvHB2kasLbGKsp+9KgvPLa7Brack4vpXirDgZ1liJnJ6bhSe/KoS502KQlmTE59taBbuzLUl7ZgzMhx5FTZBOris8OfPKvCzWXF4LYT9CRqVgtkjw6BWKVhXakWT9fDZAT7oHUHeoF8IdF9ioEHk0gE3E5IgcMZ/ytQwZCXp8db7LfjDHXFY/qMda1bYceJcC+aeYMZLTzULgmDWqzBqjA5rv3FgyhwD4FJQvMqNORcZsP59N5zN2O1BaOqRIPSnIdzrc8wwi1g2eG9NY697jgL3OGF0uPDK7dzPnsEMtx5neiJx+o2RiEnRiktdDh++fqEZGyusWNjTHoTujXjn5pH456IqlNQ5sGv3Bqn+NFReKxGQCARHgPsLuPega+LmvYDxtOjVYlNfi90/0+DfNqdHrN2T0HMwq2p24T+/GIYnv6oSrkluXtrV6BD5uUzAmXyj1S1m/Bq1gtbdZSWEa4VXgmXQBWrRq2DUqUWeqmYnkiJ14MblmlYXYsXkwS32Q7Bu/K6h3S28EdxHESgzeItlDonAwCPQE0EQmw/FSQU/QSBRCJxUSIvVor7a7wkYlqGDrcmH9nqfOMXQebohcIKBJxx6OMWQP23gCQKR4XvNPUABT9/+0OK763L7Ojce95SXxzJPdIXjlJxIzL4kXJxkqCxwYunbrfiPpw4tKs++exAG/hHJEiUCEgGJgERAInDwEVAcKnS07jkq7NdA8G8+5G9qGuz72691EPgJ5KXmAf8vfu++NvBZIC83Cq8e3YBmo+vgN/YA75ju1mO8wyiWGxrUHqzWt8NNoYeejjke4D3kZRIBiYBEQCIgEZAIHEEISCXFI+hhyqZIBCQCEgGJgERgoBCQBGGgkJTlSAQkAhIBiYBE4AhCoF8EIcyghl6790aqww0btwfijDe3e/PfYCSFqzuKAp/v4JztVhRuP5FJIiARkAhIBCQCB45AvwgCBRkyY/UHfvchcCXJwRlPb4fHaYPX7T/bPdBJUamh0Vvgsh8cfW6VRg+1zq+CKZNEQCIgEZAISAQOBIF+EYSA6uKB3HgoXUMhCY/DBq9nkAiCooLaEAb3QSIIxFZr2hNLYyhhLevSOwLdTjX2GSpqHsgkEZAISAQGCoFDQhA8Hg9cLhcMBsMBt6OxsRHR0dEHfH3XCw+UIFAZjudSgyW6/IMRhIDefrhRIxY62uz9E4vpShAYDCc2zC+EQSNCr0lvATyCtUV+vweBaLNGeNCI75rdIkPd8aFy4YzsMPHxDztaewxExKU6BmPhOWeGiz2QRAEVKp9+v6MVVse+S1kUIRoWb4BBowg1t6GaiCelmhk8ihoK1FIobfBrN8gkEZAI9A0BKivqNYrQS4kxa4R4GuO6hJp6JQhPXpIhBr5AeuLLKlS17D3D7smDUFFRgd///vdoa2vDQw89hHHj/LEduqaOjg40NDQgJSUl1Hruk++HH37A3Llz9/m8tbUVJSUlyM3NDbns/RGEW0/LFupVu+rt+GzdHtlYFj4nJwZLt+3RzO7thvsjCFq1gjvPHoFmmwtLttTjvGlJ+Cm/Ed9v9QfV6Z7uv3A0Hnpve9C2dSUIvzsjRQjZVDQ6kBKtx0tLa4VGfyBR6pPSuGwn0xXHxOK/K+oxKtEoOlNvwT7+eG4qHvzYL/0bSoowqoXIx5Giovu3yzKFWJHbCzzzTRVK6vc2ZHy2vz41CQsWVyPSqMFNJyTg/z70x1IIJL5iPzs2Doy9wFRYa0eESYNYi1Zg5XR7EWPRimdjddBgakS8g/hwrRBH4j35jEYk+JeUlhe04c0V9fvspiGZpRJjpEmzl7phUoRWyBubdSohjkSSQsNMUSXes7rVJUSVmq1uEU2ShIfxHkiOKLJk1KoESWb/Yqprd4nrPF6IMkQbPF5BTCmzzLqyzTT8dW37kmDGm6CkNANBZcTo0WRzCxloJg52FIChEBMlpUvrnahodmLmMItQYGQ0yhlZFmyv7vDvK5JJInCUI/CHs1OxrKBVjO+3nZwo4qLsL7JrXJhWSDrzfa5ucfUulMQZjdhctzutLW3fZ2bSE0EoLy/H5s2bceqpp+L666/HVVddha+++gojR44EyYPRaMS8efOwZcsW0AtAT4LVakVZWZnwKPziF78QpOLee++F2WzGpEmT8Oijj+LGG28ESUF8fDx+9rOf4a233hL5WcbVV1+N9957DyqVSny3YMECQVLuvPNOUc6IESNEK+i5+O6778Tv4447rtODsT+CkBpjFNG1OLObNzEedocHarUKHo8PTTYnqps6YDFocNL4eBRUt+OL9TVo79h7cNofQZg+PApVTR0oa7AjPdaIq+ZmoKrZjvdWVODimalosblQ3mhHVpxJqNmNSg7D2uJmYRyKa21YtKVn6euuBOH+c1Kxo9ouOgllclcVt2NjmZ8g6DUqEdmPobypmKfXqnByToQwNDRCHMTLmxzIijWARoakkZ9xVsewwJTyDNP7N6tSMpdhiRMidAg3qIRxIRlIjtCitMEJxg4oqHWIoCNHQjpnYpQwrOXNTizd2bZPkyakmZCTZMTbqxtw4dQYlNR3CMP/5eY9oZT5Iv729GTxHEgA+IxoGMelmoShb7G7ccuJicKo0y/w81lxePyLCkEaGAXxvTUNwosxd2S4uD/jqDz2ZQXquxlfehBoSKnfzuis/M3nOTHNLDwPJDN8dozAuHBLC44fHS7kXElcVha1Y3yqEdsqO3Dy2AghrUxCwj5y2YxY4bVgPekJYd9gP2IshcRwrZBdXr/LKsI5O9xeIftMmWduo/2+B8ymZJpxQk6EUGwkiWCfend1gxis7jkjGaOSjCJC3cvXDROS0a8vr8dv5iVhapYFf/qkHLlpJkFenlq4dzS8I6G/yTZIBPqKAIM/cQy+bk48fv/+LqHOStLdW7puDgOq6fHZxmZhJ3r1IPAl65roogjMMAOf748gnHDCCbjjjjtwyimnYOLEifD5fIiJiRHGOy4uDhaLBc3Nzbjpppvw5z//GfX19TjnnHMQGxuL8ePH4+677xYeCBr0p556CosWLcJJJ52EV155BStXrkReXh527dqFP/3pT4iMjBQE4uWXX0ZTUxNIUlgGick777yDV199tbMpDod/lqfX79lcGQpBiLHoxAB4ztQk/OWTfFw2O01I1OZXtaO+zYmCaivOnpKErzbWoLZl75lkqAQhPlyHX56cLQjCh6sqRQCPMKMGRr0a2yraBGEYkxqGB9/bjuEJJszKicUL3/Ycqas7QaABYNjdG49PwFur6jsJAvX4Hzg3Vej+/29lPfIq7Lj3zBT8+/saQRAYdYwSvmSWNCAXTInG67tDBpN4fLe9VWjwz58cjWiLBq/8WCvcWX+5KEN4KorrHWJg/8MHZSIoybL8tn2CEPW10w+V/AuuzBJVYfuf/a5mn2oxyMqYZKMIbkTc6YGj+//brXs2q1LWmASBs2Myd64wMNASo6cSK8oZM5rqB2sbhLGk8XxlaY2IDZ+bZhahkRltMfC+MsjLX76sFLPsrmnWcAsqm13CkDNqHIMjjUo0gPfnbL+6xT8bZ7hnkpQAQaD+OyPNsR0kgxdN9S/rbamwiXvQ8NN4F9d37EUQGMApK1YvfpYXtgtycFJOhCALjDpJbwX7WvfEELjXzonHd9taRBjcd1bVi/uzn147J05IOTNAFfvUXW+Vos3hEQThtWX1oi0qFQQZu7+bp2ao9BlZD4nAwUSAy4r03JIg3P1OqRhfelqCDNTprnlJiA3TiLguC/NaeicI18yOg9JlPfTDdY37BFHpiSBw6eBf//oXbDYbbrnlFtjtdnzyyScIDw8XpIDeguHDh0Oj0WDjxo0oLS0VewmSk5MxefJkhIWFIT09Hffdd5/wCJx77rn48ssv8Yc//EF4Euhx+PWvf42nn34aSUlJgmRcdNFF+Pzzz1FdXY0//vGPeOONN3DhhRfi3//+t/A40MOwv7Q/gkBiQDdvpFmL48bEwuX2orbVAbNegw6XB99urgO9ADkpYahpdmBFQSOarXvLbO6PIHBGfv70FNgcbmza1YIZw6PRZHVhVUEjTpuYILwTi7fUobKpAzNHRiM12ijuyzqRDXZf9gi0sytBuGR6DBiLfGulHaOTjHjjpzoR2pfpomnReHd1I5hnS4VdGA0O/AzzrVUDy/LbxXNnqNLECB12NTiwoqhdXHvB1GgxyJc3OTE90wwaxPzaDjFDzK/uQKRZLVxVu+qdWFtqxbgUk1gP4/+PhMQlBhKv3ggC2zgy0YBwg38mTOz/0y14EV+x8ydHC+PJ9M3WFmTG6AWGNa1OtHd4hfHXahRB4vjDmCgkFMxDEsHZ+slj/NczlPNnG5v2WmJgGOXTcyNFXva3mcPDRJAnztC5BMB9CXaXT5AALlnwM4aMZlRIJs7qGfiFRIBRJtsdXujVCsJNGhTWdogQziQf9EiQGDDkLD0UrB+XK9h/WEezXi2WGOjNSInSifgQ3RP74e2nJmHh5mbRlsuOicUDH5WJvu73ULiQGq0Ts5xAGGnWj4GmeP8LpsZga4WtkwAfCf1MtkEicKAIkGyvLGxDXqUdZ0+IwuYK2z5LoV3LJqHnpI4hqTkhOCSbFFkhehSqqqrETJ4ufxryroneARKFnhK9AFxaIEEYiHSgmxRDvXcomxRDLSvUfN03KQZmmFwLbunw7BMpMNRyg+WjIaSnKfRtMMFKHLrf0/ByD0KHyycMV0+JXqZAuHSu9XeP0MhrODtmWSfmhAuv1IEkBl6iN4eGusO19yZF7hPgC08iR0NNArKpwib2BQy1RGLKvQv0dJAEkax094YMtTrL+kgEhioCnJBx7w/fI0Z/5XvVlz1gh4wgDCVAj3SCMJSwlnWRCEgEJAISgcMDAUkQAEiCcHh0VllLiYBEQCIgETh4CCg++vplkghIBI4IBG57o1js8ej6VnMfyIKrspAUoTsi2igbIRGQCBwcBCRBODg4y7tIBA4KAtxncPNrRXsdc3x4fhpO2r2J8aBUQt5EIiAROCIQ6CQIPB3AEwhdTy701EI6HBISEoLmOyLQkY3wSy+GsuVQBogaMr3l8ufy99qp/OiF6eLYokwSAYmARKAvCHQSBCof8kSBTrd/NySPL3q9XnFkUaYjGwGfxwqvtRgIIQqloo+FypB8ZANymLROEoTD5EHJakoEhjgCnQShvb1dkINgBIG6BjyWuD+CwGNuPJfM4xQBuWYeWaI6XFf55kONDb0hwTwmh7qO+7s/iZrTuUf+mm3h8wulTaG03edsgKdlQ2cVeI3D6YZB75fV7ZoUfTzU4eN7rC7rycR6sQzqW4SSeB3z8pq+XBdK2YdjHnr5iINWq93vM5YE4XB8urLOEoGhh0CvBIHiRJQ6bmlpQVpamlBDZAqFICzZ1iIkUO0ur5CApcjLoq3N+L+zUzEmxSTK4UD39ddfg4qL1DzgssX69et7jK/QE2w//vgjZs+e3SOilZWVQnipt0QytHXrVtGWadOmCcnlUI1WKI+wsLBQqDuyPSeffHLQS0i43n777b3yjRkzphPz3grYsGGDUJoM6EHQu8MYFFOnTg16z9dee03IYL/77rtCaKqn1J0g1De2YcF/vkXOiGRcdNb0vYxUbwSBdaJgFROxpgw3Y2iMHTt2v3WkiBbVMinLzb5IPM8666yg7TpSM7C/rl27FqmpqYKgn3jiib322YEiCD/99BNmzpwpxM34jvJZTpkypRPiZcuWYdasWXtBvm7dOiGPvj+SStVUvnscV5jYHmqisG3dEz9nWYmJiVixYgWOOeaYkB8xRdSol5KdnR3yNTKjRGCwEWAsIvZ52tf9JcYVosAgE98Xhik42KlXgsBYBzNmzMDf/vY3YaiuueaazooG8yAs3tqCv39bLdT+qOGvVisorXfgkQvSMD7VTxBYxvz58/Hmm2+Cxp7SyP/5z39EDIXa2loUFxeLeA2XX365kEzmS84Bit+dffbZ4hoOVjR0V155pfiOhOP888/H/fffLwwzxZcou3zeeed14rpw4UKh3hiYfZOYcMCi6mMgud1uETeCXhLKQ/clUV6aBpvEivXiQw42qJEssd1d0yOPPAK1Wr3fW3Mwpkw15aZ5/YsvvigIAzEIlm644QZMnz4dH3/8sVCavOCCC/a5pDtBuPW+1/CXP1wKr9eHzxdtwMVnz+i8pjeCwEGaRISJ9yD+r7/+etC28blecsklWLJkiVDmZOwMKmgerYkki7FNSGQpNU5J8mHDhvUIx0ARBMqXP/fcc+IdIunlOEBjzXeH7wglzC+77DJB7gN99aWXXsLPf/5z8f4GlE4D7wPVU/ne19TUCMNN8kGvSFFRkZBI53vCe5Hck8QzLwOv8f85OTlirGC/5bseFRUllFMp28468X4ZGRmiXP7NwZTjB/OSTMkkERgqCHDCQ+J77bXX7lUljm+cMDPkABNJMfs4E0MPPPHEEwe9Cb0SBMYw4AvLOAgHQhAWbWuBSacWcqtMlKO9cFpMJ0H49ttvhbHgAHH66afvRRA4W+LsmwDxhSdBIEHhjIWBl/jCM+4CBy0SCw5ONJa/+c1vxKyTxp2DKQcwGn8OYpmZmf565OWJsjmocQDiD0lAdyPO4E+cvVL6OdS0c+dO/O9//xP3Xr16tZjNf/TRRyEZNnYEGkMmDpwc7IIltnnVqlXCkJIwcWa+ePHioARhzZo1gviRWPzud78Tde4pdSUIy9fk48l/fdGZLTsjDn++92Jotf6YHX0hCBzogyUShCuuuELMmvmMt2/fLmamR2v64IMPRN/PysoS0uWMS8I+3FPqC0EgAWCgNMqcdyeJDJxGss2+SQNMo8t3jhMHBk7jrOaMM84Q7x8HPBp2erVIBEiM+cMlMPbLUaNGgaSXxIIDI404y+FzZlvYJ0kO+L5zUkCPGmdarBMJBb/jbxKFHTt2iHea7zInMr/85S9F/VgHTiD4N70fDPrGOkiCcLS+NUOv3ZzAkURzzx/DAXDsDizrc8L74IMPIiIiQsQQ4rvx2GOPib7Pd43hBWhPGITwr3/9KzgmsL9/8cUXws4xUCHJOcMOcHJsMpkEuWZ5N998syDTPSXagGOPPVaQcUZY5mSMExAxrgd0ELrvQfi///s/YWhoZDkw99WDQD3nSKMac3fvnn57ZQOOGx3eSRAuvvhi4XpmsCbOYCdMmNDpQSBB4IDBBrFeJAacOTz77LNisGGkyABB4Oc0zCQct956qxhYAvEXvv/+ewE+ByWSECbORinhvHz5cvE3SQAHk3vuuWcv7EgcOFsLZT2/64WcMZMcsM58MKwfH1SwxDpyJsXZGWeGXGcOlkgQ2NHo5qXHgokDdzAPAq8hW/3nP/8pnmsoBIFl5xfX4J5H3oJWo8ZtvzgVJWV1uGK+38XcG0Fgezg7ZKKBodHhUgGNwP4SX445c+Z0utH5MhzNHgQaWpJBLr1wsKChPPPMM/tNEFgWPTocXLq7MNl3+Y6SQPB94fc0zrw3Z+fso3yvWAYJODc5B5bK+Ix53ejRo/Hwww/jrrvuwj/+8Q+cdtppIh/bQyL8/PPPCyL44YcfineY/+dyEt97vkcM9sb3kPf49NNPhbHn+877cpxgP6Gng8sT77//Purq6gQRYbmcifGdkgQh2Egivz9YCHC5jl5bkm4SZdoI2phnnnlG2CLGEmJ/JtkmgSaZYDyi3/72t4IgcFJHEs3vOLHlRJY2jV4J2j0SZr4L9F7/6le/EmMmSTI98L0ttQWiLDOEAd9NLmuQ5O+XIPQGWCh7EBgs5fnva8U+g5nDwkQQle93tOHu05NFoBUODlz75mDAWQBnJXStcLZ4/PHHixefgwCNC2cojOTIwZADCA0+gztxpkxjQ8PBwYL3Ikgc6LjOzcGJHgiWc+mll+7VHB7nJHkQ9Zs5c7/7FQ5Wx+F92D4+pN4G/u51IeNj+wOJMzkuv/RlzZXXc6mnp9R9iYF5lizfhumTsqHXaeF0uWE0+E+99EYQOAvks2bijI77Q0JpHwkaiUtAx4sz3GD7Fg7mszqU96LbnO8En3VPqS8ehP21gwMZBycOMFyWC2yO5DPkAMc9BAzjTi8gZx5MgT0InFjwmdGLFtjLUFBQAP5wjwzbQKLOsto8MT8AACAASURBVNgWGnG+2yRA7CeBqKx85hxASaDpRSLhIMHlb3ogOevimMR7cFDlAMzxgGPJtm3bxMyoL+/DoXyu8t5HBwIct9lPu45nJLT0fH3zzTeiT9PQ006RUNM7TA8cbSH7NT0KnESSsNN+kghzYkqbRsNO+8kJI/focXLK/MEmZL0hPyinGHizQCS4wI0Z4S0hIvismPlpVEgOept5c5bAWUVf9wccHd1v4FrpczbC07I+pAL3d4ohpAJkpgFDYKAIQk8V4kDEHxrjYCeeBqxBsiCJgEQgJAQ4oSI5CHjhuAE/4A0IqYBumToJQkDfIJhrmzNc5jkUOyoPpIHymv4h4LWXw+cOHp5ZHTYCQGjHF/tXI3l1MAQGkyAEu7f8XiIgEThyEOgkCGQeXc/U76+JXKeQSSIgERiaCEiCMDSfi6yVROBwQ0DGYjjcnpisr0QgCAKSIMguIhGQCAwEAkpVVZWM5jgQSO4Wf+rrqYcBurUsRiLQicDt7zWhrNnT+beMxSA7h0RAInAgCChWq1UShANBrodruLGSBEGShAECVBZzQAhc92o5Shv2SHDfc0o4jsncd1kwIGV9QDeRF0kEJAJHFAI8jRTYYxiQ7JcEYQAfsSQIAwimLOqAEehOEHrzIHC3M89hyyQRkAhIBHg8kseMKcjGo8ZCByjgQXC6XFCgCJRUKiWoFG5f4OQZ5v4ctejLvQ5l3u4EgWyMZ7TZdp76CCadfCjrHsq92R6e3w0kHkPlMZqhkng+niyYWLNeR6snRxKEodIjZT0kAocPAvslCEt+WoWMFH+AI55oyM7wB1Lpb6JBoYADhR0o9hBIjBtAoSMKqlBJ8UhIXQkCpS8/++yzTqEfisoEAjcRX8pHU88hEKeA7e8p+M1QwoWxMgLCRVS5pJBH4NkF9PQpoBOKEBLP0lPGOkCaGEeDCpkHmkhCqQjIRLVNEoSAeA+Vx6hCSEbc/R4kPT1FwKSEKU/1UJWMoj3U/j9ckiQIh8uTkvWUCAwdBPZLELYXFGNyrj/CXnFpGeJjowdkBkZ9dKriUTq5a9AkygFTCY5SkQyURBlW6lBTe5pCSYFgMLfffruIF9A1itxQgFSEPnY4RFUCs+iuBIGqjmw3jSVntpSBDchV01hRTY75qQBHyWMaS2JF2UzKPlNVi4qQVNaiZjelaKlZTxUuimAwDxUoWYdApM3+4kLM+UOj3ZMexiuvvNIpP00VTMZUoHIlE+U6A7EBqGLJ50apT8qDUtubCnuU7iXJoKw2pbZ5D0qHsu1U66PxJpmkABalvrsmYknvAI18TwI9XQlCwHNAXXKmgMYHJXhp8Pk8GJ2Q+Ri/g0SC/ZGklbEJ+B3dbFTgYztJ5qhYRqVLJqoLsj30VFAalXEBWC4Dqtx2221CBY3Ph/E0urejv88olOslQQgFJZlHIiAR6IpAEIJQhMm54wacINDAMawl5R4p/RgIw8wQw4x8yGAw1G+ngSGJoP4+B2Rqu1NvmiFeaXBobIZSonEnoDRugcBKXQkCjQnbTClnSr5yFhogCNS1Z/sYLZKzW+rO0/gSG5Io4sDZOQ0RyQC17PnDz2nA6HWhMSJWgchfA4ENyQalPIcPHy50vbunN954Q9yTBpXyuJTJDbRp06ZNIpAQjT6NIutLo08tcMaKYMwNEiEGJ6HGPuWyeT+SQRpwGlxqkNOTQBIQKDdQB5IDro/x3oHw1l3r15UgBD4PlMH+wwBHJJn0ZHHJZ+nSpSLyJckpA1fRsPN5kMCQWNDDQSLBPsj+SGLG/kt5VJZHCW/2WdadUt6MDUJiQ2lfes34XPnTWyjtgXhevZUhCcJgoivLlggcmQjslyBszS9EcWm5aPnI7EyMyA4eTTAUmBhpijNfGkgOnIEQtTQYf//733HdddcJY0ADwEGZM2sGHOKMjAMy8zAI01BUbuSstuu+gq4Ege2hQaUxovGaNm2a2PjBRO8DPSY0KDSebCNd2NSmp7HhdzSWNLa8lgSKQXJonGioSKq4wYzeB2p1D2RivXtT06TxpPHm9zTsTAEjTELz6KOPimdNF/99990nAvQ8+eSTQpOfngZeT28CSSOJDdvMEKY0ojSmbCvJFMvgDL572t9elu4Egd6BgAeBdSXm7EO8Dzfm0aCznnx+fA4kNKwzoxGyfbx/fn6+yEOvBskenyE/p6eHgYNI2Ojd4nIL20ZvEUkQ20RtdWqnB6KIDuQzClaWJAjBEJLfSwQkAt0R2C9BkHD1H4HumxRJIGhk6AVg4Ki+JoZ/psGip6V7+u9//yvc3wczcU2enoLAPgRG+ezL5lMacWI0WBr+nNkH4qczRHSwDZSBJR7O+vuzoZGhV7kMxH0mQyFJgjAUnoKsg0Tg8EKA++a4/M2xk5OevU4xHF5NGZq1lccch+ZzOdpqFSpBONw2Xx5tz1G2VyJwsBGgt5WhFOjN55Kr0tbWJoWSBugpSOGZAQJSFtMvBK5/rQKlja7OMnrTQQjs/+jXzeTFEgGJwBGHAL28giC4XC5JEAbo8UoPwgABKYvpFwJXvViMknr/CRsmKbXcLzjlxRKBoxaBkII1Fe92MmSF+YWUZOoZAe45EOs2isTpYPYR//FMzpj3xZ37JQ7G8wjsy+jabn5Gdx2JIzd/dk2sk7hmd/0CLJ0t4P9FS0Q/2v2Xzyf+t1cZ4lv/99wA7HI5xemQa14p20tqWRKEg9kb5b0kAkcOAkEJQrnVh9+v8Q9uf5qqRZpZGr/eHn93guDxAR+VelDUemicNDfnqGHWHvnPS5zoWP6jOE7LTZO0q4KoqdTw+bxQq1Twet3C4LpdXig8iaHRwOV2wevxQrP7tIhOq4HX5xOfeTxu+BQFeo1WEAy3xyNON7Rb2+DzuKHR+ZUxG+prYbGEwUXVTIcTFWUlaGyoR1tTPQxeD+7801+F8X7wt79BZW09xo/Iwq6KKug0aowYlYP8Hdtg0Ovh9PiQk5ODGJ0bdXVN2FlVg8z0YRg5YiwqykthUdmxvaQMPq8PzW3tMBu1OGHWHKzbtBHtTgda251oaqrHLTf8Eo9tSkabOrqzm0qCcOQM2LIlEoGDiUBQgrCo0oPnt/sjw/1ilBqnpKj7VD8O3hxgw8PDO6/j+fiABDGPunEw72vqfsSw6/Usv+v9+lr2gebvShBIDm5e5kSzE9CqgEidgrqO4ERBowLUCuD2AgY1YHUDFq3/NyecPSWzBrDx+x6+fHKGBmnmvuN7oBgciuvYx5Z+vxg6vQE6gw4qEgOvV/xm3/N4vTDotKCcOLUX/B4FH5xOHunUAYoPJqNJ4Mtn6PP5pcbVagVer69TepyegLb2drQ31SIiJgHWxiqBe01ZCRrqalBWXAhHYzViNUBCuA7pqck496HXhc5FbnYmkuOikZ6chF3lFTAa9LCEWzAqPQNNzU1Iz0pBfbMDy1evxTEjUuBVa2AJj8bGvM0YmZ6G6vomnH/2+aivq0RZdS2KSgph0KqQkZaOH9ZsRmZqEtQ+4KRzz8ertZOgRO05piwJwqHolfKeEoHDH4G9CAIFbCh+Q4GeQOoPQaipqRFn3ulm5TEwHqOgC/SZZ54RZ+N5tp/n6EkWaNApOsOBmcfTOFAHjsXxb37HGSKNATdPsKzY2FjhpuVubB7LYB7OICn7O3r0aCF0w7PvNAicxbGcwTpiR7y6EoR3ij14v9hPrBIMQLpFhdxoBS/v9CAzTEGTA2h3+UAikWpWUGb1IUwLROkUxBiAbc0+xBsVVNt8mJ+pxselHpA80CCpFD+JIOkwagCnBxgdqWBptVeUx59AmhCt4M7xWuj7xusOq57NPrFqxXJo9XrxrHU6vfgJ9J8AAaULXhAGjxsul1toObD/BPoFv2NfZGI/0up0cLtc0Gi08Ho9cDgdsLe3Q2fQw+1yo6qsCEVb1yFVD1iMWhgMGqhVCnRaLXQGC8JikzDh7OsEQZiRMxK52YmIi7TAoDdhR3EpTJZojMgeBputDYkxBqzfWgiVIQKJERbA60K72wevvQ11DfVwedRIT89EgkWDNdvyMSIzDRmJkSiqtqKwvBIWixlRBhNOPu9svFIzEU5zSuczlAThsOrOsrISgSGDwD4eBModUz52IAjC448/LiRnmSjCwB+Sg3nz5uHee+/F559/LiSIGZOB7lWq7pFUUE2PYkk0uLyGRp1ruBRXohQzxZeoA/DQQw8JqVx+R5EeSunSKFAyl+2g6iDPqFMUhwJMFLV54YUXBg38rgThgXUuYeSZRoQruH2sBp+WeaBRgIXlXlyYpcbxSSpBGEgO7snV4OnNbsQwKq8ClLYDx8SrMCdRweo6H74q8wiiMCFGweYGH5bUeIWHgYa/wurDpdkavJrvxqQYFW4ao8EV3/nD/ZJMPDVDi2TTkbvUQIKwetVKqNQq6PQ6qFVaQTRp8AMbR+k54I/b44TNakNjY4PoX1w20OsNMJmMYqmB3zkcHTAYDeJzz275abfHTyi2bdmE5OQUdHTYYK0uwfiUeKSNGAWz2QL4HHB1dMDr8cGnMUCtN2HU7DMEQTg2dyw0Xi+io8Nw5qnzsG7NKug0CpISU+FxWXHlWTOxacsGfL2mHONGjkHO2LF49d2PkZmWKJZJzFovKirrMW9cNj5YuQkGSxTCVe0YlzsDb365CNkpcYixmHHS+RfhX6U5sOr2KGFKgjBor7wsWCJwRCMwqASBsQRWrlwplhCoSEfZZKrSUZo4QBAod8szl1QHpKoiB3EGLSJB2LJlixjkWQY9BpTL/ctf/iK8ApTNXbx4sVAiZEwAKuSReJSWloogOyQPVLcjWaCyHe9LEZ2DRRD+V+gR+w+YEo0Qbv6bx6jFfo5qG/DEdK3wENy50olWF/CnKRr8WONFlF7BhgavIAgz41WI0EF8RuN/30StIAXr6rx4u9iDNIsiyMeqOi8uylLj63IvxkRxkyTw2S7/vXOjVbhzvEZcd6QmsQdhxXIY9AaEhVmgVlO90h+7gSSAJIGbGDs67IiNjUFERBT++9pLKCkuQGJSCtRaDXQ6oyAFOq1ebPbjdRaLCbEmFcLVdiimGKzdWowNa9fBbDRiUlYiJo4ZhciYZLQ1NkKjdsBgtkBtjoCiMQAqvwrmqJknC4JwwuTx8HoVjM5Kwfix47Bw0SIMy0iH3WrD1HEj0FRXiSabFWOGj0ZecSUiwsyoa2hEZFQ8qquq0NjShDlTJ8HaUoV2uw2Z6Wn4bvlqnHXSLHy0eBVio2LQ0NSK6265Fc+Xj4M7LLgHgaIoVO/sLuJFbxs9KfTQdU8Ha9PnkdpXZbskAoOBABVoOd6MGTNGjHtdReJoOykNT0E4TrhpYyly1z1ROp5jJVNA9G3Q9yAcKBgkCCQVoSYOaAyowz0NXFroGsCIAaGmT58uNPcZPGiwUvdNipcudva4L2Cw7s9yfzZcjdcL/OSA6arhapyZfgSzA0AsOxUW5os9BvAp0Go1ou1iLwK8sFmt4jtrezsiIsMxeuQYrFq1DMOyRsBgNgnDvXH9Srz1xquAooLeZEBmcjLmRDbAom6D3eoFdEZERumw2puLNd9+heuuvAJuawe+++BtTBiXgfgxk2BOHg5ojVCrdHA47Ni8ZTPmX3uLIAjnHj8LDc1tyE6Nx8lTs/H+whWYd8Lp+N+nn2LKmBFobmzEpJzR2LxjC+KiI1FcY0N+eQVGJcchKTkZWRnDsX7jGnjVWoxITwfUarhdNpi0KlgiE/HdD4ugs8Ti2mt+hhcqxsFh9kdmZerNg7Bw4UIha82lPkpCk3hz/w6lqEkEOODwveLfXL7j91y+YxArkgiG+yb5Z78n+WYsEXpZAks6AVluDjr0DDKGRmAJh99xIPNvKuUz04oYFyQsLI/PlBLYgcT7M99QlFwfzPdZli0RCAWBBQsWdMr+U7q+67vDd5Yxg9555x2cddZZQiL+ggsuCKVYDFmCEFLth1im7gShxenDNxVeOP2k7KCnYxNUyLQcuUsLAUBpTNavX+vfN6DlEoNGnDrw+TxoaW0RHgGxvOB2o7W1BVGRUdCqtPhu0TdYu/InsX/glNPPwJRj52DB355AVlYGzh9lgNK2C+Gzr0TzD3+FISkdXk84rHWNKFWykGQJh72mAWHhGoSlZqCmzQ1vYxM8RjMQm4BWWwd0RhPOPPt8QRB+ftapKKisxbDEaMRGGrFpRylUioIzZ0/Dyryd8LhcGDViBGKiIrEubwfs1na02Bw4fsp4ON0d0BpjUF9fBYs5HNuKyzE8kb/LMDEnC80NFahpU5CRmoKzLrwYz5eNQ7suLihB4PIeQ5AzUBb37BBHevcYNvv0008XsUQYE4XkmpE6GQKbpIA4c0bC2CAciOjJozwrBx5izDyUGGf0Thp15mW5XOpjPBISBs54rr/+ehGRlMSegb5yc3NFYCySAN6X+5UCAx2jmXKfEeOzyCQRkAjsQYDvF+PyXH311Z3Rcrt6CAJHsJ999llBEPhudY0hFCjpsPIgHI4dQOogHJqnRsO2ZcsmYbh46oCnEThTdbo6hFEjUbC2t6G1rRV1NbW4+JIr8M+//Q2bN22EzW6Hw96O+MREXHPZpYhNz0TL2reR6qhCfKoWbZaJ8Ck26HVehKVPgaa1AG51FqBOhs/qQmtNCQpXbUDGzGmISEzHzmYrvCaz2Eir1+lx7Ow5giD85Zbr8M2qNYDHC4fTiblTxsHn9kCBCwUVjZgyfjyaWuphMUdi47adSE1KRF5+PoanJSAxKRkaHzfgRiMtKQ7vf/0DEmLCYDHp0GTzIEprRbvdjXaPDldf+3P8u3xcSJsUGZKcwb64lMflBGLGWBs0yvQokCjQW8AIox988IEgAYFlGy7pMWw3lye4xMfv2P+5ZMjBafv27SLgGBMJRED3gddxQzKDX1155ZWCHHAJceTIkSKQG4kFvQgc1FiPwDIHSQU/62lgOzS9Tt5VIjA0EOC7wf123KtHgt6TB4HvHMck5vnoo48wf/78fSrPaLl8h5l4iIBJehAG8BlLgjCAYPahKBKEjZs27N6U6IPNZkWHzSqOEjZU5YOHPDt8BmxYvx6rVq7E0/94DldfcSXXIITxtra3QqdVY/45Z+P6m29F6cePIi0W0KTnoL6iCKZhZ8G2/UNET70YJpUd7ZuX4oOfmjBrwnQYIsKgNoXDYa9HuzYCxugk6PRaqBQVvD4vZh47W9xj/nHHosPtQaRRjw6HEwajCTHhZmSnJ6GgqARF5TWYNWkUistrRF1Uah1yhw/H+p35aGlpwvDMYcgv2oGE+DS4PD7MO/4YRBq1+OKbbxGZNByVFaWorKvGjbfdiRfKx8ATlhrUg9AbxAITq1V4DUJJXD7YX16Wx8FJJomARGBwEKDtoSeBm/27JxJ/Bv2bOXOmmACQ1MfH79nEvL8aSYIwgM9LEoQBBLMPRZEgFBUViHVyj9sLr8cBg7MBxas/RV6dHkadghmjzTCnT8O/X/sMV197A2686WZoNDq0NNTC6eiARqvAYmYY6H+h9ssnMP6UM9CijoO9tQ6KJhIqnwO6hFEwtG6GdfsyfLorBSlpwxATHy/c/hRZcrgcYv2dsh56vVEILk2bcYwgCA/dfD22Fxcg0mRBVmYa1m3egahwMxrra3HDhcfjb298iZOn5KCwrg07i8vwt/tuwweffAybYkJldS1iLCbMnpSKneVtcLm9aLYDw4aPRsGWVWixd6DZ6kJLWzt+fc/v8VxxNpSozAMmCH2AXmaVCEgEjmAEJEEYwIcrCcIAgtmHovwEoQh2Hj10OGBor8Tnb7+Ad78vQnV1JXxQkJySgt/edBGmHTMX+VVteO3VN6CPSEFzYwMUrwtOawOsrS3464Jn0f7TXxGXkAJf9ly4fTrA7YA+PBGKrwP65i1oL96Ar8oSAY0BKWkZiImJhclkFi5wj9ct9g+YTRYR5ntc7gRBEM6bOxUWjRp2lxcpSYnQqrXQ6HWYOiYDba1WlFfVo67Njhljc/Djiu8E0TCGx6CkvB4RUZFot9kwIikaVocLw0ZNwrbNa9BktcKoVpCelYXK6hqEW6Jwxc+vwlPb0mE37gkvLo859qEzyawSAYlAJwKSIAxgZ5AEYQDB7ENRgVMM9CDEx8Xhnb/+Fgve/QEtbdbOYzvcqpmUnIiHbzsPI+b8DPk7tuLJJ/6GpIxs2Nvb4Opow//d/0dsytuKaZkKPNu+RNi0K+DVmQGPHSpdOHQ+K+qXvIQWczp+KNYjKj4RCfEJiIiMQER4pJBp5okJk9kkNuqZzWFiU55YYpg7TRj5zOQ0aH1WlNa1IyM1FRVV1YiNDENWZjZ8Xjd2FBTDYDajoakOk0aPwNbt+UjJzEFLcx2MihOmmBRsycvDlJHpMJkM2LgtH1Onz8a2ndtRUVOPe+66Hc9V5MJpOfAlhj5AL7NKBCQCRzACkiAM4MOVBGEAwexDUSQI+fk7YLVZkZKSjkduOhtvL9kh4hZ0Bmry+cQmxluvnIPLfvU4Xn/tVZxxznnYvvZbuJQwjB4/BQUFRSJPREQ4IpuWQFWWB0PqGCgJuVC1l6F921Jo00aiVDMRdXUNcLq8IlhSRHSsuCY6Og5NjbUIj4wR8RnUahUmT54qCMJNF5yJ2Ohwsexg1itobHfC63Jj/PAE5BU3wuNsRYTRBLtbQW1jK9pdbiREhqOmrk4INlkMWqh0ZgyLjUV5WwvS48OhhgebtxfC6gGMegNq6+rxyKOP4IntWbAbgnsQeByYpztkkghIBCQCXRHgSSJOciRBGMB+IQnCAILZh6JIECoqysTGujCLBX+87ix8ub4KKhr7qBh4rA1otzlhtFhw98+m4fjL7sdf//qU2CfAo4YRkVHQG81ISk4Rhp3JZNQiLVIFZ9UW2Hdthi46BY26RCSkj4SrbAU0BqO4rj1sMr76aiFi4uKQnpEl5J5jY6Lh9nrFMsPw4SMFQbj4hGMQbjYgIz4cbVYXmq0dUNQGjM1OhctWD5VWg5KadnQ4GBEUiIsKw/ptJThpzrFw2FpRVFmLKLMR8KkQn5yKosLtiLNQMhpoaHejw+kAVGbcfNsv8c/isWjXBycIlCjnMsjBiHbZh8cps0oEJAKHGAGOWQyRIAnCAD4ISRAGEMw+FCWWGIoKhLGPDI/CPZfPxdLiDowYMx0qRyViwlWor2sWMsq3XjQBWfPuw3P/eBKnnnwcRg/PQm19IxYvXY2aulpkDRstpJRJFCjeQ0Uyn+JFU2sLwvU6lH36Z4R5HQjTehEzahgiJ56NOm8mvl74OeITkjEqZwzCLGYh+xweEYWc0WP8OginzUVGRjraGuowLDMD5TV1aLF1YMvOUpwzKwd5O0uRkDkK03LS8O0PS+FyeJE5cjSKi0pEUKaKhmYYNGo0tlpxbO5wEZvh2svOxKoff8RXqwsQHW1AfZMLF199HV6vmwBPCEqKxI0iSDJJBCQCEoGuCAQEzyRBGMB+IQnCAILZh6Jo6LZuy9sd1tmH9Qv/h/c++wp1dhOGpVjg89hESOU0QwtOOucS6FKnQVW+BDpHIyxmLXQWM9SGKBS7R+L1N99BanomkpJSxEZBt5vLCIzi2AZVUyHa13+DOK2CaIsGkSkxMKVGoi3rBrzz3keoqarA9b+8HnHx8dBo1FCgxrRp0wRBuP2K87FlZwlmjB0BV0crxkyaA5u1TYRobqurxqikMKwqrEFHhwtanQHtditmTsrF1z+uhEGrR0QYpaBNwptwzinHYW1ePn7akIfR6fHQGMKxs6waw+JicMZll+LVmolwmIIrKUqC0IdOJrNKBI4iBCRBGISHLQnCIIAaQpFiD8LO7SKsM3weIZf8xbN/xI6iQsAcC5XHjlEJWozJnYyxp9+Gkm8eRJhGj4i4CHhtzdDCDV1kOtzuNpSFn4U3Xn8dMfEJ0BuNcDmdcHQ4RJjnOK0drZuXIDMhEga1C+ExYYhPj4Jhxr1Yvmw5klOTkJmRCZOZUsV++cyJEycLgvDLc09BXn4JLjptLhS4YY4dhQ3rViMlNRVbt25EZnoq8rZux6+uvRpvfvw5SsoqcOrMifCptNhSUAqP14eslHhU19YiJT4atU2tyBk1Bra2elhdHny9bB1yMpJx/U2/wnNlObAbkzqR6+0UgyQIIXQumUUicBQiIAnCIDx0SRAGAdQQiqShKy+jEfWKkwQup0usqxdsWQNPSx1MRgMM8WmITsxER+UaeIq+R4TRB2hVcFttUClqWMINUMIyYbOk4tm3lsHpcuOYWcdj3PhcaDVabN2ah+bGejTlfYuSvA3Q6RSMzI7FuFOvgjl1OiorK2AwGEUwKM70qWjGOowf7z/meMel50Cl+MQRSLdKh5ycsVizaQsiwiLhc9r8Ib7LG5CRGIPEcB/abV7EMoS5KhKNVQWwOXyobWjCmOw0bNhZCJNOi/nz5uLTRctR09wGn6KG2aTDTbf8Ci9V5cIdwikGSRBC6Fwyi0TgKERAEoRBeOiSIAwCqCEUSUNXUlIkdAhcLrcQTALPF+w+ucD4DB6vR5wg6Nj2JUyOAmg9Nqj0RnjcLmhVfglfnTkSSBiLBe9tRO6UmTj+hJOhUasY/0mEcKY88LrVKxFl9GLXliXIyj0O2eNmooaz+tQk1NXWi7DPVEHksgSXNcaNyxUE4fipEzBpeCqyk9OwePVaRERG47QT5uLNjz/DmGHD8ONPK5GWHI+G5nbkpCdAcTdBpzPDoWhEUKn12/KxvWgXpk8ch+zkFHy2+FtMSIuBKToFmwt2ISbChLa2Vlx74634T+0kOC1yiSGEriOzSAQkAj0gIAnCIHQLSRAGAdQQihQEobiQyuEidHOH3Y6ODge8Xg+0Op0/RoOHpwNUqFvxDozW7bBYDDBaIuFuqYMmLAzWpkYYI6OgihuF/y5twqVXXiOOLlI/QVEpUBQ1OhwOvPzic0hOSUVaapqIGskTByQXgKQbLQAAIABJREFU9B4wEqJWpxUBo/hDueXcCZP8pxhOniukny0aL6obWzA8LQ7NHRpUVNVg5PAsKE47dwyjobkJ4zLjsbm4AiPS06DWmdDUUAW9OQKVNTztYMCwpBh43U78sGEnjp00DotWb0RCXCxaW5tx2x1345WqcfCEB9dBkB6EEDqXzCIROAoRkARhEB66JAiDAGoIRQb2IChQxHFBt8slBJK43KDVMLKjWxhrHtspW/kJ2td9jKxRGdDqDVAY3Mmoh8/jhVbjhjN6DJaVGHHSvNNhJLlQqaHWaKBSa+BwOvDOW/+FVqtGWno69FoDTGYD3G4X3FzWUGugoSdCbxRLDCQO06bPFAThtz+/DHER4ahqqMJPG/Mxe2wmato8iAkzo76xAWaLAV6PBq2t9YgKMyE60ozyqmaoocbYYUnYWlKIxlY3wsIi0dHRimEpCaiqb0JUQjZWbtyI0048ET8s+wE33XQT3myaAUSmyz0IIfQdmUUiIBHYFwFJEAahV0iCMAighlAkCcKO7XnCg0ASwOdAcsA9CSQN/Fun04jlB71GhWXP34vMWB+iI2MArRqKRoFK7YXV7oJu0vVYv2U7Zs46ToSFVikQHgiNVic8BI8//mdMnTIJUeFhiIqNhV6nhUqjhcNuhYaeBo1e7D3gPU2mMIzbvQfhN1dfjMa6Ohj1KjhcCrSKF7uq60VY6pjICMRHR4iYCunxMXC7nCiuqIZKpUdsuBFhBgVOtRGKYsC2wh2YMDwLOr0Oa7cWYnhyNDaWVCMxJgZNzU24/Y478FL1RLhDCNYkPQghdC6ZRSJwFCIgCcIgPHRJEAYB1BCKpKHbtHEddHTrcwav1fn3I7hd8AEimqNaoxUEgvoEBpUHa956GIb2UsTGmuD2uOCKHIak2TdiV3UzNGqNIBqJiclCTYyeAHokPvn4Y7S0WLFp41pce90ViIiIgdPphA8qcV+jXi88BzzBwPsztOroHL/U8pVnnoTK8ipMnzoB9pYGjBgxFjUNjYgMj8B3PyyGQauD0aAgPDwGWq0eTqcLGSnx2FFSimiTAS63giabAw4foHg9UNwdqG21Y+ywRLRavahtakZSYiJOPutcvNM0FaqoDOlBCKHvyCwSAYmA9CAclD4gCcJBgXmfm5AgbN64AYpKJfQHuPfAwyUDrVZ4EDQUPKJsKP8piiAOagDF29fA01oNc0waWhwqtNk7EBUdhXCeLODyhFYDKIpYNlCrtWhsrAU8ThSVlGHK5ImASis2I6qgEbLK3OPgcXsESfD6uOdBwZix/lMMF58wHWMykrCprBlqjwPQ6DEyIwVVVVUoKKtEVlIsZs2YgY0bVsAYnY7m+moYVD60u3xCDjk6Mgz1rTa0Wh0YkZKAZms7Zk2agNUbNqGssUV4IfRa4OobbsfzpaPhMO4J1TyYxxxfe+01nHDCCUhLSzs0D1/eVSIgERhwBKQHYcAhhXAr00hI6dpBAHc/RZIg5G3e5DfqOi1cLpd/k6BKgU6nBRcaOJunZ8Dt5mkGN+wdDmxf8hHG5IxB2tTj8NJ9v4EqLAYj5p6E1JRU6PR6YZi5f8Hn9Yq/FZ8bWr0JahXg7HDAp1JBr9OLe/HZ83ilw2FHh71DbF7kNWPG+k8xXHbCZEBxIys7F3ExcVi7aROaWtuRGBeN+sZm1Dc345gJ4+F121Dd0Ia25iacNu90uKxN+G7laoxMT0dNUyMMerOQgc4vLMGI7BEw6bxobLOhqd2O2sYmPHD/g3ihfDQ6Qojm2N8lhqeffhqnnXYaLBZ/5Eoml8+J7xq+GNQOMNqci3Rj9j73qHFUYmPbqkG997FRJ8KiDh/Ue8jChyYC4eFHz3MPmSCsqvPiqc1u8cR+PU6DY+LpsJWpJwQkQTg0/UIQhC2boCgqcerA6/NCrdZAq1GL9QWfxyOWGhSVWsRfUKsUNJduRSR/19UhNjYZje02bN5VgpScCSJ8s91uh4WSyYriL0+jhkrRiBMNPBrJfQIarV4QQhc3JKrU4jOPxy28FyQIXq8P43P9pxjOmz0Js2bMQmF+HuraXMhOTUBrhxu11ZVwODpw9txjsKmgBNPHD8fWimYkRZjw5YrNuGj+xbDWlqCiohxFFdVIjE9Aa0sLoiMtcHohSMnOkl2C1MSEm3DCmefifw1T4DsIpxgWLFiA4uJiXHnllZg4caJ4+G2uFty6+spB7QhXZt2Ak5PO2uceqxt+xIIdjw/qvR+e+A+kmTIH9R6ycInAoUYgZILg8gIvbncjUg9cmKWhtoxMvSAgCcKh6RokCA0N9WKfAJcRBEvgfgNFqCHA54PwLgT2BYivXR0gnaivrkRUbLzQTrB5gbDwcLE0weuZ318GVxr2dPyASqK4i0olPAz+e/j3Hvgv8GORkJAolhzWLv9BbHZkHlsHRZQAvcEIR4eNTAJhZrMI8GQx6UU0x8gwMxweH5wOJ7QalTiZwX0RDqcTXp+CyIhwGIxmNDTUYtu27aLtZqMeJ887E3d+ZkNV+576DuYSA70sbDNjVkiCcGj6v7yrRGCgEQiZIAz0jY/k8iRBOJKf7tBt27p16zorN3nyZFz+XD5K6veEcR5MgtAdFelBGLr9RNZMIhAqApIghIpUH/JJgtAHsGTWAUNAEgQ/lHKJYcC6lCzoKEegTwShxUmfKRCh2+03PcrB6635kiDIjnEoEJAEQRKEQ9Hv5D2PXARCJgi1HT7ct5rBb4BHpmgRb5QkIVSCQFr1Q5UHhW0HvyNxr8jFWWroeZ5PpiMaAUkQJEE4oju4bNxBRyBkgrCo0oPnt3tEBX8xSo1TUkK3ONy8xA1a3OlNsZnuid9x41YoiZuwxDlzj0eUxbJDPU4YyMtreY3YeS6OwnEzWs+pL3ULlNDVg0By8NuVLuyy+sR+NY0K4IbPYElo/3NjnA9ig5zHB6h3/+7tWubz+p08+6QXZ2sRNtQ8P2wcGynTgCAgCYIkCAPSkWQhEoHdCPRIECoqKsAvhg0b1glUfwhCXl4eGhsbER8fj1GjRnUadd6Du543btyInJwcYfADxp+/+cOjYTxfzVRZWYnly5fjwgsvxEsvvYTrrrsOtbW1Yld3RESEyMNjaWInt9nc+bfR6A+gw+9iY2NRWFiIqKgoxMTE4K677gLPcQcIR6DBvM+UKVOwadMmrF27FjfeeGPInaYrQVhY7sHLO/3EKsEADI9QIdYAfFzqRZwBsLqBDo/fsEfrgUYHoFcBMQZFfL+zxYdkk4LCNh/mZ6rxRRnlgwG3z38N96hH6RVBPAxqCM/O6rp9GciUWJU4njqUTp/YPlsAw3GXCt0BmfqPgCQIkiD0vxfJEiQCexDokSDQwG7fvl0Y88CMvz8E4aeffsLixYtx6qmn4vHHHxe/zzvvPLz33nvi7yeeeALR0dGCOJAMfPnll2hraxPnqmtqasT3l1xyCc455xy8++67uP3223H//ffjoYcewltvvYVx48bhxRdfxMiRI4WaW319PR577DHccsstguS8+eabuPnmm/Hpp5/immuuwcKFC0HS0NzcjM8++wy/+93vBNEoKysTx9yoakfSwbxLlizBn/70Jzz44INISUnBI488gg8++GC/fagrQXhgnQvbmv3T+myLgitHqLG5yX/UbkmVF2ekqTEjTsHbRV7Udfhw1Qg1/lfoQapZEX+XtgPTYhWck6HGshovPizx4JJsNdItCiqsPuQ1+9Do8MGiAUrafLh0mAZvFbkxPkqFy4erccOPLnFveheenqFFkukQz9i9XtgWvgDnpiXQpI6C+dL7oKh79+DIlzV0BCRBkAQh9N4ic0oEgiPQI0EoKioSRnLmzJliFs/UX4KQnp4ujPK1114rjHtWVhb+8Y9/YOfOnTjzzDMFQZg3bx7eeecdYdBpqGmMX3jhBUFW+Dm9Ai+//LIgFyQGNOzLli0TXgESjWeffVaUR3JALwGNPz0Lt912G+6++27xHcnJF198IQgIr+O9zj77bJGXXgV6DaZNm4avvvoK8+fPFx4Llk2i8M033wiluBNPPDFkgvD8djcWVfpn9HF6wKxV8MAULe5d7US1DfjLdA0STSr8ZoUTrS7gyelafFjqEd6AKpufIMyMV8Hl9SHFrOC9Yg8emKyFWQMsq/bi7WIPMiwKEo0K8pq9uDhbg3eL3MiNViE7XMFLO/zei9ERCu6ZoIUptJWc4D3nQHP4fGh97jaoIhNgvuAuKDr/uXmZ+o+AJAiSIPS/F8kSJAJ7EOiRIPBDStIGyEF/CYIIZOPzCW8ExWwoVcnfH374IZ566ilwYOO9uNzAZQDuC+BPWFiY+JsiLFwOYB5eRw8H60dvg9VqFfsbuKeA+fl/XsM2kADwcy5TBARySBgCjeayAxM/4zWBZQ2WzXtyXwTvxXws6/zzz8cnn3wStP909SA4PMBV3zvFNdxDQBe/SaOAJ0K4ryBcC6Hox7+5JB+m9evrULnP5vbn0e2+xu31oc3lv4ZL91TQs7v95XITot0DGNWA2wtclK3Gfwv8yoFM8zNVuCT7ULMDf118DhsUjY6Rk4JiKTOEjoAkCJIghN5bZE6JQHAEDsomxd6qQcPNKHldiUjwKh+aHCQ5rGcomym7H3PkUgFn/jTcByORPGh3Ewjeb0a8CtPjpPTlwcD+UN7jYBIE7iviEt2sWbPEHh0S99zcXEGkmaRQ0qHsCfLeEoGBQeCQEoSBacLQK0XqIAy9Z3I01OhgEoSSkhI8/PDDYrPwHXfcIbxrXJoj4ZcE4WjobbKNRwMCkiAMwlOWBGEQQJVFBkXgYBKEDRs24JVXXsEzzzyDRx99VGwg5jIdJZ4FQXC34o61VwWtc38yXJ55PU5KOHOfItY0Lse/8v/Sn6KDXvvg+L8hVQZrCorTkZihp6P6R2I72SZJEAbhyUqCMAigyiKDInCwCQL1Q0aPHo38/HyxF2j48OGdx43lEkPQxyUzSASGPAKSIAzCI5IEYRBAlUUGReBgEoRglZEEIRhC8nuJwNBHQBKEQXhGkiAMAqiyyKAISILgh0gGawraVWQGiUBICEiCEBJMfcskCULf8JK5BwYBSRAkQRiYniRLkQj4EZAEYRB6giQIgwCqLDIoApIgSIIQtJPIDBKBPiAgCUIfwAo1qyQIoSIl8w0kApIgSIIwkP1JliURkARhEPqAJAiDAKosMigCkiBIghC0k8gMEoE+ICAJQh/ACjWrJAihIiXzDSQCkiBIgjCQ/UmWJRGQBGEQ+oAkCIMAqiwyKAKSIEiCELSTyAwSgT4gIAlCH8AKNaskCKEiJfMNJAKSIEiCMJD9SZYlEZAEYRD6gCQIgwCqLDIoApIgSIIQtJPIDBKBPiAgCUIfwAo1qyQIoSIl8w0kAoeKIDAWw/HHH4/o6GghvcwklRQH8snKsiQChwYBSRAGAXdJEAYBVFlkUAQOFUFgxTZu3AhFUUTIZyabsx3P/nBv0Dr3J8OJoy7E5LTj9iniUCoplttKUe+o7U+zgl47MWpaj3l2tG6B3WMPen1/MuRGToFKkaHj+4Ph4XStJAiD8LQkQRgEUGWRQRE4VATh+eefx9SpU+FyuTBjxgxRT1+HE+3vLg5a5/5k0E/LgW50xpAiCK8XPYdF1Z/3p1lBr/3PsZ/2mOe+Db9Cha006PX9yfDvGe9Crzb0pwh57WGEgCQIg/CwJEEYBFBlkUEROFQEgRVzOBzQ6/WddZQEIejjOuAMkiAcMHTywj4iIAlCHwELJbskCKGgJPMMNAKHkiB0b4skCAP9dPeUJwnC4GErS94bgZAJwtJqL/651S2uviVHjblJaollLwhIgiC7xqFAQBIEP+qHcg+CXGI4FD1f3nOwEAiZINjdwNOb3TBpgRtHq2HUKINVp8O+XEkQDvtHeFg2QBIESRDkHoTD8tUdspUOmSAM2RYMwYpJgjAEH8pRUKWBJgh2ux1utxthYWF9Rk8uMfQZspAvkEsMIUMlM/YTAUkQ+glgT5dLgjAIoMoigyIwkAShvLwcmzdvxvfff4/HHnss6L27Z5AEoc+QhXyBJAghQyUz9hMBSRD6CaAkCIMAoCzygBAYSILg8/lw+eWXY9SoUXjggQf6XB9JEPoMWcgXSIIQMlQyYz8RCJkgtDp9eHCdG1oV8PuJGoTr5B6E3rDv7kHwAdja5EVBK/93cFOYFpibqIZGapscXOAPwd0GiiDwyGJdXR2KiorQ2NiI8847r8+tkQShz5CFfIEkCCFDJTP2E4GQCcKSKg/+tc0jbnfDaDVOTJanGEIlCAu2urGi1gunt59P6wAuVymASQP861gtdGpJ6g4AwsPmkoEiCGzwpk2bMHLkSCxcuBDnnntunzGQBKHPkIV8gSQIIUMlM/YTgR4JQlVVFZxOJ9LT04V8KtOiSg+e3+4nCL8YpcYpKaETBN7kq6++gsViwXHHHSfK1Gg0yMvLQ05ODtauXSuU2Ph5V8EVKrMxabVa8fu7774DZ+es34knnijKSEhI2AuCgoICrFixAmPGjMHkyZNFO3Q6nb8NixZh0qRJQjP+/9m7Dvioir177t2ezaYTEkIJEHrvIIggTRTs2CuoD7Eh9vIUC08sWJ6fFazPigIiYEHARi8C0nvoNb1u/35nlsUQArnbAgkzP5bN7s7MvffM3Dtn/rXscdjvueeeK/rzF4pY/dfu/5vXsXv3bjRp0uSUsJeVICw65MHra33uoYkmoKFNhUUP0G3UqocgDS4PQNkCF/JiF0AHkSSzgkQzsKPAi/pWBRvzvBhSX4c5e91wegCP19eGoxNjBHSKItpTYrAh90RJRfdkFfe20uNM4gilC6bA1L4/FGtsiNNYNicC4SQIlBz88MMPSElJQf/+/QMGWBKEgCHT3EASBM1QyYohIlAhQaD18tKlS9GrVy/odD4iEApBmDhxIq644goRaS0rKwtr167F/PnzxcNn+PDhmD59OqKiooS1NEnJpEmTYLVa0alTJ7FIc4EfMGAA2rRpI2K+79ixQ3yXmZmJVq1aicXe4/EgOTkZmzZtwoEDB1BQUCAssLt06YKvvvpKvBcWFuKDDz7AXXfdhbS0NMyaNQuPPPIIPv74Y6SmpoLkolatWrj88ssxY8YMcU7sS1VV1KtXTxAInhvrn6qUJQhj/3IeW7DrRgHn1NYh3gTsKvRidbYHPWuraBWvYuYuN0rcQL86Oiw46EaDaBU7CjzYUQC0TVBwQV0VW/K9+GqbG1em62AzAoVOYH+JV/QVawQ253lxXWM9vs10obFNFW2e/stHTsw64KWuBtS2nGYpgteDkt+/hnPzMiiqiugbn4NisoQ4jWXzcBOELVu24IknnkBMTIyY8+VLbm6uuEdJ3nmv8UESGxt7jIxLghC5OSkJQuSwlT0fj8AJBIG75fz8fLFL506bi26oBOG3336DxWIRfXLBjY+PF2SAVtJcrLnzadeuHSZPniyIAxf2MWPGoG7dukIC8PXXX+PBBx/EkCFDxMNq1apVQvzJXU7jxo3x8MMPi4fTK6+8In776KOPMGrUKEybNk2QES70b7/9Nj7//HPxO0nJW2+9JcjI448/Lo5LMsJ+2K5Hjx646qqrRN9du3YVOygSEx6DD84bbrhBM0F4Y60LCw/5dAuUIHBv/2p3Ix5b5sCBYmB8FwPSrAruX+xAvhN4o7sBH29xi3oOtxc7C0kqVOwv9qJ5nIIZO914vrMBZkoh9nnw9Q6SCQXxJgVb8z24upEen25xCdJxfh0V41f7CEJDm4In2uthM5x+gpD3+ggoFhuib3gWanScvCfDhEA4JQiU3tGTgUSAUrfyhaqHKVOmgHkY7r33Xtx0001CGkjSwCIJQpgGtYJuJEGIHLayZw0EgRIEFu4O/OL9UCQIJB0bNmwQO/GGDRuKhT0vL08QED5QuOPm+8GDBwWROHLkCOrUqSN2I5QMUOrAzzSc4oOLRIOSA7bja+bMmUJFwF1+cXGxqMPFnGSEffAhx+PyndIG/7WxXxIN1mMb1jWbzeJcDh06JL7j3+yL0gfiQvLkT2l7sslUVoKQY/di5IKjqhLVt5PnLp67fqoX0qIUsdjzs9vr+2x3QxgV5jm8sHuAaL2CJLNP/XCgxIs6UYowFqUE4YjdC5PKOkCuA0g0KyhyenFpuk5IG1xHtQ1D66u4IeMfFcrpvBE8+UegGC1QzL7FRJbwIBBOgsD7NSkpSaj1SJbLlyVLloj7mZI5SvKoeqO6j/eTJAgyWVN4ZrTs5XQjoNlIMRSCEMmLJPkgsaC64kwp5b0YuPv/YJPr2GId6fNUFUUQhnynjx10TFJxcX3tNiORPj/Zf2QQCCdB4BmOGDFCEICRI0eecMITJkwQksALL7xQ2BfxPuzdu7eQukmCIAlCZGa47LWqEaj2BKGqAdNyPBkoSQtKsk64EQgnQaB6gao+2vv07ds34FOVKoaAIdPcQKoYNEMlK4aIQJUQBIr9aQfAQvUCVQvlCx9GFFnyhGgYWTZ1bIjXWOXNJUGocsjlAcPsxUBVGtULVB3cfffdAeMrCULAkGluIAmCZqhkxRARqBKCQIMmiirffPNNsfAPHjxYGAw+8MADwiWRC+qcOXPQrVs3ZGRk4J133hGGgjQYXL9+vbA3qE5FEoTqNFo151zDKUGgyuDFF18UNjmjR48OGCRJEAKGTHMDSRA0QyUrhohAlRAEGhHSI4FSAroZ0tqZRoV//PEH+vXrJ4ycGjVqhAYNGgiPBkob6NL47rvvit8lQQhxlGXzswKBcBIEevvQYPiXX36REoQKZs9z7d9Evaj0E36R6Z7PilvtlBfpdTgBd5moeAY9FP2JNmA0wKfUvLKitd6p+ikb16dsvZP1XTb2D89R8fKbU5RQjBRJEEgKPvzwQyEtoDSBVtJXX3218BBgzAUGNaKLI+MRUCXB+q+99pp4OPkNnyoD8kz5XUoQzpSROLvOI5wEgZ5CTNTE4GZ0Lw60SAlCoIhpry8lCNqxOh01i+etgHvv4WOHNnVqBmPLhsedCpdbuv/TjX/QoEGnPE1K1/3Byhirh5ttSvYCKfv27ROegOULpfsVHX/58uUieGGVSBACuRB/XbpB3nLLLSKWQXUrkiBUtxGrGecbToKQk5ODcePGoWfPnrjssssCBkgShIAh09xAEgTNUJ2WiloIAgk4F3l6Ai1YsEB44tGNnvGBGMH0vvvuw3PPPSdikFCi3rp1ayxatEhECGbMHgb/YzI1eu+RbHCX//zzz+OOO+4QqnvGF+IiHxcXJ1z1V65cKaTx/naMLcTghYwHRDdmnk+fPn3w6aefin65OWAsojOWIJyWkQ3TQSVBCBOQspuAEAgnQQjowBVUlgQhVARP3l4ShMhhG46etRAExthhtF6+U4VOryEG4eMivm3bNqFi/89//iMIAY32ExMTRZA/St8pQfjmm28ECWDkX9YnkaDrMQMOfvLJJ0Jaz3fWJYnwkxGSfsYLYkwhEoTvvvvu2PEZtZgxiJh7hRGJ6eYsCUI4ZkS5PiRBiACosstKEQgXQWBAMe5mqO4LtkiCECxylbeTBKFyjE5nDS0EgefHxZc2AAzQR/s8hvKnJMBvF/Dss8/iscceE+kG+OK6QrLAemxLg/+yNgxUV7CwHu2H2CdfbMOXP9cR2/htDFiX5IEBBMt+z354XpIgRGAmSYIQAVBll5UiEC6CQHEjVXt+d+Rrrrmm0mOXryAJQsCQaW4gCYJmqGTFEBGQBCFEACtqLglCBECVXVaKQLgIAg/EnQd1kcxXwhwngRZJEAJFTHt9SRC0YyVrhoaAJAih4Vdha0kQIgCq7LJSBMJJEKgPZVAz6iKZiOlUZdmyZdi8ebNIwe5XS0iCUOlwBV1BEoSgoauShq+tfwarc5cfO9Y1DYbjgrQTDX1pU0B1Aj34TlVoY+D35KOHH1UCp3KPLFu/fL+0MWCOlbKF6xUzstKgsXyRBCECU0YShAiAKrusFIFwEgTqKBlmmQ+i9PQT/f3LngyjLfLBxXl/LBeD3QHn9AWVnnMoFXQdmkDXpO4JXazIWYT3t08IpetK2/675QTUtTQ4od6Xuybht8M/Vdo+lArvdfq2wubPrB+DfSW7Qum60rb/7fAZTGpgLnaVdlrNKlQW5VcLQSAxoFs/jQxZ5s2bJwII/u9//xMujTRKXLhwobj3GBKAngsMGkj7g4svvhhffPEFrr32WuEF4S/0PJo4caJIsMh78frrrxdeCcyXwrbsk+dO1SEzKZMQ0I2Z/dP4sX379pIgVMVclAShKlCWxyiPQDgJAncUdLnSUihloNX0E088gZiYGNFEShC0IBdcHSlBCA63qmqlhSAwgzCNCumCSHUe75tXX30Vl156KTZu3CgIAd0c27ZtKwwML7jgAiFt4ELPBZ6vtLQ00ZZxhC666CKMHz9epF5/+umnhcsj78d//etfQgp43nnniX4+++wzIeVjUEISChIQShQoMZQEoYpmiCQIVQS0PMxxCISTINDtiq5UzZo1EzuQUxXuQIqKitCkSRMR+EwSBJnN8Wy+NbUQBOLDKKXcxdMVkYs4CTldEg8dOiRcEZ955hlBGEgMmIKAEj1KHFiHJIKujZQA+AvVfNu3bxceSEOHDhWRiikBJJEgGWA8BZIE3qtcoyhpoESBmwE/aSg/blLFEIGZLAlCBECVXVaKQDgJAlUMu3b5xNXcbQRapAQhUMS015cSBO1YVeeaDIzEnESns0iCEAH0JUGIAKiyy0oRCCdBoKETdyRLlizB2LFjKz12+QqSIAQMmeYGkiBohkpWDBEBSRBCBLCi5pIgRABU2WWlCISTIPBgFFMyxOsLL7xQ6bElQfAhIJM1BTxVZIMzGAFJECIwOJIgRABU2WWlCISTIGRlZYHeCVQz0Go60CIlCIEipr2+lCBox0rWDA0BzQRh3j433tvoFke7o5kO/dJOTF8Z2qmqLcOMAAAgAElEQVTUnNaSINScsaxOVxIugkCjqL179woDqFmzZuGGG24IGAZJEAKGTHMDSRA0QyUrhoiAZoKQ7/Timb9cMKjA4+30iDEqIR665jaXBKHmju2ZfGXhIgi0oqYPNlPL0hXr8ccfD/iyJUEIGDLNDSRB0AyVrBgiApoJAo/j8viOpldDPGoNby4JQg0f4DP08sJFEHh5DKRC1yombKFrVKBFEoRAEdNeXxIE7VjJmqEhEBBBCO1QZ09rSRDOnrE+k66UOd/pnshCH+nr39uKzCP2Y6f4nyvro09zXyCjsiUvL+9Y/AL/90wHu2LFCuHi2KJFi4AvUxKEgCHT3EASBM1QyYohIiAJQogAVtRcEoQIgCq7rBSB/Px8oRZgcBTmk79x4vagCQIDq3z++eciTvw555xT6bHLV5AEIWDINDeQBEEzVLJiiAhoJgglLi9e+tsFi17BPS114l2WihGoiCDsLvJiZ6Fvd1eVJdYAtIpXoZ4Fw8WdcH5+AfYePIJ9iIMHCsRlKxC50Fl0CqBTARUKjKoXOkVBidsr6vA/f31q0cSLwPHnCvBLNCto0zAVTIDC/v0JVPg3Df1YuKPni5/9u3v+TrE9P5cV3/vrcv4wWtr6detxYP8BXz541ZcT3n8cHkun18Gg10Nv0IuoaHzRsJDhVxVVxf1T87En12dYzBKIBIFkg3YILAzzWr74Q7ySPFByQULBsLD+RDCSIETuLpcEIXLYyp6PR0AzQZh/0I031/keNne31OHclMD1kmcL+OUJwrRMF37a40Guo+oRMOuAZIuCFzrroa/hLIEEoSgvH0c+fBUHoiz4ue5QrCmNg1dVxUKvU1UYdV6YVRUGHWBWvUiN0uFgiQclHo8gFAZFFaSBUJEE851EoSx2HvI8BeiWrMPlHeqI0KgMY8qwpf4Fn3OAhWFPmWDFbrfD6XQKEsEXM7Lxe75Y/ASCC29hYSGSk5Px3dRpWDR/ERS9Tpy7IAQGA/QGHYwGIyxRFthsMbDZrIiNiRHx3KOirbBYLDAYTRjzXQH25ARHEHi+dHFkxrlhw4adMHGZ6fGuu+7Cl19+ifvuuw8333wzmjdvLnAQxKjUgcJv5kV0wpu6tICx+YlRHpdlzcdbm16M6LGfa/8m6kWdmMRKxkGIKOyy8ypG4KQEgckbGFvdX+buc+P9o26OtzXTYUAAbo58MC5YsEDsflq1agUmquD7r7/+ir59+2LOnDli59G0aVNhHMUMVYwBv2/fPvFgpR6UD1XusNiH/70sVowdzwc0Y1XTWIuiUT6k+YCjPta/u+ODmH+vXbtWJMrw7+oaNWoUNujLEoT1OR48s9Il+uZuvp5VgVcB1uV4YVQBbl654HDNoYeI0wOxKCWaFCSYgD1FXjSyKViT48XANBW/H/CIOmKROlqsel+baIMCCnYorShfetVWcVdLfY2WJJAgFOflwzlhNHRpdWDodzuyjSr+yFKwOjMfWaYE6Ax6KPAi3qii1O2BQVHghhcuL1DqAYyqApOqCokBjXF1ILFQhOTBoAAeqHB7vYIwdKyl4vL2qSJeABduxlXnu3+Och4wyyHnJYmCw26HTq8/RiL8pIJzki+324WCgkLwpqxfvz6mT52OBQsWQadXRRu/xMBg1MNoMMMaZUF0TDRs0TbExpIoRMNsjYLFHCWMC+//Lj9ogkDSw8QujIcwbty4Cu8NkoJPPvlEJIchieA1HrNXsDvh/WFJ2O6pCjtq2whK4zon/LQydzE+2PVGRI/9WJMXkWapf8IxJu/9CH9kzY7osf+v7ZcV9j9u88PYX7o7osee0OojmHRndzbHsvkPIgr2GdB5hQTh999/Fw+9sv7PoRAE7jIYU5oPQT5E7rnnHkyZMgV9+vTBTz/9hJ07dwpywAfpyJEjRaKK//znPyLxxOzZswVBYNhXZqSi2xUXAu6ymImKRIZpMwcOHCgSTjAL1p9//gkaWTEpBVNc8uE6ffp0kXSGD7Bp06Zh9erVePjhh8XDmL7eLVu2xKBBg4S4lOcVSilLEMb+5cSGXN+CnWIB6kcr6FdHh0WHPNhZ6EGbeFUQgHn7uX8FWser2FbgQUObio25HmzL96J5nIo+KSpyHF58ttWNixtwT+sThxe5vNic5xVkYm2OFzdm6DF1pwt1o1R0q6XirQ0+chJjAP7TxYBa5pqra/ARhBzYn74Fap1kRA17CqU2M1SrERvHv4NsazyKBg7GslwLDDpVYMeR8RwlCC4v1Q6UIpCsKTDpSEZ96gW9Qsx9H6ieIHlon+QjCEyikpubK9QCTLjC+eZXaXC+k4SSKPBvf4IUznW+/OoISg44X6muIHElOZ8+bToWLVwMVecjCHohQaA6wQij0QxrtFmQAx7TFmuDjdKDqCiYzRYYTSaMnpoXFEHgvfXbb7+Je4zZ45599tkKb4c333wTt99+OxiWmcljzj///GPpZ6UEIZQnyKnbShVD5LCVPR+PwAkEgbt9PqSYKOKSSy45ttsJhSB8/fXX6N69u9i5U7fJnNXMVc0Hz6RJk8QDhg/EgwcPgnX5MGTaSj50KW3gIj9q1CghaeBD6bvvvhMSAvpns82ECRNEfYpW2Q/Jx9tvvy1yazMVJtNg8iE9ZswYsfg/+eST4mF95513iu9//vln0bZr164iF3eopSxBeHG1C39l+fTRCUag2A2828uIx5Y5cKAYGNdZj3SbivsWOZDvBN4+x4D/W+9GqdsLqgd2FgI9a6tYk+1B12QVP+9x48UuBiF9+HWfB1/vcCM9WoHVoAjCcXUjPSZtciEjRsHwpno8tNQpjl0nSsHTHfWIq8HxK4SKIScLxY9eBSU5ATE3vYzSWDOUaBP2vPAWdEY90sbcgVe+34PYWB28cWbkuGywQw8nd/Fe6vi9MClURfjUCz7jBJ/EwC+XMaoq9IqCdkkKLmuXKuaonwgwDSvnEucwCTHPiZICEgTebFQp8HfOO+5E/NIDkgPq8Xn/URLBDGzff/c9Fi9cDEWnHlVHqEdtDUgQjLBGW4XUQBCEGBuij6oXzOYoUW/0tDwY9QZc1ikeE37aH5ANAjcIy5cvF4SaqoNAiyQIgSKmvb4kCNqxkjVDQ+AEgsAHFx9W3IEzDSUfNCyhEAQumIsXLxYEgaoFPjS54+COnzt3/kadK6UDlBZw58LdFY9NNQMfqtR5khSQvJA48IHMBxcvgA8ynisfzlRVUN3AFJYsTD/L/vjgpY6WKgiqF9jO/+AjQaHVN3WpJC+hlrIEgSqCB5b4FmmTjiJsCIkAF/xSN9A0RhFBp/jZ6QVaxSnIsfvE27kOL4pdQIJJEaoJShB2FHjRJEaBWQ9Rj+qEKB0Qa1RwuNSLulYFWaVeDG2gw7c7SDR8VzOorioIQ00unFcl+TnIf+426KL0iLluvI8gxJix+/GXYbRFIeXhOzH2mwOobz2Au7pvw3bLNdh4MB/Lc00o9KhHpQdU2aiCEPgMFVXxTqpA+wQz9TheCIJwcdtUca9QEkDyy7qch1zA+R3nAl+cbyQJnNO0P+BvJA5ulwt2h0OQA/7O+Utywfvh++nfY9GiJT77Ax2lBz4bBIOB0gefQaLVFi3mNYkCCQKlByaTGQajEaOn5gYlQeB1vPLKK+Ke4n1IVUKgRRKEQBHTXl8SBO1YyZqhIaDZSDEUghDaKVZNa2at69atW1gOVt5IcVehFxPWuI6zGwjLgU7SCa30a5uBfcW+ClRh3N+mZpMDXicJQt6ShUhKno3DxY2QvV1FXMfeMCXGYtcjL8JstaDWY6Pw9OTDSDPswSPnrUJp2mg4vSXYv+RX/G1ujs0OG4phEtIEqhMoN+ACLQwVKVmgXQJfioI28cBFbVMFYaVUgMSa0gTa0PDlJ9c8LxIH/k7iwLp8sVC1wAWZun6SAqoXeFNSivD99BlYTIJwVIJAGwTjURUDSYY1Ogq2o8aJJAdRUezXCqPJKAjC/VNyYXep6JQehR/X5AUkQQh1fkqCECqCJ28vCULksJU9H4+AJAgRmBEyDkIEQNXQJRfipR9+jJ59t+Nwfgp2/LECyT2GIqWuEdnL7VBstaBr1wxPf5mFNMNuPDlgBUrq3A+H246s+d8irtMFcGb+gcyYHvjtsBFFXhpjHfV+UEgUaARKOwWSBQUt4oFBrVOFmstvvU/JFqUBlFzxRUkBbzLOCb9kjGSBBMBvk0PpGIkBJQL8jfVq164tCMKSJUv/8WDQG2A0GsTibzGbhMcCpQcx0TYhSSBBoASBvxuMBkEQsou9qBNrxJZDpZIgaJhDWqtILwatSMl61RkBSRAiMHqSIEQAVA1dkiD88fa76D8kH9n2Rsj8ZSaSOvZA3dq5KEm+ETDWRok9Dys37MamjdsxstsW2BvcA4fXjpw/v0Js5yEwbJsOJeNCzM6NQ0N7Ln7Ls8ChWkCnXhouGnWUIvjsFBrFAue3TBHGtFRhCfdCg0GotygVoNEiiQPVdlz0+Z2fCFCSQOnB/v37hfqAEge/jQ4/N27cGDP8BOGogaJeEASf/UGUxYyoaBuibT6SYKX3goUEwQy90Vfv/il52JvrglGvotTpkQRBwxzSWkUSBK1IyXrVGQFJECIwepIgRABUDV2SIHzz5PO47tZi7Mmrh52zpqF+v8tQr/YRHIi+CraExii150PJnY/tcyaj8XoHpjQajssaHkIBShHTdQgMW6dByRiE73LicZGuGAbvKmw29cKWLDcKPQY0jjchNdqARItOSAYy6tUSxrP0tqG+nvYyJAScA/7gRTx1vzGicFfU6QQZYB2n0wFV9Xk90KWXffbu3RtDhgzBjO9nYsnipcJ7wefB4Fv4eRyLJQpWK20QrLBFR/viH0SZYTaZRR29wSdBKHUp6FA/CrPXSRWDhimkuYokCJqhkhWrMQKSIERg8CRBiACoGrokQfj6yWdw442H8cfmeHiWzkPqeZejSdpe2OvfC6chTRAENXchFnz7IXruN2L4zr74rN5sZLXohYQeTVBatA/mJoMw+bAVl+lLYNOtRGny+cLdsbggB3FJ9VFq98JiMeBQTgGa1k/GDz/8IDxrTExsdDT4kc8t0RcIyR+Do/wl+A0Y+U5pAqUQNNSly+7ll1+Omd/PxNKly4UNgoiBQHJgMMJsNsF8lCAwSJKVxopWK8wWsyAPJAh0hRw9JRu7c3xuriyBRFLUAPcpq0gbhFARPHl7aYMQOWxlz8cjIAlCBGaEJAgRAFVDlyQI37/zAXpd0hzrN2xDyYypSB84GKnJG+BtPBoufSJKS/NgtW/Cgqnv45xdXtyyvTc+azQXC+K7oO+lTeFIrAdXdDPsWzkP+/NT0Sb1IGIyekExW+E5vAAHZu2G98KhcHpVxJiAJo0bYO7cufhl9myYLRahUqCo379Q+0lC2dgIvqBIPu8GEgNKDvii/QJfdAkePHgwZs6YhaVLlgmSQeJhNJpgMppgpgQhKkoQA0u0BTFUL1gZ/+AfgkB1xP1TcyRB0DBvgqkiJQjBoCbbVDcEJEGIwIhJghABUDV0SYIw+/8+QKcbh2D7tkz8ev/TuHL0bbB0a4YnvnAiPlrBiIEWJCgHsHLmZ+hVqMOTh87F+PifsUDfAudd0gz7PA4csbbHV69OQOcLb8WaL97DEyMugtqpOzy5G5A9Yw9Kzu+OnzflY3CrRLTr2FlECV22bJkwMmRMAr6TKHAnz6KnNMFggI6uk4rPc0HkSzjqBklyQBdH2inQfoHut1QzzJz5I5YtXXFMEiHsD0xGWExmEWaZdgdWqw1RVhOioqyw0EDR5DNkJKm4f2quJAga5k0wVSRBCAY12aa6ISAJQgRGTBKECICqoUsShJ/enIRON12IvVt3YdYDz+Ka0bdD16U1Rr6cg6QUBS/cmoofMg2Y+8kkfFBrDealn4sLDOuwwt0Sbbs2xpLtO9Cq26VY9t3/kBndCWs+fg0XdktAvYHDYTp4AHs370Jyn474eaOCewYnIiWjt0iLvGnTJkEOfAaDjEdgFhICxu2gAaLH4xZqCkoIiouKhbqgVq0kQSJIFkgQ+OI1MEhSly5dBEFYvuwvsdgLewaj4aiKIUoQBJIQX3AkH2HgMY0mPQz6o14MjIOQK1UMGqZOwFUkQQgYMtmgGiIgCUIEBk0ShAiAqqFLLq7TX30P3W+9CDk7duPDe57BTQ/ejsRzu2DEuL3Q6+1464HG+H6bHr99Ngmfxa+EfmgTmJKt+Du7BVIbdsamn79Gpi4Gltb9sGJ5DvZ89hReH9MHBRlXYNv8Bfjoj19x1VXnI6NZb6RF56J2Rh/8/fffIrGRL2CR7Zj0gAs/IxL6MywuW7IEBrMJycm1kZqSIoIiUR3B+eJXMVCCwEBLDNw1a9ZPWL5slc9AUU/bAoNQL1B9YRYEwSJiIVBy4CMIVEH4QjELI8VpOUFnc9QA93FVGBqdodmZQ4JF2iAEiqD2+tIGQTtWsmZoCEiCEBp+FbaWBCECoGrokgRh2qvvocfNg5G9fRe+f3gchj50J+K7tMWY9w6gOLcQbz7UBNM36TH9088wNW4hzFd0hqW2HpvzmiCxQWdgw3fIjmqEh346iMcH98QnX3yJDs07INlRhGijE18s/BP9+rdH3/7DkLNoATpfN1zkK2AsBBIBvriT546fRod0geROv6iwEHv27kW0zYa83FzxW6+ePZGQmHjMFqG0pARFxcWCZFDN8MOs2Vi+fPWxCIpGvS8HA/u3RNEOwexTLdD2gQaKZpKIf1I/3/9d1REEEiQaWDI/iih2J0qm/q5h1IKvYujUDPqm9U7oYHn2Qry79eXgO9bQcmyb11HXcmImyV+3TMHqvfM19BB8ldF9Xquw8dNr7sPekl3Bd6yh5dudv4RRrSBZ06EcJjWJXGHc86RYX1a6cmVz4To4vJFLlWvVRaNBVGP4wqXhWAbWyF3smdOzJAgRGAtJECIAqoYuSRA+fGciPHEGpMclY8G459Dp7vvRqX9PjHhuHVQU4a1HO2DqZgNWTp+FtPUf4Zkne8JQ2wZ3dCcUGNKx84+vkd7+fPx3XwqGJhnw/nsTcU+r+li1z4rUlGL8sWUbYkqz0blPOmoZm6HLdbcL9QJVCdFWK6KsVl+YcL0eDqdTJBOzmM3Iyj6CuXPnYUdmJi65eKgI5dytew+RZ8Rvk8AFltEWqaJg8rIfZ/2CFctXC2mAcHE86ubIYEhmkgMLVQ1moWKIivIbKLKuz3tizHSqGIJL96wB7uOq+AlCw4YNxfdeuwMlUyJLEIydm5+UILyz5aVALyGg+s+QIFSQ7tmxfCNcmyObUTHqugEVnutTf98beYLQ5SuYKiAIxUzt7fxnrgUEpobKitkI80U9oJh8dj1lyyMr78ARxyENvQRXpamtFe5t9gQsOl8qc39K9+B6q16tJEGIwHhJghABUDV0SYLw1a8Lce/IR9G0xe0YaS7C1k5FqNchGQuzeiN3899ot+z/cO1DQ1Hg1mHfwj9xID4d6XXiEGNOQUbbtpg961ekt2qN3YYUNCz14sPJH6NNs25ollMIJcUNNS0Fcz95FS06RqNp46Hoc8uDxwiCX73gzyPChX/N36sFAVi/fh3mzvsN9913r/BGYPwDkgCbLeZoPATnMTUDJQ4+gjAXf61YB4Ne9QU/IlHQM1SzSXgt+EI20+XRRxJMZtahlIEppfV44PuqIwjlh+dsVTGULl0P56bI7uJtN15Q4d3wxKq7sbd4p4Y7Jfgq73X7psJ0zwVfzQGc/9i7BH+EiluSIFiH0pvoRILw4IoROGKPHEFoFtMao5s/CYveGu7LOuP7kwQhAkMkCUIEQNXQJQnCwnU7cNGwSWjXvDmejTfBPaQ26nWvg+dnWlGyZRVu3zIWPR9oB2NSLFzFR3Cwzn8w9I4pGFNvIy5//G58vj0WLeNykbd4Mtr3vRCT3xiPlJ69sWxlCoZ1zUW9Rt3xwbtPoWmTKDRvdhH6XDfqmIqhrIGiCFZ0NGgS4yAweJI/BTT/pqsjC9/9MRB4M9KTgf0wiRkJwsoV66AXBMHokyAYTD4Vg9X3TjJhtjA2AlM860QsBkobeOwHSRDyqkaCIAmCDwFJEDTcqEFUkQQhCNDC0EQShDCAWL4LSRAiAKqGLkkQ1m8/hHOGfo52GTF4IcGG6GubILlzLTzyjQr97nV4aNvjaDCqFfQJZpg9dhRl/Bd1e36KF1svxRXPPYzPM5PRpxFQ8PNTaDDweni+fwu2wdfi9mnN8FG/GbAXdse2FZ8jJjoH+1s/gCEDzhdpxV977VUR3VDEQaC43+iLaOgv/jlBQkD7Az9BIFngZ96IfNHL4bbbbsNdd931D0EQCz7dF/WCADBbI1UMftUCoyf6PBgMMJr+SQktCYKGSRNklZN5MUiCECSglTSTBCEyuFbWqyQIlSEUxO+SIAQBWhiaCIKQeQg9h3yCto3jMC7OipgbWqB259p4ZAqg27UOj2x7HGkjW8GUGAWTtwRFjf+LtO4f4Pmmi3DV+EfxRWYq+jZVUfjzWKQPvAFuEoSLrsZt3zbFxwN/RHFhF2zZMAUWtRCl7e7AgPPOxzfffIMPPvhA7PzjE+IRFxsjxP96nR4erwcet1tEU1RU9RgxEIGSXAyW5Ev3XFBQiLy8fGGDMGzYMAwfPtxHEP5aL+wZdMziqDeKQEkms1HYHAhXx6PRE4WBooiBwIBKPgnCQzPypAQhDPOqoi4kQTgeFaliiNBEO83dSoIQgQGQBCECoGrokgRh3fZ9GHTNRLRumIR7lCikjmiDtE6peGq6E/q9mzAqcxxSbukIJdYKj9eO4oQ7ce/z32NQ7d1o1a83thXboZYWwqJzIz4+HTFWm1h0Vb0ZesULN0qx9O/ZOJK/F+2a9sJVg0fi559/Fq9oaxQu7F4L9ZKtUPUmKIoKRXFDUZl7QQeFVtA0hPYwWFKpIA5ujxcelxt7D+Vh5uIsZOfkHgu1/OMPVDGsF0RDb2CoZRNMeiPMVrPI5niMIFD9YPbFPjCbfDYIegMJQr4kCBrmTTBVJEGQBCGYeVPd2kiCEIERkwQhAqBq6JIE4aNv3wL0FtRPbgqnMx+FpTlwuAsQY01AlCkeecX7UD+1Mez2EugNZmzOXIkDh/ciNtaGrJwjcIPZD40odZYgOSEJBYXFUPReGFQD8osKANUOl8eL4iI7ujQ/H8MvH40///xTRFO05x/C+sWz0aRFW8TGxkFRIGwPmEeBKgASBkZLokqBQZMYPKmk1I6iomKsX/sXMtr2hD46Cb169RLJmr763+eY++NscT40VIwymaHqVERZLLBFGWET2RspVTCIl88WgaoGs/h77N9p2F9sOIaczMWgYRJprCIJgiQIGqdKta4mCUIEhk8ShAiAqqFLEoRr7r0Ql11wMXp3vgDvf/sSsovyEW2KhgsORFui4VWcUGGATu+CzhONwwW74HR74XK64HZ54XDahZuhLdqCosJSON0uFBc60bplY2RlZwF6N2LNycLVq35Ka9x8xUgsWbJEhFo+tGcbZk79Gm5LosiqqNcpgggw2ZJBb4CO0gNFgYdfAnDY3XC6XCiyl8CTfwB9+1+AuNoNRJjlQYMG4e3XXsO0L76ATlWF+sCs6mAy6ZEUHYWYKCOsJtokWHxJnIx6WPmd1QJbbDT0BiNePdwbB53RkiBomDuBVpEEQRKEQOdMdawvCUIERk0ShAiAqqFLEoRR465H7eRYWKOsOHDoMHJz8pGUEA+XxwFTlA7OUhV2uwMGnQ5OB1DiKhSBiIw6M4xm4PDhIqiKFx63gth4K/JL8mBUTXCWKtApeuQUHkLD+vVQVOTAhb2H4OoLb8fSpUsFQdi/OxN//Pk7iu0en6+01wuX2y28D/iZxMDvwcA5IorXC7vDDqMO6NihPdIaZODcc89F//798darE/DFJx/BoDKSoooYcxSsFhNi6Npo0IlIijRejGVgJiNDMSuwmHwEwWQx4d2C/jjstkmCoGHuBFpFEgRJEAKdM9WxviQIERg1SRAiAKqGLkkQLrypPzJa10GU2QBrtAGFRaVC5L59y15h9R8XZ8XuzMNISIiFXjUjc+dO1K5rQ0GuE3XSEnDgYBacJR4UFJTAGm1Bx47NsWL5BhGl0OO0wxCjQOfWY29mLv414laMGDYaixcvxvz580UuBXoh0J2RHgx+TwV6NviDq/jdGv2hlWlMyPlCdQO9ExhDgSqGfv364b8vv4TJ//tEkIgYk89LwSKkBSboDbRvUGDQGREXbYGqp2GiApspCgkJVqHWmKy7DDlKnCQIGuZOoFUkQZAEIdA5Ux3rayYIh0u9eHK5EzpFwTOd9KhlPjHkZXUEIBLnLAlCJFCtvE8RKOnnD2A2GmB3uqAqCkqKi6HTm1BYUCJiDMTFxeDAgSzExFgRE22D2+OG1WrGnt2HYItjPYdQDThK3dDpVSFFyD6SK3IeOOxOuJ1uNGlSG4mJNiTHpaND6/Oxbt06bNu27dgJ0mOBL8Y3YKHKgp/Lujbyb//NR6nCMYkCgAYNGqBjx46YOX0aFvz2m/BiMBr01E/AZNDD6fb4EjjpdDDqaQDpi5xoNOjEtVtMNKrUY+L+9jjitEiCUPnUCbiGJAiSIAQ8aaphA80EgdeWZfeCtCDBJMnBqcZaEoTTcydw0fUvwlV1Bn4JABf5cJZw9HvTpB3IPGKPCEHgg4NSEhIfGl2SDPGzX1IiIymGczYc35eMpHg8HjKSYuTmWkAEIXKnUbN6lgShZo1ndb2a697dEjGC8OGHH2Lr1q1gFsf77rsPN998s4j+SC8KFkkQIjdrJEGQBCFys+v4niVBiADSkiBEAFTZZcAIRJIgTJw4EbVr18bFF1+MzMxMke46NTUVTZo0kQRB5mIIeK5W1kBGUqwMocj8rpkgOD3AuxtciDEC1zXWw+DLfClLBQhURBBy7V4cKKl6uGwGoI5VEWfxPIYAACAASURBVKohWc4uBCJJEH744QesWrUKd999twg13bZtW9SqVUukqZYSBJmsKdx3miQI4UZUW3+aCcLSwx5MWOMzuhrTWo9uyZIhnAzi8gRh4UE3pmV6sKsovHpqLUMcZwQa2lQ83FZfUSp1LV3IOtUUgUgShMogkSqGyhAK/nepYjgeO2mDEPxcqqxlhQSB1t7MTR8fH38sA93cfW68v9Hnu31bMx0GpOkq6/vY77Qu54Fozf3+++9jzJgxmtv6s+BNnz4dl1xyiaZ2n332GW644QYcOXIESUlJwvec0e4YgKZ8Vj1+5rXu3r0b6enpIhNeqKUsQdhb5MWYJU7RpUkHxBgAvapgf7HP4FPsto6+87P/73iTglgDcMTuRUaMglVZXpxbW8WSwx44fIkAjxWjKuLvwKyDsNzPsZ9IRHqnqBjVUn9GSRJc+7dDl1QXiuHEFK6hjoFsD0iCELlZIL0YjsdW5mKI3Fw7nT1XSBA2b96MgwcPomfPnsJKmSUUgrBo0SLhtsXFl4v0c889JwgDfcHpI87XtGnTxPH69OmDWbNmCZ3mtddeK975HUnFrbfeikOHDmHq1KlCtMmyfv168WJgmcTERHz//fdYuHChqLN//35BckgumEzn8ccfF3pS+q2TtPB4NKrKz88X/ud81alTRyTaKSgoEP35rz+QQSpLEMb+5cSGXN+CnWTiAg481FaPKZkeHCn1opFNQWqUAkpouNDz70IXkGFTsDrbgy15XjSKUdEjWRGL/8ebXRhcT0WBA7AZGbwH+Dvbg1pmYGWWFzc30WP6LhcSTQqaxar4ZoeP1NEt9dlO+tPvgUJCtu5PuPdthWPtn7DdPgGqLSEQeGVdjQhIgqARqCCqSYIgCUIQ06baNTmBIJT1z+YOvG7dumEhCO3atRMLMAkCI8X99ttv6NChA/7v//5PRKK74oorsGPHDvzxxx+CCJBMzJkzR2S3o37zwQcfFBbTJC6MU//777+LcLRc5LOysnD99dcjOztb/HbvvfeCVtYbN25E/fr1Rba97du3Iy0tDW+++SY6d+6McePGib7YPwnBnj17BIlhna5du+L+++8XfQZTyhKE51a6sDbHt+WPNwK5TuCj3kY8tsyBA8XA2I56NI1Vce8iB/KdwHs9DZiw1o18hxcJJmBnIdCztorf97uF1IZE7Y3uRhHtb/YeD77e4Ua6TRHSgz1FXlzdSC9sRVIsCp7rbMBtfzrEsema+nxnvSAOp7V4Pch5eogQedhuewX6ei1O6+nU5INLghC50ZUEQRKEyM2uM6fnEwgCRe5cNBmljS/u7kOVIHAnz507C8X/AwYMEDv4jz/+GI8++ihyc3MFcaAagCoBEoOEhAS0atVK+Ffzu19//RUkGVzUly9fLhZxm80mFnYSgxYtWojdPokAz//CCy8U37MOJRgbNmzAOeecI1LyUipBMsB67J8Eg9dJIyv6n9Poiv2TwARTyhKE9bkePPOXz3bDohOJ/NAnVYf5B9wocgHtEhQkWxTMP+BTHZAMbMv3wKAqKHYB+U6vkCpQzbCv2ItNuV60SVAQa1RwqMSLTXlexBgU0BjxUKlXSA3Y/tJ0HWbsciPPxw/Qr46KO5oz2M7pL649G6GoeujqZJz+k6nBZyAJQuQGVxIESRAiN7vOnJ41GymGomI42eWuWLECnTp1Ej+TLNxyyy2nHRlKUChxuPrqq4M+l/JGitvyvXhqhfOYfUHQHWtsSA+ThjYFm/N8qo1EE/DmOVLPrxG+GlNNEoTIDaUkCJIgRG52nTk9n1aCcObAEN4zkXEQwoun7C04BCRBCA43La0kQZAEQcs8qe51JEGIwAhKghABUGWXASMgCULAkGluIAmCJAiaJ0s1rigJQgQGTxKECIAquwwYAUkQAoZMcwNJECRB0DxZqnFFSRAiMHiSIEQAVNllwAhIghAwZJobSIIgCYLmyVKNK0qCEIHBkwQhAqDKLgNGoKoIAo2NGUuE7siMHcIiIykGPFyaG8hIisdDJSMpap46AVeUBCFgyCpvIAlC5RjJGpFHoKoIwuTJkwU54MOkXr16vgtzuGCcszKiF+lqWR+e9NonHGN1wTJ8uu+tiB77wfTnkGo6eq1ljqRbtxO6nYciemzHhV0q7P/lzCdwwL43osd+ocl7MKqmE45hmP0XFJcvKFskitdogLN3a8B4oqv2uO0PItt5JBKHFX02sjTDiLr3waz6XP79JDhiBzyDOpYEIQKDIQlCBECVXQaMQFURhE8++UTEEGFQNRIFWSQCEoGagYAkCBEYR0kQIgCq7DJgBKqKIDDwGFUMTZs2hdFYcbyN559/XgQju/HGGwWZYGG8kWHDhmHs2LHo1q0bBg8eXOk1Tpo0Cbfddlul9d5++23wPmRk1YYNG1Zav3yFnJwckTeGwdcGDhwogrTxYbls2TIRCfZUhbFU9u7d+480pUxlnj9Dx2dk+IKEMVjbpk2bRGh4Rm5t3LixwHDChAm48847jwWqC+QCeAxGwb3ooovQpk0b0fTFF18UEWT79et3QlcMQz9ixAi89957IoX3pZdeGsjhTqjLiLc8NjHzF5LIm2+++djn2bNnixD5d911l4iay+B3zZo1w+rVq9GrV6+gjl9cXHwCXgy6xzD85QvTCRDz2NhYgXNFhWH9k5OTgzqXmtJIEoQIjKQkCBEAVXYZMAJVRRAqOzFGO+XCw0WXkUzvuOMOETr9xx9/FAsEH9bMgcJ3hlBnNFRGUmVUVy5WzK/CSKzbtm0TuVNeffXVUx6SIdsZQZV5WNgHA7AxeRsXn61bt4pF+bLLLsOXX36Jf//73+CCPnHiRBFe/aWXXsI111wjor2S9DDB3EcffSSOzXaMrspcLk8++WSFBIAnxvt/y5YtYsEjAWLumcceewyvv/463njjDREingvmqFGjxALORaxly5ZikeSCtXbtWvz999+iPs+LUWYZkv7ll1/Gvn37RHj5UxViS1yZdI9EgzltmI+G0h3mqYmOjhbnxOOcd955IpotX59//rnIQcMxYNruzMxMsVizHhd9fzTcysabx/j6668F9iSEbEuMOQ7E5sorrxQEhr/Pnz8fP//8syAuxJZtiTWlUTy3uXPnnnQBL38exIwB94jvt99+K1QBJGocPxIgXuO7776Lhx9+WOTpYQRfliVLlmDnzp3iHJo0aSLC8PvzELE9v+OcPRuLJAgRGHVJECIAquwyYATOFILAhXXmzJlid8ddJRcA7sz4HR/cXDy4oHAHyAWZu3RmbuUCwcWFO2tKIPji7rgygsDQ6VxouCByISBZ4MLHBz0LFwxKK1iPCyEXXRIU5orheZCE3HTTTYIg6HQ6zJgxQyxir732Gn755RdxXjxPvioqvP8pFSBBYGh57pD5oL388svxzDPPICUlRRCQuLg4kSuGod25u+biVVJSIs6FCx2lICQPzDbLY5G4+EPfV0YQmI+GuDJcPiUSJAQkXSQLTqdTXAdDz3MhpESGx3z22Wcxfvx4rFq1SuDORZOh59mO+XKYI0dLoWSIoe6JG0khF1leF6+bRJHYsm+ON+cB8WGyPkodOLbDhw8XOFGyRPyefvrpUx6W40RSyULSQfL20EMPiblCcsX++T2lVMSbUiGG3ueLpIfjznPkmJC08npJMjhPOY78+2SSMS14VOc6kiBEYPQkQYgAqLLLgBE4UwiC/8T9IlvmP+HC4y+8X/jig5yLV/mHMQnGyRbjk4HCBYHH44LEnSIX4/KFC6g/W2vZNPDl6zHrLBcRLmgkD4FkeOXi7r9Wf34b9l/22OWPVx4fnhsL2wdayvflb88FuLKFt+z4kCiFWogFx5nJ8coWP/b8jcehdIH5d0jgtBgEsj3xZNuyagZ+z2Ny7EgQSRQrKuXx9Z8PSU35cw0Vg+rWXhKECIyYJAgRAFV2GTACZxpBCPgCZAOJgETgtCIgCUIE4JcEIQKgyi4DRkAShIAhkw0kAhKBMghIghCB6SAJQgRAlV0GjIAkCAFDJhtIBCQCkiBEdg5IghBZfGXv2hCQBEEbTrKWREAiUDECUoIQgZkhCUIEQJVdBoyAJAgBQyYbSAQkAlKCENk5IAlCZPGVvWtDQBIEbTjJWhIBiYCUIFTZHJAEocqglgc6BQKSIMjpIRGQCISCgFQxhILeSdpKghABUGWXASMgCULAkNW4Bv4okYwWyJDKZWMp8OHPz4wTcLLCYEEMLsQYFRUVhtlmgq5gYjTUOLBr4AVpJgh7irx4YrlTQPB8Zz3qWdUaCEd4LkkShPDgKHsJDQFJEELDrya0JkFgoCcGTGIESYYTZiCgr776SkRvZHRJRjFkgCFGr2TkQkYfZETBBx54AOvWrRN1GJaaQadatGghojteccUVIvIjozEyN4UkCDVhtpx4DZoJAptuyfOCwbwyYgKP6FUz4av4qiRBOJtG+8y9VkkQztyxqaoz8xMERhlkeGMmiTpw4IAIJ8xoigypzGRFo0ePFomi+OxieGp/SGI/QWCYaYZPZkhmRhdkXgtGvTx48KDIrSAJQlWNaNUeJyCCULWnVn2PJglC9R27mnTmkiDUpNEM7lpIECg9YPhqhg5mqOh58+aJXA8vvPCCCGnMhElM1MRcDE888YRIDMUEWUxwxRwHJAvMBsnQ1Uy+xERTrPvf//4XnTp1EjkUJEEIbnzO9FaSIERghCRBiACossuAEZAEIWDIzqoGlCQwx8XJchScVWDIi60QAc0EweMFpma6kWxW0CtFhSq1DCedUhURBLsbyHf6kq5UZbHoFERXbF9Ulachj3UaEJAE4TSALg8pEahBCGgmCH9nezBulUtc+uPt9GiXKI0UTzYPyhOErfkefLPdjVXZVU8Q6lsVNItTcFuzf7Ln1aD5Ky/lFAhIgiCnh0RAIhAKArt37xZqKcXrz3kJCJ0VdVdl067O3efG+xvd4li3NdNhQJr29J9cMGnQ4nenOZW+ivX8aVErSzHK3O1XX321puunpe5ll10mjHB4ff70rSfLr846U6ZMwbBhwwJK78qTKUsQCp1ejPjT5/1BoQspglkHlPqgPGmJMQBWgwK2bxqrYsURDzonqVid7YHTc3wzvzRHr/j6L/87a/dJVXFnizOLJHjtJVCMZuax1TSGslJgCARCEGJiYgLrXNaWCEgEaiwCpANci7kG9u3b9x+CwC//+usv5OXloX///scWx1AIwqJFi0Sf559/PmJjY4Wxy++//y4W9z179og83m3bthXv77zzDgYMGIA///wTvXr1wvLly4X17IYNG7Bw4UK0b99eWNs2aNAATZs2xUsvvSTccqZOnSrcdOjvy75ICGhxy+/mzp2LMWPGiD7o8rNjxw6RJ3zx4sWir1q1aonrZL2WLVuic+fO+Omnn4RRT5cuXdCoUSPQH5gGO5deemmlk6IsQRj7lxMbcn2Sg3gjUOAE3uhhEGQrz+lFWpSCRBOwNscLkw6INfqIRJMYFWtyPNiU50WaVUH7BBVJZgUfb3ahd4qKbDuQaAai9ArW5XhQy6wIEnFrUz2+2+mGzQDUtarguLHUsyr4dwc9Yo2neTHmxNu+Eu7De1D6x1eI+dcbUGNrVYqprBA4AloJAu8J3g+ySAQkAhIBIkC3102bNiE+Ph5t2rT5hyDwB7rDcOHk4s3FkSVUgkDXGAbVoC/tkCFDhPXsqFGjhJsNDWVIILiLIUGg2w19cLmQT548GY888gh69uyJ1NRU4V5z++23CzJBgrB+/XrBckgQ6NvLxX7SpEkYO3Ysxo8fL9jPypUrMWLECOHTm5+fL3x66b9LskLiQLLy9ttvY9asWahbt65oS4LBc/nwww/FOdN6l5a/0dHRlc6gUxGEHAfwcW+jiCmxv8Qr1DVtElTcs9AhyMO7vQx4dY0bOXavIAA7C4FetVX8sNuNS9J1mLfXjXd6GeHxevHTbg++zXSjrlURUgnGqrimkR7vbHDBqlcw8VwDrv3V9+C36oHxXQ3ChuS0Fo8H2U8OALxeRN/8AozNu53W06nJB9dKEGoyBvLaJAISgdAROKZioGiB0gO/CD4xMTFkgpCZmYn09HSxwHLB3rdvn+iTx6IRBI9HVxmqNBYsWIDk5GSh99i7d69YsFmHvrlr165Fu3bt0KNHD6GGILkYOXKkIAvTp08Xv1FqQGkAg4IMHToUDRs2FG48JAH0+2VfK1asEASFUgH68Q4cOFD0xzokDYMGDRKSiFWrVuHiiy8GMWDgEAYJ4auyUpYgLDrkxutrfbv4KB1Q7Aaua6zDzF1uQQi61lJRP1rBj7vdKPUAQ+vpsPCgB0YdQMPQHIcXDaIVtI5XsSXfK6QFnZJUJFuAfUXAqiwP4k0KovTA4VIvOiT61BFXNtRhzl4PDpT4pBd9U1WMPENUDM6tfwEeNwxNu1QGpfw9BAQkQQgBPNlUIiAROIbAcTYI/sW7rK1AKBKE8jjTvoGLuJZCEsHz0Nqmonr+Psoej4u438ah7N8nOycSjptuuulYm1Ode3kjxZVZHoxf7TPwLF/8dgllv6dNAcnByepSZe8t93vZfihNoFRi2eF/jBU+6m0UJEKWswcBSRDOnrGWVyoRiCQCJxCE8gcLJ0GI5IWcCX3LOAhnwijIc5AEQc4BiYBEIBwISIIQDhSP9iEJQhjBlF0FjYAkCEFDJxtKBCQCZRCQBCGM00EShDCCKbsKGgFJEIKGTjaUCEgEJEGIzByQBCEyuMpeA0MgVIJA10fGAzlZrJCyZ8N6tPWpKC0w7YLoPs3QvnRPlkUiIBGoXghICUIYx0sShDCCKbsKGgGtBIEeOnQhpucQPYjodlxQUCA+c8E/cuSIyOBHn+jDhw8LV196/9AziQs/PYzS0tKQk5MDvV4vSAXJBfuhNxTjiTDWAvvib2zP77OyshAXFyfa8TMzDPoLI7ixfkpKStDXLxtKBCQC4UFAEoTw4Ch6kQQhjGDKroJGQCtBYFY+uvJyd08SwMKYJHPmzBHB0j744AOR0IeuyP6FnKSBMVJIBOi2zMWdGQAZr4QLP12USSq40NNVmS7IDJhGcsDPbE/3YwYmy83NRb169dCvX79j1/rFF1+IgGetW7cO+vplQ4mARCA8CEiCEB4cJUEII46yq9AQ0EoQGLX03HPPFZHTuNAzVggXci7gjFzKqKJcqJs0aSKkAQxgxkBqjDlCMsw4Jwwm5icUXPApYSB5YCTSZcuWISMjQwQso6SBZIN1KB1gDBRGOCWZYDwSWSQCEoEzDwFJEMI4JlKCEEYwZVdBI6CVIPhjh5RJxyJUB1QLFBUVCbUDVQMMZMZ3qhHKznH/d+X7YfwSqipICNh3+XgkbFc2FklF9gtBX7xsKBGQCIQNAUkQwgalVDGEEUrZVQgIaCUIIRxCNpUISATOAgQkQQjjIEsJQhjBlF0FjYAkCEFDJxtKBCQCZRCQBCGM00EShDCCKbsKGgFJEIKGTjaUCEgEJEGIzByQBCEyuMpeA0NAK0FgBlfaA8giEZAISAT8CNCGiPZGdHeWEoQwzgtJEMIIpuwqaAS0EgR6EtCtsWxytqAPKhtKBCQCNQYBbh5IEiRBCOOQSoIQRjBlV0EjEAhBYJpzWSQCEgGJQFkE6PLMzMuSIIRxXkiCEEYwZVdBIyAJQtDQyYYSAYkAIGKiSIIQ5qkgCUKYAZXdBYWAJAhBwSYbSQQkAkcRkAQhAlNBEoQIgCq7DBiBYAjCtGnTkJ2dLY515ZVXisiJFeVDYPTFr776Cq+++qoIvzx79mwRJbFVq1bgb+znmWeewcKFC0Wuhptuugnvv/8+mjdvLqIzvv7667j++utFdEZZJAISgeAQYPRThkofNWqUuPfGjh0rXlyD3nzzTfTo0UNEPX3xxRdxxx13gMHM/ve//+G+++4T4c4LCwtFtNOTFUkQghuXU7aSBCECoMouA0YgGILw7rvvgvYIO3fuFA8dPkAYUrl8GT9+PB599FE8/fTTGDFihHgfPny4CNk8b948QQRIFKZOnYqhQ4diyJAh+PXXXwVxYL8M5fzOO+/grbfeCvi6ZAOJgETAhwDvu3//+9+CADDc+e+//y4IACOh8j587bXXMHLkSHTv3h0TJ04UbQYPHix+3759u0iWxhwrkiBU4YySBKEKwZaHOikCwRIEhlZmkqVbb731lASBO48FCxbg0KFDIgwzH0JXXXWVyM743nvvCeIwbtw4sUMhQVi7dq0It8wsj0whTYJASYIsEgGJQHAIjBkzBpdeeqkg9JdddhnuvPNOQRBYKNWrVauWkOB17twZ33zzjfj9lVdewb/+9S+RmZUSiLAQhK15Hjz1l89X+plOejSJUYO7orOglSQIZ8EgV4NLDIYgfP7554IcsFAiwAWdO5Py5dNPP8WMGTNw44034uKLL8b69euFOqJTp05CKrB06VJcffXVQoLA9k8++aQgHFRHUPLw9ttvC5EodzeySAQkAsEhwERoJNlUA06YMAGPPPKIkCYwjwrvN+Y3ueuuuwRpIIH/+++/ceDAATzwwANCesDEa+edd17oEgT2sPiQR3TUPVmSg1MNpyQIwU122Sq8CARDELjIUzfJQv9n7kD4frLC+szEKItEQCJw+hCI1H14zAbB4/F4T9/l1awj0xCEQWdk4JmaNa7V7Wquf28rMo/Yj532f66sjz7NY064DAZKknEQqtvoyvOVCEQegWMEweVySYIQJrwlQQgTkLKbkBC4ceJ2SRBCQlA2lgic3Qho9mIgTMXzlkBXKwGmNtI1KWAVA+mX9wzhYAoAhf/VrMKdcEFBwT8XRSmO/1PZv6v4sn2j7hX//IWGgNQPRrIEo2KI5PnIviUCEoHqhYBmgmBftxVH7hsvri7p9Udhap1Rva60Cs+2vA2Cc9d+FH4zG/Ylf1fhWZz8UGqtBET16wZLny7QJdScELskCNf/617s3rMLeoMZ5/TogviYaLRt1xYJ8bGIsliQlJgIs9kIr8ctfIK5ausURUQLMxoMwiiPRafTib/54m//8AwFXo8XpB6uo324XG543G7odQrcR79zuz1wud0oKbGjqKQELrcLxUUlcDpKYXe4cH6v3oiPj4/ofJAEIaLwys4lAjUeAc0EoWjW78h9zec+ETf6RliHnNzyMVDUcnNzRbIYPojprkEfabpN2Ww2zV3Rhap169ZiB0nfbVpOl32wa+4oDBXLEgSv04X9l90Lb6mjwp716WlwHzgCb+k/uuKKKrKeK3Ov+MnQsC7ch7LgKSrxVVUVoAITkujrh6Dw85kVX5GiwHbrpYi57uQ+sGGAokq7IEG4edT9yCvIx/YdmRg8aBAS42xo0bIpkmvXQmxMDOJi42A2G2A1GoQQpcTuEAu+0WiA4agxntfrhlJcDJ0tBl43SQLgVUkkdEdJhe+ySABcbo8gByx6nSqIgMftgdvjEb7GJaUlgmQUlxTD6XSjxG5HUWER+vaUBKFKJ0cAB/vggw+EBTj9xDMytG2EpkyZgiuuuCKAo5w9VTdu3Ch88Ol/379/f00XzpgZtK4/Xc9wTSd5hlRiMLJzzjknImdzAkFwOBwiwAndJ2677TYkJSWJA4dCEBYtWoRGjRrhpZdeEkFS6B5Ff2lGYqMf5+LFiwUxaNmypXgA04+a6WdbtGgBkoetW7fikksuAc+NgSA4yRgEgp8ZkCUzMxOTJ0/GsGHDsGfPHuFjPXDgQHGD08+T7lZVWcoShMMPvQLHyo2+dTwxFvo6yVBUFZ7iEhgzGkBXpxaKvpsnVDdqrXg41m2FuWNLOHfuhal9C3gKi+BYswW6lCSuSNCl1hK7XvtfGwTpMDSuCyXKAvfBLKhWC9xHcmFskwHH+u2w9GiH0mVroVhMUHQ6qDHRcGfnwbX3IDy5PlF82pxJVQmNOHf34T3wFGSh6NuXEHP7q1DjU8JyDiQIt97zgJhDq9euQc8e56Bendpo1KgB6jeoj9jYGMTHxSHGGgWTXicWc+74FUUHeD0w6vVQFQV/fTcZDcxuRKe3gaegEHqrFbDZYKpbH17Vb9HvFQTAA0UQAJICiE+K+J5zwOl2oaiwUHwutdvh9kJ8T0lCr249pAQhLKMe/k4Yn4GbFEagmzlzpnh2MeIj4z0waNT333+Pe+65Ryx6fP7QLZQqI/62evVqsdnhc5PPomuuuaZCN9Hwn/WZ2yMXGRpsM7hWamqqwKtNmzaoW7euwKioqEg8wxlka+XKlSL+f3p6unjv27cvvvjiC3Ts2BH79u0T0QBlOR4BrtfcIO/duxe9evUSax7XWa6r9EiiW+PmzZvFmsg1lvEQGJeEc7eyclIJQnlGHCpB4GR46KGH8OWXX+K3335Dnz59xAUwFCTfeYPx5uKFMrAKb74HH3xQ+HXSwpqkIisrCzfccAN++OEHPPHEE8K3c/r06WKiMQDE888/L+oQkA4dOoi6lCasWbOmMhzC+vtxBOH+l+BYs/kYQYi58WIUfD4LhubpiB42CPYFK1E8dzGsl/aHqXNL5E+agpibLkHufz+DIaM+bDcOxaHbn0bsnVfDtesAYm+/AjmvfSoIgqFxPXjtDrj2H0bs7cNgaJCKgi9+QNyDNyPn5Y+R8OgIHBz+FDxFxYgdfhk8pQ441m4RJILvp4UgkACOuwJwOWAZdBvM3S8ByojwQxkIEoTbRj8MvU6PbZk7kJiYiA5tW6FOnWRkZDSBxWJGnZTaiBOSKd8CTyMFr9cjpAdmoxEFO3ehdM062OLi4CoqhIHiA7cD3tJiOGOjENvvIlDB4PF64HK6hJpBVVRh0+FyOYUkR6gZ3B44XA7YOT5OJ5xC3VAq/JOpfujaobMkCKEMdgTbkiBce+21WLJkiQg7vW3bNjz22GP4+uuvxUOWIaT5XJozZ47YfDCENKWd3MzwuTN37lzxzmcaF72zvWzZsgWMm8GImqtWrRIEgdJeBvAhMaWHUwAAIABJREFU8VqxYoWwx+GixsWLz2+615I08LnOmBlc0EjEJZ7Hz6annnpKSGZ++uknMf8uv/xyIXXp1q2biLBIYsUYJQyKxJgjjD3CsejZsyeaNm1a6dSskCBQelA+PnMoBGHdunUikANvJN5oZIm8gfg9T5jvHHw+4Dkp+B3PoVmzZuJ7ThYyH3/saPplz58/XzB5gkC2/9lnn2HQoEHigvPz80Vbil74m//7StEIU4WyBKFg6hzkv/2VjyDERCNq4Dkomj5PLP7WywfAsXojSv5cgagLe0NfLwUFn0z3nYWqwtAwDZa+XZEz7n1EX3cRvEXFMHdvKyQOji27oK+dCMVshC45UdgSlC5dA6/DCWPLxqJ9VP/uKJrxmyAQ0UP7wLFuG2gP4S0phXP7HhiapSP5rSfDdNXau3Gs+R2ewhyYe1yqvZGGmpw/d4x+FCazUaiaDh45gvN69URCQgzqpNVBYkI80hvUR5wtBk6nQ0gL9AZVLPBUNxTn5WP/z3PQvFUblBw6jKy8XBgNesSYDDC4SlFacASItcE24BJ4VJ+6gZIuRcc+fJIDqh0oRaCNQ3FJqSAfpXanIAaUWBQUFcJhd6Jnl+6SIGgYU1lFIiARCC8C3GBfcMEFmtQ3FRIELnA00ipbQiEI7I+BHMxmswi64u+/7DsftnzAkkmK9JKKIkRM/J7fMQIbyQLFUVz0i4uLRT8M0sKHb1mjMtbni3VpyxBpa/Hyw1feSLFwxm/Ie+MzsctUDHqxiEPn23WqFjM8hcVCDcBCiYBiMsJbXOr7jvrvUjsUo4GWc7463PlSpE0DuphooYbgzlWNs8FTUATFaBTqCBh0QnURO/Jq5E38Bu7dB+ClYZ4X0KcmIfHFMdBTdVFDCgnC8HseQIzNKhb9DVu2oWOnjkhOjBMGinXr10Orls1hi4oS84U2AzqdSphEmfHUw8jo0BtN0+rD63AgPy8fdqcDeoMeCdFGGEryUZy9F/r2PWBo1QZw45hNAiUKQnXkcsPpcsLpdAm7A85Zh8MJh4tqBw+KiotRWmJHzy7dJEGoIfNOXoZEoKYicEYYKdY0cCuKpEiDQhojngmFxIO2EDWtkCBceu0NQmdsMBixadsOpNWth0b108SindG0KZo1b46k+BhYLRYhHaAbJLnaofk/Y+7b76LbxdciPb0R9IqKvOwcGAUxdcNg0MGsc8Obn4WSolxYhl4Ft94syCxVCg6nU5BaShI4/ryxaHfA3+nlQOPEwqJCYfBYUmxHj05SxVDT5p+8HolATUNAEoQIjKgMtRwBUDV0SYJw7qCLhH6TOuHDWbkotjvQrk1LIUVq0qwZ6qalIjE+FjarBRazCUa9Aflb1uDID19h4dLVaNW4CTr0uRBGixWq0SAENS6nHWYTpTleeJylcOQchlvnhqHfUKg6IxxuSgyc4gxJEhiUtKSkGB7W93iESoG2ClR9sZ7d4UbPzl2qrQSBRlA0GKNRVNeuXQUhO1U45sqGjvkfGCeeBmscN+pNgy2UGlK12K5dO2HITHUlDeKCLVRd0lia5xRqZFRKk2hwRzsGqk1DLbSt4pzneNCmi7ZYlLQGW+i9wcQ/GzZsECo66raDLbzWX375RSQJoq0GbQdooBhsoX0an6uhzI2yx6bxKZMUMaFR27ZtQzo3Xh9x57XSboVjEUqhbd2AAQOETR5LqCpyquN5jTSeDbRIghAoYhrqS4KgAaQIVOHDcui1NyPKYkJaHUoNPNi0fTu6d+mC5ORaSE1LQ+2UJKQmJyE2OhomkwEozMPBD1+GUru+eKA1MJvQs88A2JLrQNHroKO6Rm8E6L1AFZFbgcflgKsoH944K9C6PTwGszBKdLrcvjgKR90a3R6XcG30q9IKi4vhsNtht7vQtX2HaksQSHKYhIkGert27RLGeFQfBltoSMwHK+2SqC4MZSHhOdCmiQvwH3/8IYzgSBaCLSR47Kd3796adLanOg4ftrRZ4YOfRmKhFs4rjgOvkYZ/XNBDIWo8N7642NHDjIaaoRQm7GrQoIEwPKdxIhMEBVtI/OjNFspY+o/NMeVYsE+SK9rHaXVnrej8ec/TSJAkiONAQhlK8Z8bHQWoQmdCtGALjfYnTZokMqv6PRID6UsShEDQ0lhXEgSNQIW5mt9I8fDhQ8jIaCo8DdZv2ijc1dq2b4t69erDFm1BjC0KcTGxiDYbcHjGZ9Dt3YwsGLBg6WokGQxolZKEJi3aQdEbAEUVkgT+rRrM0JuiYIiyAvzNbYfbaoK7VjK8qQ0EIaHKgqGW7KWlPldHF2MhlAppAt0eSRAK8ovRs0vXaksQOGy06Kf6hLZFV155pXAtDraQIFB6wB0/jaPLG0gH0i8fiN99952ISfDuu++iffv2wiAr2PLRRx+JprfccktYJAhvvvmmcN0LRapR9lpo9U8rdXqD0Ree9lnBFi4kXNy44HFxpwt6sIULC8kLd8KUmlCSozUGQkXH5E6f1xhIbJxTnTtt2Ohaz3lLwhsKQZg2bZrwnuMcocdGqASB40Cy/OOPP4pd/7333hvsMAj3Rl4n+5MEIWgYw9tQEoTw4qm1NxKEq275lzAErN8gHQnxCcjNzxfeBLVTUtGiZTM0btwQURYdoqOtMB3Zh6KZHyHGFo1v/9oKp2JCbEIcLAf2omWsASlpjeDyKkIy4Obi7nTCq+oQk5iEpLSGsCYlQGeJgttRAm9iAorqZ0DRmQAVcIvdmBMOujm63CiylwqiwO8L84vRu4eMg6B1XGU9iYBE4PQgICUIEcBdEoQIgKqhSxKEzuf2hcPthslsRa3k2qhfrz7S05vAGhMLh6MUZpMBTZo0QqpVh5Lv3kGdxDisWLsZi7YegC4uBroSB2q5nUiyWZASrUe0yQKdTi8MEe0iTLIT2UV2qDoTatepjbRGGajTtDVMUdEo9bjgSqsLT2o94bHgdjmFJwNDOVO9YHc44FUUHMnKQ98e51RrCYKG4ZBVJAISgWqOgCQIERhASRAiAKqGLkUuhutvhNvrQX5REQ5l56LU6URSrTrocU5vDL5wqIhJsHnzJtTduwTNkAOLwYh585fjsB3IUnQwmiyId9vRtF9fGLasQrLbheQYejJ4UOpWsCu7ELtz7TicVwpFp4dN70XtOCtade2BBm26wat4kWcvgqFrbxQK1YIHBpNB6DztpXYUFBWhqMSB87qeWXEQgjFg0jAksopEQCJQjRHgc4su4YrXn6XmJBcTShyEaoxPUKcuCUJQsIXcSERSvHuMMLTirr+0uBBFBfkiOFGR3Ymk5FSc328gurVpCcfPE9HYqqLI7sKCZetRUOpCjsuDOmkpqFcnBSV5+SjKOoJYmiFQzeBVUKiYcLCoFCVuN9x2F6KMdGn0wuv2wKR60SA1Gc1btEJKwwwYE5JREBsDJa0uHC4XnA6HyPtwhGHEHS4MOq/PGSNBYAhhxgupqHAuly/lY6RoHTgah5V/zAjX0CAjaYbz3ES47KPnVzZBV7DXGs5zI77h7K+qx4H3o1bjSf84hGvOhRO3qhgHfwwgLfdU+XhF4bhW3o9lvXU4drRrkQRBy4horCMJgkagwlyNBGHk/U/AZDYjpXYKioqLkHv4IBylhSgpLsDhnBwczM7BFS3T4c0+iPz8EvRtnID9R3KhcwMOJryKi0erZs2R3ro14s67CLlZ2dDp9YhOSoReb8IfC5fhw4mTEJeUgl0b/0ZXiwd6tx0Ohy9p0/+3dyVQVhVn+nv7vva+001jYwMNCBEDaqNgcFcSNSYajFlNoqMenckMOg4aM5qcQYhxNGYxJuSMJjFODEJwNCGIChIVZRHQXuim936vt7fvc75qL3m03f36PR7S0Lc8HPDdqrp1q+re+uqv7/9+oyKBAqsBcxZ8CtPrFsGjVCBSUwNfJIKhIa+QQzUZ9Lhg8XmTBiBQTtjEeBMjEhcSehWMTPRYyMTlj3UNR9D8R2I9Iz0gJlI3FxLubrLVNn4ISVYT8TXi8aPugmSRp5vGahtBWCaAg98Txp0ZmTJpG+sgsXRk4sKUiYvkROYI3XsnaqESaqTRaFae9VQcB86PscD6yE6hF4b03k5kHCYyjzkPksGcfMQwkV5LM48MENLssCxlJ0C4c/WDKCoqhlqlgslsEkGY+vrdGBrywN3dAe9gP+z+LkxHFL19PpTmm2FVJ6COJBBHAmqLFbnlFZhz062wVZ0hhI/IG6BrgkqpRDAUxJ83v4QtL25Gn3sAOmUUdXNmY5bThj2vvwq/ywUQdSsTKCrIw5wFi2DJL0Rs1mx0h6MYHPLCoNXgM+dNnmiOz+7vw//2fBwgZGlY0q6GH/YbHd24eNbYfvOTGSCMtQhPFoDAj/5IS06mAGEi43C6AISxFuFsArVsA4R028b7J4NYGSCk/flKXUAGCKn76ETkIED44Y9/AavVLmIr6LQaEbCJyR+OorurA20trSh17wFaOxAIhqEwajGzogC+zi7h0qgyGZConI+Ka29BdWUhTEaNAAfkEkhRGzt7vFjzr/+MeDSIVV+5GbteexVVNXWomTENW59Yh8HWFkQjQocZdq0aZSX5qK6/GL5oCJGaOeL3S+rrJ40F4dn9/ZMKIHC8ltkG8eXZtjGnyUQWpnTmWDYtCDJAgLAKSZYgGSCMPhNHs+TIACGdt/YUzSsDhJMzcAQID61/EjabA1arDZqPrAhmqxFK+h4q1HAPDMDj7oH75ecQa2mAQqtGRKtGlUUDRSQKQ1kV5t3+PRzs6MeQx4Pq6RUoyLUKDgG1DAb6h/Dqq2/i5Refh86gxSM/Wg+j2YiBvn40NreiqaEZ3vffQvee9xDVM/y2C6pEHNVleSg58yxEa2YiZrbhmksulgHCONNkJECgnznFdugHT/VGCSBIZ6bUAqD/Oc3kYx1R0Ewv8R34jnJHKO2wJIDAv3lNMrdLsV74/1SOpAATLQFUp2No3dESlRwXLFggLiUfqcgWhNTfhcl8xCBbEMYZP5mkmHpySzlkgDDxvspmTgKEz93wZSytXwaDyQS73SHO0CumTUMkHITNYkVCqYTZZoX7SCt23v8dKOIKuCMx1JZYYYzEEZm3BJqas+DxDqGrq1toGEChQjQOOPIK0dVxBG3NTWg80obplVW4999Xw2x1QqVLfOTaSJU2P9xtrdi+6U9o2bYN0WAIdqNaLCxzv3E7whotrpUBwrhDPxIgUESJ4YG5KFPwhRHpGNqW8sDXXnutEAsiv4MCRDzvfuutt7Bs2TJs2rRJCCVRGpqiOFLgNu7e+J5yd1tcXCyix3JR5+JORTzyMiimQ5Gtbdu2CcGfpqYmlJSUiHvddtttoNId66UIEEVteD9K+PJcuLm5WSjg2e12vP7660JKmuBkMnAQ5COGzLggMkCQAUJW1isZIGSlG9OuhABh5fVfRHFROc4793woNVqY7Q7hZVBQkIfurm54PYOwO+0IB3w4tPM1aN7djng4CJ3FBKNWhU2xfFxz/Y2omVkDk8kAJeJobm7HX1/eAr93CJGgH4EhN9w9PSgtL8VZ8xbAWTYDVTUzYXdaeUohBJLIfWB45+7OLhzY+Ro8vT0omVWLvPJp8HuDuGypfMQw3gCPBAiUwaYKIbX4JSVCAoSXXnoJzzzzDKjGSNU4Lt6PPPKIsABs3LhRKORRmW7t2rVwOp3CusA/3KnyPWXcgfXr1wuQcP3114smkaTFkPQEEevWrcNTTz0lZIwJFChrTNXHe++9F5deeqmI+1FZWSnAyz333CMkinkv3pfKegxvv3r1athsNgFOZIAw/mvNcaGlh2OTbAkay9OFFh7pGq0/I0m1I0mxvPtIpv5EPzS0WiVzN1gPx5Nt4O8ElOmk0drG8tLzJEcilgLAJdef7MWQ3DaWl+pg+6Q4MeO1jfl4LCRzENIZwQzzygAhw447zmIECI898TO8/d670OuNWLKkHo6cXAQiUVjMFigVwAsvPI/2zg6cM6+ObyLqKivw4bZNCLi64CmqwVv7D4hd6NL6enj7euDu7kZ7rwv9/gASsQSiPGoIB+D3h6BWROAg+99gQXn1LHxq8RIUFRdAqU6AmssRqilGhuWWEYsK4aTBoQHhPXH1RcvkI4Y0jhgIEJ5++mkREIc7cy7iXIgpbXvDDTcIOVkCBAYZInCgvC9/pwwuP8T333+/+JBzwWb8CFoW6N758MMPi0Wf8Rtqa2uFJeHmm28WCzqtAgQJ/f39eOyxx0RMBgKC22+/XcRToBQxrQgEEJx71Lv/5je/KcAF9f1vvfVWASSYj1wY+Ygh9QvOxYxgj5YXydozVimODRdGifXPcrQeZeo2m7p1x+aglYnzkJYpghq2ZTRvoHTrlfL39vYe/UbQY4HPlsrDh2sP56LUdyzHuZgq0ZLG55ABQqqeysJ1GSBkoRMzqIIvxq9+/YzwRtj5912w23PwqbMXQW+yoLGxGX39LjS3tqMovxBdnS2onl4Nu82GFRctR8g7iP173kXDoQOIBX0Y8ngRgRKVs8/GpSuvQl6+ExqlCrvf3oPf/HQ9oqGgUE/0eTwIhwLQ6I3Iyy/EpStWoLSiGNCZQAfBKOWZEzERgyEejYoAMV6fHysvWi4DhDQAwmhZH3/8ccEJ4Lh/5StfEVkyXRykHZi0Q5Q+xJnWR1DCsjwKufDCC48uZLIFIbUFgQs9j5GS+0ranSfH/JCOiSSAQHAoWYky+HykXYQAgfOEoICWC7b3eGKSjGxAd3f3MQCBoGkiAIGANhkg0DqWKhEgyBaEVL2UpesyQMhSR6ZZDReKHz36uEDafEE+bPgQ3kAQZ86ai0MfvA+v14+a2vno7jiM0sJChPyD6Hf3wmZ3QhGLYs5ZC2Gw2rDjjTewfds2qAwmFBeXoKCoBPMXLkLt7Flob27GHzf8BAZlAnUXXIHOfh9aDu2Hu70BCHqQ77RjxswzMXv+WcgpLELY0w2fLhfBQECY+gJ+L0LBCK697BIZIIwzvsttg7gphRcDd238YCaL62Sq0XAivBikBU4SsJEtCKlfaMmCIAEEAq2dO3fC5XKJ3Tr5EytXrhTjLgOEj/cn55oMEFLPs5OaQwYIJ6f7CRAefOB70Gi10Kg10Or1aOvsQmdPD5y5Beg+0oiC/CKoFTHojCZUVNdi3sJPo7AoH83NjdDFoqiorsZgIIRfPP7feOPNN1A2rRozZtSgq70NxaVl0CKOzkO7UZbnwFX/dA/UBjP27vsA+97bi962DzHUdgjqaAiO3FzMqJ6Gzy0qgEqrw1tDTngiWoSjEQT9Adz42asnDUD448E+vOweXQdhNIHVVLuYsUZ/LLHWkfXF41F8u7AXNbTEjJFkN0cc9cBI922b7CTFZAsCwydzp15VVYWDBw+itLRU8EZolUkFEEhU5R+GJeemgYCNoJKgI3nOkVPCXTav8xr/JmBM1hCgBYPfdckMzz4fz4LA/AwBTW4KuSoFBQWCF0OrEi0DBEL8TeJDEPzQCpEsVjURCwL7ihYM6XkmAhCk5022jskWhHTfouPILwOE4+i84yhKgPDv99wLlVoJkFAUjwl1Q7erB33eAIKBIJy5eaitWwB7Ti6KCgvhKChFbo5D8AXcPV3wD/bjjDPOQK+7D08+8SiaWlpx6RXXoqJqOg7u34tAbzsirhZUVtdg8fW3wGa3ih1sf/8QPjjUgIN730Nn034EXK2o1Ecxr8yBGTUVyC8qhithxd4hFTwhBb5+w+cnDUDgjmMyKSlOZArIAGFqAARyPJYuXSosgiSgMhQ4yaIkqhLo8Fs72hEDF3pySC677DKsWbNG8EoIArZu3So4J1yMCTgWLVokvEzq6upEfSzHxZLeKgQl0sJLLxryXa677rqj7+1Ejhgk3gwXYwIO3pPHIGwL70XOy9y5c5Gfn4/Dhw+Lf0spFUAgJ4aWFrr3pgMQduzYIdpQU1Nz9F7HDRCC7xyA+7uPiApzfnAn9GfVTuQ9npJ5ZIBwcoadAOH+NWuE4JGC/ykSiEcjCPmHEPR60N7VBU9UiRkzSShcCqszD/2ubsyZOx85OQ54vB7EQmE07H8XNTW1eG3Hm9iy+X9htOfiru/+B4LBALY88zMkhrphKayCR6nHwsVLUV5VDY1WJUBJfx+5DO+hYc9OqJvfgjocht2iRXlpnnCLdBQ48GaPAtff/J1TCiDEI1GhEMlk0OvJBU97kAU7PX5sbAeh4KfVpV2XAAihkVLLChjt9CRRpl3fiThiGNkI+Ygh9bCMPGKg2yl5Js8995zY2d95550CINCldDyAwDvRe+Xyyy8Xf3Nh56LPerg4Tps2DW+//bbwNCGR9fzzzxfkUi7cJLx+5jOf+ZjHCfNL+hapLAjSkxIgMJbBFVdcAVpDXnjhBeGWy7R9+3bxGy0MBAokuSanVACBlhQSc6+88sq0AALvRdIsAZCUjhsgsCLvcy+L+szXXJR6pKdwDhkgnJzBp8mxtaWFwocfvTCECQnxH9E6SYIMuUzvBYPeCKPZIlQSY7EojCYTVCrlsACP0KpnmQQGBvoRjcWQn18ErU6D/t5uKBJxKDR68YHicYbBaIJW9w/luEQ8jmDAP1xPyMdAJ1CpFNBoqLOug95ohjW3YMKa65n25hd/8iEOu/4RS+E/rynH0pnWj1WXyoLAPnE/9Tz0m9/ItCmfSLkI4jD++N9gn16R9v1kgJBZLIaJWHLSVVJMPmIg8ZAcBHJLKJZFAEFPFrqWTuSIgaCUiyGPBqhZQUsZx5qmfF7jjr2hoUG4KHKHT64DWf8EEKmO0iZiQaC3Cy2S77zzjtDU4H14D+7eDx06JNrAZ6EIGK0d6QAE5u3q6hLPJ5ESJ3LEsGfPHmExSU5ZAQhpv3VTtIAMEKbowE+yx84mQAj87A9IvLRjkj3hx5sTefhWFNWlb92UAcLkBAgcYYJ7uqYSjJSXlx/d2acCCNLsYLlUi30mE3siAGEi9Y70nJHKpLIgjFb3RADCaOVSAoRgMMSNl5yy0AMxujiNCJuZhWrlKuQeSKsHvvzUYbS4/xEF8HgsCCMBgqowF9ozqxBt60bkwxbo5p+J0O4D0J9Th+DOPdAvmY/g67tFew31CxHgv6lKOYFkumIpfBv/BqhV0M6qRvRwO+KD3gmUBGSAkLqbTiWS4nhPM1GAkLpHMsuRLYAw1t0nFUBIjEUxTmp9+EATlFYT1CUFmfXoFCklWxBOzkATBY8WAOXktGb8u9IsmBxW9US08URaEAwXnI1oayegVcN6y+cRdw8g2tQG/fkL0fuNNchd/114/mczQrv2wnLzSnif3QwVtSSmlyHS0IpoaxeUOXYojQbE+gagPXM6Qu+8D92CWjgf+A5c//Qw4l4/zNeugP/FbVBXlSK08z3x23hJBgipZ9JkBwg0w5ObkkooSToqSJbP5jKWqXZF6p47Nge/NTyq4PEFjz7Y7kxCZo91X9bvcDjEZeqn8LlSWUJobWG/JOsgkAORKpG0SXGwjIWSIs1t6Pn6GnGf/J+ugaaqNNU9p+z1kQAh5uqH/+UdCL13aFL0idJpg2HxPOgX1EJhIOHs9EgkKc479wzYnHoqFKGo2A6zVQ1nnhmDPh/KSm0wWDQIhyPQGVQwGoxYNPtMFFsrodcZ4bTOg0JpRjjshkKpRSwWhC8UwJB3PywmBwy6WmjUeQiE2hH0v4L2vmYcbOlAS08/nDYdjnR5UZrvREfTAPoPG7DqG1XwRTzweirwzv4diCmUcFoL0NHSje/dvemUISnyozvSgmBYtgi6eTMRH/LB+9s/w3bnKvTf/wTyf/EAer56H3LW/QsG1/4K2tkzYLy8HuE9HyDa3o1olwsquwWBrX+H5aufhdKgQ6SxDZppRfD89iWoi/Lg/MEd8P7mRUQ7XNDNPQOqHDu8f9qKeHcfokc6ZYDwUQ+kG8pX6rjJDhCkgFnJAy15KiT/xsUyGURwnrJs8l6XZ/wjE4F5JiBCWnyl+qQFOzng11jyyaNN2tHaxjqljQOfLRkQjMzPcSQ3g4nPLEkqJwtM8fpEpZYlcDDhcM9sgOQPGtzyOgbW/Vo0xn7Hl2C6vP6ErCokdSS7eox3E6Iqojb+TVLJyEQf1KKi4Zjyu3btEjruJ3rXxnslA4RELIbuVasR63aP+ij8+MWHvEiQJT5OUuY4EHf3ixyqXAfiHi8SochwCcY2Tnz8hEi3qA6hN/eMXqtaBfvtN8J0yXknZBxPRqUECAsvpOuOAsHBEMprHKiqtMBiMsBkNKG6JgcNrZ1wDXmgVCTgzLWh/qwSTMsrRWneBYiDWgA+xOJGDA4dht1aCgXM8IePwBdsg8U0F/FoAt7gHhh0drT1HMCmXX+FyxXAsoW1GAwALncHGvb5kQgqcPk1ZdDrtTCoE3j62fdx/pLZcA91IuCL445VG099gHDOXOHLMPiT38F26xeOAQh5T96HeDCC/u/9BM4138bg2qdh+uxFUObYEOvtx+D6DXDc83Woq8oQOdgMTXU53P+yFo77vgXtrOnwPrMZ+kV1CB9sRuSDwzCtXIbBHz+D8N4PZIAwBQDCyEHOBAyNRaDM1JtEDtb0ERIhM5KyjsnIyNPeicADP0WipTNtgEC/SyKhX/7yl0KbnAsoSSd0KaGABV012PkUwSBjlZHT6GpC1mdjYyPmz58vynBxZ9uYn8FQiHQ2bNggwr/yGt02WB81rMkMvfvuu7Fq1SrhZkLXmKuuukrUV1FRIfLQpMJ7ZjslAwT36h8huGuvuAU/jiqLGQqdBnGPH+qSfLHD8v1pKxRGPZQ2szDbamZUCNDAHVqkuR3Rlg6oivKR8PnB3b8q147QOwdEHnVZIRQ6LWJdbqj48XUNQF1ZIuoxLj8Hgb/ugsJsFOe/CoMOiVAY0U4XEn4y9YGSV36e7cc/afURINRfOV/IICOqwKy5DhjsKthMFhQVWRGJKtDa0QOzU4nppVaYLTpML56OkryR1rUfAAAKO0lEQVRZcBhqoFYbEQgOIBRpQzCowO59f0dxfi6mVcyAP9gHqBSIx8PoG+yHwZgPl3svfGE3XP0JhMIe2MxmDHr9eHVrB/KMBTi7Phf+aBxtXZ0IepUwm4DiXAMOHe7Hvbe8dEoDhJM2yCluLB8xpB6ZU8GCIAOE1OPIjbGkX5It8JLyiIEfWcZcH80E4+3oxtDda2H74mVpWRAIEBhhjSFPGeyE4VHpF0olKYZNZaMkQEJN9fvuuw+/+93vRDvo48lwrSSEcPF//vnnhT8rwQPdROjTSbDBAC5kuH7/+9/HLbfcIu5DgPC1r31NiGJ84QtfwIMPPihcQnhWzQhwPDuij2y2UzJA6L3zh0d3PQQI1i9dCd/m7QIcWK6/BMEd78H34t9guno5dAtrMfTzP4jdkufpP0I35wyYr1uBnm8/COvNKxFpPALbt67DwPoNAiBoyovEEUG01w3zFRdAVZwP38atcNz1ZfQ9+CRy7v8Oem77T0YNgnnlMmFkCL/fiGhrB8L7G09LgPCppXVw5GthMmtQWmiE3qBGfqEekVACRrMBHe1DcJYkYNSrMG/mTBQ7nSjJW4JQuAs2UyU8gS7S6oSlIBzpgUKhQiSmQDg2AI1aKawJfYNBeCIBRMI+9A960dnjhdNhFC6VVoMGL2/qhF1TiEUX5MEf96DbFYMiEURvjwcWgw4trQn890OntgUh2+9MtuqLPHwbiurOTLs62Yth8ngxcCxkgJB6Cn/iAIE+p1yUx0vugw3QN7SnBRDoA0rzPhNN/dzxMzTqihUrhOWASlBUhKI/9k033STCunKSUDmL/pq0DPAogUIWFJZgvHZep18rjyT4NwUvaCl44oknsGTJEixfvlwAAgIO+p3edddd+P3vfy8irPE3gg0CBUp2ZjslA4TBn/8B3mf/PGxBcFjFQu3Z8KIwo1pWXYngG+/C/5edgoxFAtfAfz0N6LXCdEuzq+nKC+C68wewfuvzSPQPwbD80/D8ZiPC+xuGyaJKhbAqaKvL4fvza0hEo9DWVAprgumqC+HZsFEAC/PVFyLS0in+nfAFED7UDDLRC3/zcLYf/6TVR3C74uqZ6HYlUF7igNmuEJYDjT6GzjYfZs4vQWGODSVFOujVBhTkG2BWq2ExTYdG7UQ0loc4vNCojAiGOtF0+APYrWVobN8Nu0OH9l43Cp0q6A0m+IMD0OqseLepCX0dAThztLAY48i15eKpJ99HYZ4DMxfYodVooFOb0dbVjtCADt6QC4FAFOsf/NspY0HggHZs2Qb7394dnscZCBGx3MhwufyN8zwTYSOWHXne60Mchfd9G9oce9pzUAYIMkBINWmytUuX7jMaoZqb5dH4FqO17RMFCB6vN6FRq49hYVKzmdKQXGylxMVvqOkINMX5qfrz6PVkMgXV6PR6A7yMghcOQ28wQKfVQqVWIRaLo6OjHQX5BWhrbxcWgUQiDo1GK+pqbW2BTqcXlge3yyXEbUKhICLcIVOPWkkTcEKcx/MagYHX60Febh7cfX0oLS0RnyQCkcHBAXEMoVCkr7qW6sEplCPIJR9xA4KvvTNcRKWE0mISLls8ZqBgjyrPiWhbF1T5OWKxJxtc6bQj1tkruAb8jfwFpd0CqFRQaDWifILkm2hMHDGQ+EUrAY8WWE7psAm2Nz1OYt19og7NtGLEulxIhKNAIi74CwQgqqK8VI9zylxn5MTX3/wLQsEoVBoljEYN1BoFEjEhrgi9WQur0QCjXk0ZJGg0OigRhkqphkppQDSuhErJuRYB4wE0He6ExWxFfr4T/qAfRr0ZvmC/cGGNxiNQKYcFmHpcDDNL8mMcVpMRLYcHxHwuKDQiGIiIOT7k8cNitGLI2wckFDhj+uKj8/pEdfDXf92WFTfHke3LNCASLXkjF3W+JxLRKp1+mIhATzr1yQBBBgip5suUBgihUCiRzKDky/zoo4+K3TnN89z1S4mWhkxII6kG4HS5LgUDSeWScro8r/wck7MHVv28OStKinw6b9iDQMInHlS4chH8ppkiHwXKSS5G68FEd0zJ5QgQGEL7mJQAim1lUCvVabaMKtJRwfbmH76/krtapt+50XaHmZLjuCkbjfGeadtkDoL2YzLKE5kwUxoghMNhARAkFwd2Bol9NOsz0IXkj8mOpLk/k5d6IoNwOuSRAcLpMIqn/jNkCyBwMX6uaQNeC/7fpO6URCSB1dU/RGVeddrtlAGCbEFINWmmNECIRCIJWg1Gi+qW3HEjwQHLDAwMCJ1sEgnPPffco2eNUuhM6eyRAESKjc5r/P+HHnoIq1evFib5TM82Uw3sJ31dBgifdI/L9xutB7IJEH7f/jReH/zLpO/o2wvWYFbZnLTbKQMEGSCkmjRTHiBIZiyy+0dLfImS+QTMQ7dD8hRoUiNYuPrqq0XYSp4rsj7mZ2KdzEsSJMNwkmjY09ODdevWCWIhLRJlZWWpxuiUuC4DhFNimE77Rp5ogDDXsRBqhRa7+3Yijrjoz4uKrsDLnRuP6dv6ghVwh3qwb2BYellK5aZKtPqaszoOMkBI3Z3yEYN8xDDWLBnTzZEWBBaSlKhGO98iS3w0CwPjUtPtkOd2dFckYKBAEcEALQNNTU3CE2HLli1YvHixcG0kv+GVV17BY489Jo4yGOqSoTFPhyQDhNNhFE/9ZziRAKHOvhDe6BDsWgdC8TD2D+yGQ5uL/6hbiyc/XIuDg/swx34W9g68jc+VfwmvdL2IWttwrPs3erfinNx6aJRabO8ZjhCbrSQDhNQ9KQMEGSBkDBBYkDt/LuxEE5JsJX8bixRD4EDPAIbppP4A/6bLIYECxYiY+Bu9D+imSOuCJIIkhfbkfU6EaFHq1yX7OWSAkP0+lWtMvwdOJEBYWnAx9g/uxkC4H9MtNTg0uA+fzq3H5aXX4U9tz+KDoQM4J+98lBjKEUlEsKt3Oxy6HITjIZyTV48t7X/EBQUX46cNj6T/YOOUkAFC6u6UAYIMEI4LIEiFxwpDmXoKTu0cMkCY2uM/WZ7+RAIEk9qCu2sfQG+wC5vbn8NXq+9Ak+cQzs47DwPhPjy0799w+8x70eA5iFgiiudafo2zc8/D58pvRIP3EOgKbNFasfb94fgu2UoyQEjdkzJAkAFC2gChsbExIREIU08xOQcDaVCVcTSrigwQ5PkxGXrgRAKEyfB8o7VBBgipR0YGCDJASBsg7Nq16+PRflLPtSmdg0JOBAkjkwwQpvS0mDQPPxUBwh0F96O2bHbaYyB7McheDKkmzZT2Yti3b18inVCVqTrzdL9Ol8zCwsKjHIvk55UBwuk++qfG82ULIPBp32h5FfvxlnhwlYrqo+kLJfG9SA7Fy7qot6RUqjLo0IRQXj3mvQslcHPNrbDpZanl8TpUtiDIFoS0LQhb/vJa4vxPD8dLkFPqHiCJc6zQ0TJASN1/co4T3wPZBAjJrZWlllOPnaykqB+WmwdEzBvGvplIopKlHKxpOLRAqvRJxmL4fweJ6YqNYXgfAAAAAElFTkSuQmCC;" vertex="1" parent="3">
                    <mxGeometry y="26.67" width="465.48" height="253.33" as="geometry"/>
                </mxCell>
                <mxCell id="42" style="edgeStyle=orthogonalEdgeStyle;rounded=0;orthogonalLoop=1;jettySize=auto;html=1;exitX=1;exitY=0.5;exitDx=0;exitDy=0;entryX=0;entryY=0.5;entryDx=0;entryDy=0;" edge="1" parent="1" source="5" target="16">
                    <mxGeometry relative="1" as="geometry"/>
                </mxCell>
                <mxCell id="5" value="可视化系统模块" style="swimlane;" vertex="1" parent="1">
                    <mxGeometry x="410" y="410" width="350" height="300" as="geometry">
                        <mxRectangle x="240" y="250" width="80" height="23" as="alternateBounds"/>
                    </mxGeometry>
                </mxCell>
                <mxCell id="35" value="DashBoard" style="rounded=0;whiteSpace=wrap;html=1;" vertex="1" parent="5">
                    <mxGeometry x="20" y="50" width="75" height="50" as="geometry"/>
                </mxCell>
                <mxCell id="36" value="决策报表" style="rounded=0;whiteSpace=wrap;html=1;" vertex="1" parent="5">
                    <mxGeometry x="115" y="50" width="75" height="50" as="geometry"/>
                </mxCell>
                <mxCell id="37" value="数据地图" style="rounded=0;whiteSpace=wrap;html=1;" vertex="1" parent="5">
                    <mxGeometry x="210" y="50" width="75" height="50" as="geometry"/>
                </mxCell>
                <mxCell id="38" value="聚合报表" style="rounded=0;whiteSpace=wrap;html=1;" vertex="1" parent="5">
                    <mxGeometry x="20" y="130" width="75" height="50" as="geometry"/>
                </mxCell>
                <mxCell id="39" value="。。。" style="rounded=0;whiteSpace=wrap;html=1;" vertex="1" parent="5">
                    <mxGeometry x="115" y="130" width="75" height="50" as="geometry"/>
                </mxCell>
                <mxCell id="27" value="" style="whiteSpace=wrap;html=1;aspect=fixed;fillColor=#333333;" vertex="1" parent="1">
                    <mxGeometry x="-20" y="720" width="230" height="230" as="geometry"/>
                </mxCell>
                <mxCell id="41" style="edgeStyle=orthogonalEdgeStyle;rounded=0;orthogonalLoop=1;jettySize=auto;html=1;exitX=1;exitY=0.5;exitDx=0;exitDy=0;entryX=0;entryY=0.5;entryDx=0;entryDy=0;" edge="1" parent="1" source="20" target="12">
                    <mxGeometry relative="1" as="geometry"/>
                </mxCell>
                <mxCell id="20" value="中后台系统模块" style="swimlane;" vertex="1" parent="1">
                    <mxGeometry x="410" y="20" width="350" height="280" as="geometry">
                        <mxRectangle x="240" y="250" width="80" height="23" as="alternateBounds"/>
                    </mxGeometry>
                </mxCell>
                <mxCell id="21" value="布局" style="rounded=0;whiteSpace=wrap;html=1;" vertex="1" parent="20">
                    <mxGeometry x="40" y="50" width="75" height="50" as="geometry"/>
                </mxCell>
                <mxCell id="22" value="机构管理" style="rounded=0;whiteSpace=wrap;html=1;" vertex="1" parent="20">
                    <mxGeometry x="135" y="50" width="75" height="50" as="geometry"/>
                </mxCell>
                <mxCell id="23" value="用户管理" style="rounded=0;whiteSpace=wrap;html=1;" vertex="1" parent="20">
                    <mxGeometry x="235" y="50" width="75" height="50" as="geometry"/>
                </mxCell>
                <mxCell id="24" value="角色管理" style="rounded=0;whiteSpace=wrap;html=1;" vertex="1" parent="20">
                    <mxGeometry x="135" y="140" width="75" height="50" as="geometry"/>
                </mxCell>
                <mxCell id="25" value="岗位管理" style="rounded=0;whiteSpace=wrap;html=1;" vertex="1" parent="20">
                    <mxGeometry x="40" y="140" width="75" height="50" as="geometry"/>
                </mxCell>
                <mxCell id="26" value="。。。" style="rounded=0;whiteSpace=wrap;html=1;" vertex="1" parent="20">
                    <mxGeometry x="235" y="140" width="75" height="50" as="geometry"/>
                </mxCell>
                <mxCell id="52" value="" style="group" vertex="1" connectable="0" parent="1">
                    <mxGeometry x="1050" y="10" width="830" height="980" as="geometry"/>
                </mxCell>
                <mxCell id="8" value="组件库" style="swimlane;" vertex="1" parent="52">
                    <mxGeometry width="570" height="890" as="geometry">
                        <mxRectangle x="240" y="250" width="80" height="23" as="alternateBounds"/>
                    </mxGeometry>
                </mxCell>
                <mxCell id="9" value="Table组件" style="rounded=0;whiteSpace=wrap;html=1;" vertex="1" parent="8">
                    <mxGeometry x="30" y="68.7719298245614" width="120" height="103.1578947368421" as="geometry"/>
                </mxCell>
                <mxCell id="10" value="Form组件" style="rounded=0;whiteSpace=wrap;html=1;" vertex="1" parent="8">
                    <mxGeometry x="170" y="68.7719298245614" width="120" height="103.1578947368421" as="geometry"/>
                </mxCell>
                <mxCell id="11" value="Layout组件" style="rounded=0;whiteSpace=wrap;html=1;" vertex="1" parent="8">
                    <mxGeometry x="310" y="68.7719298245614" width="120" height="103.1578947368421" as="geometry"/>
                </mxCell>
                <mxCell id="49" value="List组件" style="rounded=0;whiteSpace=wrap;html=1;" vertex="1" parent="8">
                    <mxGeometry x="30" y="206.3157894736842" width="120" height="103.1578947368421" as="geometry"/>
                </mxCell>
                <mxCell id="50" value="导航组件" style="rounded=0;whiteSpace=wrap;html=1;" vertex="1" parent="8">
                    <mxGeometry x="170" y="206.3157894736842" width="120" height="103.1578947368421" as="geometry"/>
                </mxCell>
                <mxCell id="51" value="。。。" style="rounded=0;whiteSpace=wrap;html=1;" vertex="1" parent="8">
                    <mxGeometry x="310" y="206.3157894736842" width="120" height="103.1578947368421" as="geometry"/>
                </mxCell>
                <mxCell id="55" value="" style="group" vertex="1" connectable="0" parent="8">
                    <mxGeometry x="20" y="51.57894736842105" width="470" height="343.8798761609907" as="geometry"/>
                </mxCell>
                <mxCell id="12" value="" style="rounded=0;whiteSpace=wrap;html=1;fillColor=none;dashed=1;" vertex="1" parent="55">
                    <mxGeometry width="470" height="275.0877192982456" as="geometry"/>
                </mxCell>
                <mxCell id="53" value="And-design" style="rounded=0;whiteSpace=wrap;html=1;fillColor=#333333;" vertex="1" parent="55">
                    <mxGeometry y="274.7034055727554" width="470" height="69.17647058823529" as="geometry"/>
                </mxCell>
                <mxCell id="56" value="" style="group" vertex="1" connectable="0" parent="8">
                    <mxGeometry x="20" y="429.82456140350877" width="470" height="361.454850361197" as="geometry"/>
                </mxCell>
                <mxCell id="17" value="" style="group" vertex="1" connectable="0" parent="56">
                    <mxGeometry width="470" height="292.280701754386" as="geometry"/>
                </mxCell>
                <mxCell id="16" value="" style="rounded=0;whiteSpace=wrap;html=1;fillColor=none;dashed=1;" vertex="1" parent="17">
                    <mxGeometry width="470" height="292.280701754386" as="geometry"/>
                </mxCell>
                <mxCell id="13" value="折线图" style="rounded=0;whiteSpace=wrap;html=1;" vertex="1" parent="17">
                    <mxGeometry x="10" y="17.19298245614035" width="120" height="103.1578947368421" as="geometry"/>
                </mxCell>
                <mxCell id="43" value="柱状图" style="rounded=0;whiteSpace=wrap;html=1;" vertex="1" parent="17">
                    <mxGeometry x="150" y="17.19298245614035" width="120" height="103.1578947368421" as="geometry"/>
                </mxCell>
                <mxCell id="44" value="地图" style="rounded=0;whiteSpace=wrap;html=1;" vertex="1" parent="17">
                    <mxGeometry x="290" y="17.19298245614035" width="120" height="103.1578947368421" as="geometry"/>
                </mxCell>
                <mxCell id="45" value="热力图" style="rounded=0;whiteSpace=wrap;html=1;" vertex="1" parent="17">
                    <mxGeometry x="10" y="154.73684210526315" width="120" height="103.1578947368421" as="geometry"/>
                </mxCell>
                <mxCell id="47" value="漏斗图" style="rounded=0;whiteSpace=wrap;html=1;" vertex="1" parent="17">
                    <mxGeometry x="150" y="154.73684210526315" width="120" height="103.1578947368421" as="geometry"/>
                </mxCell>
                <mxCell id="48" value="。。。" style="rounded=0;whiteSpace=wrap;html=1;" vertex="1" parent="17">
                    <mxGeometry x="290" y="154.73684210526315" width="120" height="103.1578947368421" as="geometry"/>
                </mxCell>
                <mxCell id="54" value="G2+D3" style="rounded=0;whiteSpace=wrap;html=1;fillColor=#333333;" vertex="1" parent="56">
                    <mxGeometry y="292.2783797729617" width="470" height="69.17647058823529" as="geometry"/>
                </mxCell>
                <mxCell id="32" value="React" style="rounded=0;whiteSpace=wrap;html=1;fillColor=#333333;" vertex="1" parent="1">
                    <mxGeometry x="1050" y="900" width="570" height="90" as="geometry"/>
                </mxCell>
                <mxCell id="58" value="" style="shape=image;verticalLabelPosition=bottom;labelBackgroundColor=#ffffff;verticalAlign=top;aspect=fixed;imageAspect=0;image=data:image/png,iVBORw0KGgoAAAANSUhEUgAAAggAAAG1CAYAAACcQAxVAAAgAElEQVR4XuydB5QVxda295AzqOQoSFYwgWBAMKCCgaQiCHpFkSsq5oR4zQHUa0Qwi4oJAyZEkaBEEQRBEVCSoOSMZJh/PXW/nn8YZub0zPQ5p8+Zt9ZiATPV1bufqq791q7qqpTU1NRUUxIBERABERABERCBdARSJBDUHkRABERABERABDISSBMIW7ZssQIFCljBggWtWLFilpKSEpHWpk2bXP7SpUtHzKsMIiACIiACIpDfCBCk37p1q5UqVcp+/PFHw2+effbZtnv3bitSpEi2OHbs2GFffvmlrV692tq3b2+1a9d2+QcPHuyuPfXUU61Bgwa+kf7999922GGHOf++bt06q1q1arbXpgmE559/3goXLmz79++3atWq2fnnnx9RJEyaNMmKFy9uxx9/vC8DV65caStWrLDmzZv7yq9MIiACIiACIpDIBFatWmXffPONlS1b1jnlffv22eGHH+5EQ4sWLax69epZPh75P/jgA+vYsaMdeuihbvBOwtFPnTrV/btLly6+8bz00kt27rnnuoH9559/br179/YvEC677DJnwJtvvmktW7Z0BiEYtm/fbkcccYTh4Ddv3myHHHKIUx4bNmxwN+LB16xZY2vXrrVy5cpZlSpVDNVEfiITlMOfKVOm2O+//26dOnVyauqvv/5ysBAkJUuWTDMUEUE0Y+PGje5elStXduUBhfL4PyoI8Hv37nU2HXnkke56/k+5iB2UGnm5N2qNcnft2mU1atRw9/vzzz/dfbiGfFzHfbCnRIkS7nmooKJFi7prChUqZMuXL3f5sbtWrVqZKkDycD8SSo3GwH2UREAEREAE8heBPXv2OJ/K3/gifMz69eudj+rRo4cbZGeV8G0TJkxwTv3nn392PhGf0qxZM5s/f77t3LnTWrduHTWgB0QQEAhMF7z33nsubDF79mzn2FA5PMzkyZOtadOmTrkQIlm8eLFztHXq1LFPP/3UTjjhBJs7d66dccYZ9s8//zhBQH7+Puecc5xzXbhwoXXu3NnmzZvnHpQwCU74vPPOS3vIIUOGuJ8TmSAkQzQDMDNnznR2TZs2zS699FIbNWqUc/jct0mTJu56gA4dOtQaNWpklSpVsl9++cW6d+9uM2bMcIIBwcG9L7/8cnv22WddyOa4445zz4IoQBAhQqgAOJx44om2YMECJxAQTU899ZS1bdvWiRWe/fTTTz+ocsaMGeMqlYTw6NOnT8RQUtRqWAWLgAiIgAjEhQAOfPr06c4P4aPwVSSi7wyW8SUMNBl8ZpcYpH/yySfOh5HatGmTNijOyYPhp0866SQ3sJ84caJ16NAh28vTBMLAgQOd80Xd4GQvvvjiNAeJsx09erQ1btzYatas6Zw2o20cJH9w0jh/ABA14GcIhKOPPtqNxikPAEuXLnUqCIeNcUQdGPmTJ/06BgRCq1at7KijjrI5c+a4UAwiguhEmTJlnEBAtODouSf38RL34vp+/fo5hz9y5EhXFvM49erVcxESngUbCN307NnTOfFx48Y5O3lGQj6LFi1yEQTEDspv+PDhdtFFF9mIESOc6iMaQSXz78zS66+/7p4Xjl50IycVqbwiIAIiIAKJTYDBJk6Zv/ElDRs2dA+E7xo/frzzUWeddZbzgTkRCKeddprzVTlNDKoRKQgEBvqsa8gupQmEZ555xo3UccA4a8Lqr732mgtfML2QXiCgiBACPBxiAJWEc/XWFjB9wM1x3jhbHDwGLVmyJE0g4HRxwIRJ+PmVV16ZZicO/pRTTnHXIygQGwgERvtEABAxiAXAH3vssQc44IwCAdXFM2A/UQFs5nqmKFjo0atXL/dvpgSw59dff3Vih2dBwJx55pkHCATK69atmxNI3333nRMYmSVCSEyBUIl+FnzmtKKVXwREQAREINwE8DWM+olG42cQCUxPsyYBH8jaAvxtVhEErh07dqzLx2CZSDpRfaLr/J/BeWZR7KCoHDTFgEDwUnqBQAj++++/d86YcD1TDIyyvSmGzz77zIXqmdcnDw+cPj/ig0S+Cy64wIXtmbbgz7Jly5zT9RICAYHC9ATTHFzLegfuSzQD0UBohvIzEwhMMaDUypcv76Y0LrnkEjc9gQBg7cSsWbPc/Viw4QkEBATChikGpg+oyPfff9890x9//OHECcqLCIIfgRBUBakcERABERCBxCVAtBm/h2NHHJD4N/4G34QPzCp5ixSZgq9QoULaegX8LAN1Bp85XaRI1AD/jE1XX321vwgCo10MYKTvJRwq6oawPI6TETWhEkbvFStWdKsguYa5eUbM/CE/v8Nwrid6QH6cNWVwH8pjYQblobDIz8g+vUBgnoSfsQCSe3j337ZtW1p53A+Bkn6RBxGEF1980a0x4N5cSxmoNe6N4sIWbEIIcG9gMceDPSTWLlAmao17YC/TELDh/17EgfIpS0kEREAEREAEMiOAn2C62fOZ/E0EgIExg87s1h9k95kjwoKpBqbO/SZ8HL4P/4x/w5bsUq43SuK7TOb1UTaRbuLXeC/fhx9+6BZSRPpGM7NyERAfffSREwhKIiACIiACIhAWAqyfY7DJl22JkHItEBjR87lfpI0ecgOBUT7qKDefBhKR4Hrve9Hc3F/XiIAIiIAIiEB+J5BrgZDfwen5RUAEREAERCCZCUggJHPt6tlEQAREQAREIJcEJBByCU6XiYAIiIAIiEAyE5BASOba1bOJgAiIgAiIQC4JSCDkEpwuEwEREAEREIFkJnCAQGBHRPYD8DZzSOYH17OJgAiIgAiIQH4mwFeIbNiUfv+j9DzSBAKbObCHQG4/L8zPkPXsIiACIiACIpBoBAgG8IcjDNi9OGNyAoHIAbsqseMgOwjq7IBEq2bZKwIiIAIiIAI5I8B+Ruw+zE7D7BCcMZLgBALigE2P2DZY4iBngJVbBERABERABBKVABEEtmBGIGTc+NAJBA6EIOlcgUStYtktAiIgAiIgArkjwLlECISM0wxpAoHIARmUREAEREAEREAE8g8BCYT8U9d6UhEQAREQARHwTUACwTcqZRQBERABERCB/ENAAiH/1LWeVAREQAREQAR8E5BA8I1KGUVABERABEQg/xCQQMg/da0nFQEREAEREAHfBCQQfKNSRhEQAREQARHIPwQkEPJPXetJRUAEREAERMA3AQkE36iUUQREQAREQATyDwEJhPxT13pSERABERABEfBNQALBNyplFAEREAEREIH8Q0ACIf/UtZ5UBERABERABHwTkEDwjUoZRUAEREAERCD/EJBAyD91rScVAREQAREQAd8EJBB8o1JGERABERABEcg/BCQQ8k9d60lFQAREQAREwDeBhBAIGzdutPXr19vhhx9uhQoV8v1wyigCIiACIiACIpA7AqEXCHv37rX777/ftmzZYg888ICVLVs2d0+qq0RABERABERABHwTCL1AmDx5ss2bN8/Wrl1rffv2tXLlyvl+OGUUAREQAREQARHIHYFQC4Tdu3e7qMHNN99sQ4cOdQKhZMmStn379oOedvOejfbnjsW5oxCCqw4rUtGqFqvh25J1u1fbyp0rfOcPW8bKxapbhSKVwmaW7BEBEcgDAUV48wAvhJeGWiA8++yztmnTJmvdurV9/PHH1r17d2vRokWmGKevm2QvLBwYQsT+TGpb5Xy7tPbV/jKb2ei/R9p7S1/1nT9sGbvWusLaVescNrNkjwiIgAiIwP8RCLVAmDVrlm3bts1SUlJsxIgR1rNnT2vWrJkEggSCXmAREAEREIEoEwi1QEj/7F999ZW1adPGihcvLoEggRDl10LFi4AIiIAIJIxAiFRVmmKIRChcv9cUQ7jqQ9aIgAiIQEYCEgghaRNagxCSipAZIiACIiACjoAEQkgaggRCSCpCZoiACIiACEgghKkNSCCEqTZkiwiIgAiIgCIIIWkDEgghqQiZIQIiIAIioAhCmNqABEKYakO2iIAIiIAIKIIQkjYggRCSipAZIiACIiACiiCEqQ1IIISpNmSLCIiACIiAIgghaQMSCCGpCJkhAiIgAiKgCEKY2oAEQphqQ7aIgAiIgAgoghCSNiCBEJKKkBkiIAIiIAKKIISpDUgghKk2ZIsIiIAIiIAiCCFpAxIIIakImSECIiACIqAIQpjagARCmGpDtoiACIiACCiCEJI2IIEQkoqQGSIgAiIgAooghKkNSCCEqTZkiwiIgAiIgCIIIWkDEgghqQiZIQIiIAIioAhCmNqABEKYakO2iIAIiIAIKIIQkjYggRCSipAZIiACIiAC4Yog7Nq1y/bt22clSpQ4oGp27txpqamp7mdFixa1AgUKZFp109dNshcWDkzYapVASNiqk+EiIAIikJQEQhFBmDFjhj300ENOIHTt2tUuvfRSS0lJccAvuOAC27Nnj/v3oEGDrEmTJhIIZjb675H23tJXE7ZRdq11hbWr1jlh7ZfhIiACIpDsBOIuEPbv32/Dhg2zs88+28qVK2cDBgywBx54wEqVKmX//POPDRw40G677TYrWbJkltEDKkkRhMRqqhIIiVVfslYERCD/EYi7QAA5UwhTp061UaNGWb169eyyyy5zEYSlS5fajTfe6GqlQoUKTiyULVvWdu/efVBNzdw01V5Z8lTC1uBpFdrZxdWv8G3/t2u+sI/+etN3/rBl7Fyth7WteEHYzJI9IiACeSBQvHjxPFytS8NGIBQCASi///67+/Pzzz/bddddZ6VLl7a1a9favHnz7OSTT7bx48fbmjVrrFu3bm4qImOasWGKvbjoibDx9W3PGZXOtUtqXuk7/5hVn9kHy9/wnT9sGS+scbmdXblD2MySPSIgAnkgULhw4TxcrUvDRiDuAmHr1q328MMPuzUIhQoVsscee8x69eplFStWtOnTp9u0adPs+uuvd38vWrTIevTokSlDTTGErWllb4+mGBKrvmStCIhA/iMQd4EA8rFjx7rIQbFixaxSpUrWunVr+/zzz120YPjw4eZ9yXDxxRc74ZBZkkBIrMYrgZBY9SVrRUAE8h+BUAiEILBLIARBMXZlSCDEjrXuJAIiIAK5ISCBkBtqUbhG+yBEAaqKFAEREAERyDUBCYRcowv2QgmEYHmqNBEQAREQgbwRkEDIG7/ArpZACAylChIBERABEQiAgARCABCDKEICIQiKKkMEREAERCAoAhIIQZHMYzkSCHkEqMtFQAREQAQCJSCBECjO3BcmgZB7drpSBERABEQgeAISCMEzzVWJEgi5wqaLREAEREAEokRAAiFKYHNarARCTokpvwiIgAiIQDQJSCBEk24OypZAyAEsZRUBERABEYg6AQmEqCP2dwMJBH+clEsEREAERCA2BCQQYsM54l0kECIiUgYREAEREIEYEpBAiCHs7G4lgRCSipAZIiACIiACjoAEQkgaggRCSCpCZoiACIiACEgghKkNSCCEqTZkiwiIgAiIgCIIIWkDEgghqQiZIQIiIAIioAhCmNqABEKYakO2iIAIiIAIKIIQkjYggRCSipAZIiACIiACiiCEqQ1IIISpNmSLCIiACIiAIgghaQMSCCGpCJkhAiIgAiIQ/gjC/v37bfz48TZlyhQ77rjj7JxzzrGCBQtmWnXT102yFxYOTNhqlUBI2KqT4SIgAiKQlARCHUH45ZdfbOzYsda+fXv79NNPrUuXLla7dm0JBDMb/fdIe2/pqwnbKLvWusLaVeucsPbLcBEQARFIdgKhFgjA37t3r23evNkGDx5svXv3tipVqlhqaupB9fLj+sn24sLHE7a+zqh8nnWrfZVv+xEI7y97zXf+sGW8uNa/rF1V/wJhf+p+S7WD6z1sz5WVPQVSCliKpfg2N789r28wyhhqAikp/tt4qB9ExoV/igELV61aZePGjbOFCxdar169rHr16rZnz56Dqm/DqqW26OcJCVutlWo2spqNWvi2f8zqz+3DFcN85w9bxi7VetpZlTv4NmvimjH286YZvvOHLePZVTpavdKNfJs16u+PbPG2hb7zhy1jlxo9rUrx6mEzS/ZEmUDRokWjfAcVH0sCoY4gzJkzx0qXLu2mFb7//nvbsGGDdezYMVM+e5etsh3fz44lu0DvVaRhLSva3L8DyW9TDMOXvGxjVn4WKPNYFta3/u12QvlWvm/53PxHbOaGqb7zhy3jgCaDrG4OBFHY7Jc9IiACIT+LYdGiRfbGG29Y+fLlbdOmTXbllVe6CEJmSQIhsZpzTtcgSCAkVv1KICRWfclaEciMQKgjCBjMeoOtW7damTJlsq1BCYTEauASCNnXlyIIidWeZa0IJCOB0AsEv9AlEPySCkc+CQQJhHC0RFkhAiKQFQEJhJC0Da1ByL4iNMUQkobq0wxNMfgEpWwiEGICEgghqRwJBAmE9AQ0xRCSF1NmiEA+JiCBEJLKl0CQQJBACMnLKDNEQAQcAQmEkDQECQQJBAmEkLyMMkMEREACIUxtQAJBAkECIUxvpGwRARFQBCEkbUACQQJBAiEkL6PMEAERiG4EgZMYCxQoEDPM+swxZqgDuZE+c8weoxYpBtLMVIgIiEAeCAQaQZg0aZKVKlXKnZ/www8/2BVXXGE1a9bMg3n+L5VA8M8qDDklECQQwtAOZYMIiEDWBAITCFu2bLFbb73V/XnooYese/fuNn/+fLvxxhtjwl8CISaYA7uJBIIEQmCNSQWJgAhEhUBgAmHjxo32wAMPWKdOnVz0oHPnzvbhhx/aHXfcERXDMxYqgRATzIHdRAJBAiGwxqSCREAEokIgMIGAdW+//baNHDnSCYVff/3VqlWrZieddFJUDJdAGGnvLX01JmyjcRMJBAmEaLQrlSkCIhAcgUAEAict7t6921m1d+9eK1SokPt/yZIl7ZBDDgnO2mxKUgQhJpgDu4kEggRCYI1JBYmACESFQCAC4fbbb3frDRAKRYoUsWLFitk///xjp59+ut1zzz1RMVwRBEUQYtKwArpJ3/q32wnlW/kuTV8x+EaljCIgAlEiEIhA2Ldvn23bts0efvhh69u3r1WuXNlmzpxpCxYssF69ekXJ9AOLVQQhJpgDu4kiCIogBNaYVJAIiEBUCAQiELBs/fr1dtddd9nAgQOtRIkSNm/ePPvyyy9twIABUTFcEQRFEGLSsAK6iSIIAYFUMSIgAjEjEJhAYGOk0aNH26hRo5zxiISePXtakyZNYvIwiiDEBHNgN1EEQRGEwBqTChIBEYgKgcAEwo4dO2z27Nl24oknpi1UjIrFWRQqgRBL2nm/lwSCBELeW5FKEAERiCaBwAQCixL79+/vphQqVKgQTZszLVsCIebI83RDCQQJhDw1IF0sAiIQdQKBCYStW7e6LxYWL17sPm1MSUmxFi1a2DXXXBPxIXbt2mVLly61nTt3Wu3ata1MmTJp17CfAtMXpDp16rhPJzNLEggRMYcqgwSCBEKoGqSMEQEROIhAYAIBJ85CRfY/wNGzBqF48eJWrly5iNgHDx7sPo+sWrWqzZo1y23XzKeSfB3Rr18/69Klizv46ZhjjsmyPAmEiJhDlUECQQIhVA1SxoiACERPIKSmprpPG5966in3yWP16tXdNsuRDmtCBEycONFOPvlkFylgF0auI4qwbt06e+KJJ+ziiy920xYIiIIFCyqCYGaj/9ZXDIn0PusrhkSqLdkqAiIAgcAiCGySxGeObJqEM0cszJgxw2655RZfpJlmeP75561u3bp2/vnnu4jB77//bkOHDrXzzjvPRRZatmxpJ5xwgpE3Y0pdsdZSp8/3da8wZko5oqqlHH2Eb9PGrv3CPv77bd/5w5axU5VL7cyK5/s2a8Rfw2zCuq985w9bxl61brDjy53o26yXlj5pP2/+0Xf+sGW8pe4DVqdk/bCZJXuiTCCrKeAo31bFR4lAYAJhw4YNbg3CI488krYPAp88IhoiJaIIH330ke3Zs8cuvfTStOx8GbF9+3Y77LDDbM6cOTZ16lTr06ePIgiKIERqUqH7vSIIoasSGSQCIhCBQGACgekBNkb64osvrGjRou62vXv3jrgPAlMTw4YNc86/ffv2bmqhcePGNmnSJLfI8b///a+dc8459tNPP1nr1q3dZ5SZJa1BSKy2rjUI2deXtlpOrPYsa0UgGQkEJhCAQwSArxkQC4gEwk1MFWSXyPv999/bli1bXDYWNzZr1sx+++03JxD+/PNPmzx5sjVo0MCOO+64LMuTQEis5imBIIGQWC1W1opA/iMQmEDA0bNeAFFw+eWX24svvmhHHnmknXLKKTGhKoEQE8yB3UQCQQIhsMakgkRABKJCIDCBsHHjRvf1AcKAPRAWLVpkI0aMsDvvvDMqhmcsVAIhJpgDu4kEggRCYI1JBYmACESFQGACgakF9iy48cYb3RoCzmVAJPD/WCQJhFhQDu4eEggSCMG1JpUkAiIQDQKBCQSM4wRHjnzmywP2P/jPf/7jvkCIRZJAiAXl4O4hgSCBEFxrUkkiIALRIBCoQMDAuXPnuoWK7Gdw6KGHWqFChaJh90FlSiDEBHNgN5FAkEAIrDGpIBEQgagQCEwgsJcBixTZFfHYY4+1evXque2T2eQoFkkCIRaUg7uHBIIEQnCtSSWJgAhEg0BgAoFtkdkmmXUI3377rdu74O2333anO8YiSSDEgnJw95BAkEAIrjWpJBEQgWgQCEwgcNwzXzG0adPG/vjjD6tfv76tXbs2y50Pg34YCYSgiUa3PAkECYTotjCVnogE9q3eYNu/mZ6l6QUrHWolzjrB96OxLT/n9wQx1b13715XFl/pxSOxlQB/cvIsRPbZi8iPzexjVLhw4QMeLTCBQKkU9tVXX9lff/3lNjYiilC2bNmYsJRAiAnmwG4igSCBEFhjUkFJQyAogYAj/fzzz92UN1PdnO+T1S68fuCx4++7777rpszZ7Td9Wrx4sVuMH21fx/o+NhDk8EK/ia8JGzZsaIcffni2lyCk2KKAGYD0KTCBwFkM3MDP2Qt+Hy4n+SQQckIr/nklECQQ4t8KZUHYCAQlEObPn2+vv/663X///cZBgg8++KDbk4eF80yHFy9e3B0quGbNGiMywB8cP3lx9mz4h0/jPCBG1ZUrV7aBAwfa1VdfbcWKFbPVq1e7XX/Lly/vfs4uv6effrpt3rw57fygUqVKZYmXkT27Bx9yyCFpuw97hxDyFWCVKlXcbsTcZ+fOnc6m2bNnu12FL7nkkjT7GfXjxLGJ50HIcA0CCZuHDx/uDjisXbu2e5bSpUu7/IimihUruvyrVq1y9+Ak5sGDB0dHIHDz/v37W/Pmzd0CRRIPVadOnZi0QQmEmGAO7CYSCBIIgTUmFZQ0BIISCJwMfNRRR7kpbxKigDD7448/bo0aNXJ79Fx44YX2/vvvW9WqVZ2zxjFzzYoVK+yKK65wgoLzfxYsWGAXXHCBW1v3r3/9y20ASLRg6dKldu6559oHH3zgfN7xxx/vHPIxxxzjPvlnsIxDziwhPj755BO78sor3Z5BCBOuqVSpkvs3AuHoo49298Jepu1btWrlyueenJZ8ww03uCgJUwjYf8YZZ7joPRENpiEog7J4prFjx9pZZ53lIhDbtm1zYoGjDPji8JdffjHEDNH/jz/+ODoCgTUIfMXAugMvNW3a1Lp37x6TxiuBEBPMgd1EAkECIbDGpIKShkBQAuGJJ55wDhUnSCJCQIgeB8vvOOPnu+++c065V69ebrTOmUBdunSxJ5980q655hp75ZVX3Lq6H374wTiZmKgD4f033njDTjvtNPv9999t9+7dRjSAIwVwtEQkOEvom2++cc6fz/0RGNyLdPbZZ1utWrVs/fr1TlhwH5w8OxFjH6chYxs2MrgmKoHw4F7Lli1zhxpyajI2IBwY9XO0AY4ep48AYJqAwfnKlSttzJgxNn78eCdwunbt6oRPp06djGgFIoX79ujRwwkEnvWll16KjkCIdwuVQIh3DeTs/hIIEgg5azHKnR8IBCUQxo0bZ0wz9O3b14Xbn332WTviiCOc437mmWfc737++WebM2eOXXXVVU4gcIJwx44dnUD497//bUQh7r33XufcCe0zUsfJvvnmm9atWzfn5BEHjOZPOukkW7hwoZtiOPPMM90oHqHAFASDZ5wxif8jNLj2tddes9tuu82JFspBrDz22GMuCsCUCGsH2DKAKMaECRPcNAB5br75Zvvoo4+sWrVqbkqA3YpZPEkZRAD69OnjplKwB9v4OfbwRSH3QyQwJYFIoFxED9Mrt99+u7366qsSCGF80Yo0rGVFmzfybdrov0fae0sPrEzfF4cgowSCBEIImqFMCBmBoAQCI/tBgwY5Z4yD5u9rr73Wjbhxjsy7s54AR4uzZ07+xx9/dCN8RtFEvnHEOGgcNk7366+/dgIBJ8x0BNFypimYavCmIYYMGeJG9kQBmGLIauEizh4hwloHIgNEIHDoXINtiBiEC8KGXYnJz3QJAqF3794uolGjRg379ddfnX04e6YQiCIQCUEwEHlgioEpDyIQCCXWHCCO+DeihvUViCb4UDbrNtKnQBYp8oDVq1dPW+ARjzanCEI8qOf+nhIIEgi5bz26MlkJBCUQ4INTJeTPfDwL9ogAIBy8RYosEGRkzzoB1ieQH4eNU8WBMv9PaJ7oAiF7wvE4fEbkiAOcKwsDWSjI//k3ZRBFYATPIsbsEmsBuBfOGYGCbdyH6RDuRXn8HoHDv7GJ8suVK+d+xnPxh2fk2chD4vnIy/8RMtjP77GLa71lAPye5/b+n74Mz+48CwQUCfMorKz84osv7LrrrktjAmzP6Gg3aAmEaBMOtnwJBAmEYFuUShOB4AjgiFkYyAK//JzyLBCAxzzOZ5995j7D8BaF8HPmUPj+NBZJAiEWlIO7hwSCBEJwrUkliYAIRINAIALBC+ew2pN5D8IahG0IncQqSSDEinQw95FAkEAIpiWpFNc+6/8AACAASURBVBEQgWgRCEwgYCCLI/j8AnHAHMitt97qPumIRZJAiAXl4O4hgSCBEFxrUkkiIALRIBCYQGABBJ9bPPzww27jiWnTprnPQ/i2Mi+JVZkswmA9Aws4stpTWgIhL5Rjf60EggRC7Fud7hh2Ajv2bbc//1mSpZklCpa0GiWz3zY47M+YSPYFJhBYDYoY4NtRVk3y2QcbQbCpQ24TCyAfffRRt9CRTzn4fjOriIQEQm4px+c6CQQJhPi0PN01zAQWbvnVHvnlzixNbFimid151CO+H4HNgviaIIhzEhgEEx1ntX/QiYg7mx3lxE6+duBLCL5MiJT4DBJ/yieeOUmBCQRuzvQCGzPw3SbbVbItJXtU5zbxuQa7TFEO0xdsJ5nVokcJhNxSjs91EggSCPFpebprmAkEJRCIPLPnARsS4UgbN27s/AiD19wk/Jt3FgOfMKZPbDbEJkzsS5DbhPhgcH333Xf7LoJBOBsbsd9DpDRjxgwnJrytpyPl934fmECgQFQQBVI5KCHvO0u/xmSVjwomksCWkEQQ+O40Y9q/fI3tnfprXm8Vt+sL1qtuBY/93xkWftKY1Z/bhyuG+ckayjxdqve0syp18G3b+8tft3FrvvSdP2wZe9e52ZodcpJvs4YsGmSzN2V97K3vguKU8faGD9sRJRvE6e66bbwI5NYBe/YGJRDYSIhDi9iGmP0FOHOBHQkZSfM7TjfkZEa+vmPgiYNmUyR2TGzbtq0TFJxfsGTJEneoERsk4YjZXIk9CtgjoX79+m5zInYgZJ8Fdm2cMmWK+zySn0f6RJKNiTiHgYOU2FKZTZGwiz0OiJYTqWDXRvwpW0BztgLnJXAdz0I0A4HAtD7Pxz3ZWhlRxECachlY8/EA0/7svBhXgRCNRonqAdyRRx7pNq1AyUkgmEkgRKO1Ra/M/CYQ7mj4sNWRQIhegwppyWERCJxlwO6ELVu2TCPFhkA33XSTO6sAR45PwUGffPLJbgMiPtdnEIqzZT0dOylyIBJnGRAdYLtifs+ZQzhjtmZu0qSJO0OBSDmbHbEXENs1Dxs2zJ2rwOFLfNXHhkckog+E+REkbKt80UUXOSdOOezQyLbHCADEAeUhRho0aOBEDYc0kZdriKxjwzvvvOOEAOc2MJBml0SOtWaHSM6YYDtndoHEng4dOiSXQEAMIA54eBQTYIGWWdIUQ0h7jCzM0hRD9vX13PxHbOaGqYlVqemsHdBkkNUt7X/r8IR9UBkeKIGgIgiE63G6+A0SUQL26eGMhvvuu88tfCd6wKmObGmMX8Hhc5CRdxbDW2+95YTCrFmz3HkJnKOAc3766aedU6ZMdhBmxI8YYatmnDtRAKbHKRffhdP2Dms655xzXBScSDv358wHohoICLZ4Zs0eZ0S8++67bpdEBBcL9CmP/xPd4BAqRAdbPN9yyy1uegM/+cADD7ifE80gisB9WH+BqOG5ER1xiyBgEHM0qKKgFnGwwIR5JC+hBjt37iyBYGY6iyHQfinqhfWtf7udUL6V7/tIIPhGpYxJRCAogYBTfu+991yonikGzjbAueP0+/fv76IFiIKJEydmeVgTDpcoAqN2tlfmjATOaMB5s3MwTh4HzgmLCAGm2IkyIDJ++uknO/XUU7NcQMiifs5t6Nmzp1u3x7bPTG+wBoFTIREkiA+ECJEO8pA44wEfyNHTnPmALQghtn0mgoAgQEBwf6IVREiIIJCPTQzjJhCYJ+GgCUIxHHHJ54jMebBxUiySIgixoBzcPRRBUAQhuNakkpKFQFACAWeN48ax4jyJJBCqJ4rAz1j53759e3cAE46c0TkHGrEOgZ8Rpn/hhRfcvD9Ol/A8UQDysi6BeX3EAdPerHVgGoI1DZTNwBYfyD0pN7OEfThxz5GzBgF7mUbgiz22CeBUSKYs+LqBwTH2s8aA8hEHRA6YKmG9AVMO+FoWIzItcfTRR7tpD+zCXtYgcD1/cpICW6SIQGAOxZtrwQggcTpWLJIEQiwoB3cPCQQJhOBak0pKFgIrti+zd5e+kuXj1ChR2y45vFfUHxcny4JAIgb5OQUmEIDI4sGRI0e6s6WZhyGCUKpUqZjwlUCICebAbiKBIIEQWGNSQSIQMAFG+Kwt4EuB/JwCEwgstPjPf/7jQirseMgnHoRC+MwkFkkCIRaUg7uHBIIEQnCtSSWJgAhEg0BgAoFPSB566CG3qpJPMtq1a+e+4czLToo5eWAJhJzQin9eCQQJhPi3QlkgAiKQHYHABAIrRVn1yScZfOPJ5hLsqHjhhRfGpAYkEGKCObCbSCBIIATWmFSQCIhAVAgEJhCwjjkbvgNlm2UWKDZs2NCtII1FkkCIBeXg7iGBIIEQXGtSSSIgAtEgEKhA4DtRvhllEwoWKfLNpRYp+qu2Ig1rWdHm/jeW0T4I/riGJZf2QQhLTcgOERABvwQCEwhED2677Ta39oDIAZs+sH0lO0XFIimCEAvKwd1DEQRFEIJrTSpJBEQgGgQCEwjsDMUaBLapLFiwoNtRiuOe77wz66M7g3wgCYQgaUa/LAkECYTotzLdQQREIC8EAhEI06dPd3s/s5sTixPZ+pGdoJo3b+4On4hFkkCIBeXg7iGBIIEQXGtSSSIgAtEgEIhAIFLAngcZE8dhMuUQiySBEAvKwd1DAkECIbjWpJJEQASiQSAQgeAZxjbLnGjFtssk9n9u1qxZNOw+qEwJhJhgDuwmEggSCIE1JhUkAiIQFQKBCQQWKbJJEoc1cTIViU8dObM6FkkCIRaUg7uHBIIEQnCtSSWJgAhEg0BgAoHDLR588EG3SJGTHGOdJBBiTTxv95NAkEDIWwvS1SIgAtEmEJhA4HCLRx991PiagT0QEAn16tXTaY4+a1D7IGQPaviSl23Mys980gxfNu2DEL46kUUiIALZEwhMICAM+KSRaYbixYu7u3KOdvny5WNSB4ogxARzYDdRBEERhMAakwoSARGICoHABAJrEO6//37r1auXlStXzhlbrFixtH9Hxfp0hUogRJtwsOVLIEggBNuiVJoIiEDQBAITCFu3bnUnN65bt84JAxL7IPTp0ydomzMtTwIhJpgDu4kEggRCYI1JBYmACESFQGACITU11R3WxFoEL3FQkzfd4Md6yti3b58VKlQoLTunRKYvL6sFkBIIfgiHJ48EggRCeFqjLBEBEciMQGACYcuWLW4NAic5eqlVq1bufAY/afv27fbCCy9YkSJFrF+/fmmX9O7d2/bu3ev+T/kNGjRQBMHMdFiTn1YVnjxapBieupAlIiAC/ggEJhC4HREA7+8ffvjB/vzzT+vatasvSz7++GM3PfHXX3+5tQwkNlx65JFH7K677nKRiOw+n1QEwRfm0GRSBEERhNA0RhkiAiKQKYFABUL6OyxcuNBGjBhhd999ty/0nPzIds1vvPFGmkBAYBCBKFOmjFWoUMHuuOMOK1u2rCIIiiD4alNhyqQIQphqQ7aIgAj4IRCYQGD9wdChQ23t2rVpo/9u3bpZy5Yt/djh8ixdutRef/31NIGAcRwEde6559rXX3/t1jh06dLFdu3adVCZqSvWWur0+b7vFbaMKUdUtZSjj/Bt1ti1X9jHf7/tO3/YMnaqcqmdWfF832aN+GuYTVj3le/8YcvYq9YNdny5E32b9dLSJ+3nzT/6zh+2jLfUfcDqlKwfNrNkT5QJlCxZMsp3UPGxJBCYQGB6gXUE3iJFFhryNUNOdlXMKBDmzJljs2fPtssuu8yYsliwYIH7d2ZJUwyxbDZ5v5emGLJn+Nz8R2zmhql5Bx2nEgY0GWR1SzeK0911WxEQgSAIBCIQJk2aZF999f9Hd4iEJUuW2BlnnGEsMvSbWH/w6aefGpGH999/34mBIUOGuPUHLILs2bOnVatWTQJBUwx+m1Ro8mmKITRVIUNEQAR8EghEIBDyZw0BiSgC5zFs27bN7r33XqtSpYpPU8xFHyiLyAMLFNmJkc8cKbNo0aLZfjKpCIJvzKHIqAiCIgihaIgyQgREIEsCgQgESmf/grlz59q7777rPkXs0aOH+2QxVkkCIVakg7mPBIIEQjAtSaWIgAhEi0AgAoH1BywunDJlivXv398d1lSgQIFo2awpBk0xxLRtBXEzTTEEQVFliIAIxJJAIAJhzJgxbq3AEUccYelXsR511FF24YUXxuR5FEGICebAbqIIgiIIgTUmFSQCIhAVAoEIBNYNsGYgY2KKgXUEsUgSCLGgHNw9JBAkEIJrTSpJBEQgGgQCEQjRMCynZUog5JRYfPNLIEggxLcF6u4iIAKRCEggRCIUo98XaVjLijb3/924zmKIUcUEdButQQgIpIoRARGIGQEJhJihzv5GEgjZ8xm+5GUbs/KzkNRWzs2QQMg5M10hAiIQXwISCPHln3Z3CQQJhPQEtJNiSF5MmSEC+ZiABEJIKl8CQQJBAiEkL6PMEAERcAQkEELSECQQJBAkEELyMsoMERABCYQwtQEJBAkECYQwvZGyRQREQBGEkLQBCQQJBAmEkLyMMkMEREARhDC1AQkECQQJhDC9kbJFBERAEYSQtAEJBAkECYSQvIwyQwREQBGEMLUBCQQJBAmEML2RskUEREARhJC0AQkECQQJhJC8jDJDBERAEYQwtQEJBAkECYQwvZGyRQREQBGEkLQBCQQJBAmEkLyMMkMEREARhDC1AQkECQQJhDC9kbJFBEQgISIIO3bssC+//NLatWtnJUuWzLTWdNxzYjVmHfecfX3pLIbEas+yVgSSkUDoBcLy5cvtrbfesk2bNtntt99u5cuXl0AwMx33nFivo05zTKz6krUiIAIJcBbDrl27bP/+/fbKK69Yt27dJBD+r9VKICTW6yuBkFj1JWtFQAQSQCB4lfTcc885gXDIIYfY7t27D6q71BVrbd+0eQlbpwXqVrMCx9T1bf+3a76wj/5603f+sGXsXLWHta10gW+z5v4xzhb99ZPv/GHL2LzR+VatYgPfZr24+AmbvXm67/xhy3hb/QetTkn/z5u6dJXZzoPf67A9V1b2pNStZlaooG9zx6790nbv3+U7f9gytqvUOVOTihcvHjZTZU8eCIR+iiGjQGCKITU19aBHZg3Czok/5wFFfC8t3LCWFW3W0LcRX68cae8tfc13/rBlZA3COVU7+TZr14z5tmf+Mt/5w5axWKujrVCtyr7Nem7BI/bThmm+84ct491HDbK6pf235+1fTbX967eE7TF821OycxtLKVHUd/4bZvS0LXs2+84ftoyvn/hZpialpKSEzVTZkwcCCSkQMnteLVLMQyuIw6U5XaS468ffbHcCC4TiCITDq/gmnd8WKW4fNdX2rU9ch1mqCwKhmO/67fdjj4QWCG+c9LnvZ1XGxCWQMAKBaYXChQtbVgpVAiGxGqEEQvb1JYGQWO1ZAiGx6kvW+iOQMAIh0uNIIEQiFK7fSyBIIKQnoAhCuN7PSNYoghCJUHL8XgIhJPWojZKyrwhNMYSkofo0Y0AT1iA08pnbTALBN6pQZJRACEU1RN0ICYSoI/Z3AwkECYT0BDTF4O+9CUsuTTGEpSZkR5AEJBCCpJmHsiQQJBAkELRIMQ9dSEwvVQQhprjjdjMJhLihP/DGEggSCBIIEggh6Y4imiGBEBFRUmSQQAhJNUogSCBIIEgghKQ7imiGBEJEREmRQQIhJNUogSCBIIEggRCS7iiiGRIIERElRQYJhJBUowSCBIIEggRCSLqjiGZIIERElBQZJBBCUo0SCBIIEggSCCHpjiKaIYEQEVFSZJBACEk1SiBIIEggSCCEpDuKaIYEQkRESZFBAiEk1SiBIIEggSCBEJLuKKIZEggRESVFBgmEkFSjBIIEggSCBEJIuqOIZkggRESUFBkkEEJSjRIIEggSCBIIIemOIpohgRARUVJkkEAISTVKIEggSCBIIISkO4pohgRCRERJkUECISTVKIEggSCBIIEQku4oohkSCBERJUUGCYSQVKMEggSCBIIEQki6o4hmSCBERJQUGSQQQlKNEggSCBIIEggh6Y4imiGBEBFRUmSQQAhJNUogSCBIIEgghKQ7imiGBEJEREmRQQIhJNUogSCBIIEggRCS7iiiGRIIERElRYZQCITU1FRbs2aN7dmzx6pVq2YpKSlpcNetW2f8nlSuXDkrXLhwpuD3LltlO76fnbCVIoEggSCBIIGQKB2YBEKi1FTe7Iy7QMD5Dxs2zDAEAbB7927r27evFSlSxPbv32+9e/e20047zYmGtm3bWsWKFSUQzGz03yPtvaWv5q3243h111pXWLtqnX1bsOvH32z3/GW+84ctY/FWR1uhw6v4Nuu5+Y/YzA1TfecPW8YBTQZZ3dKNfJu1fdRU27deAsE3sDhnlECIcwXE6PZxFwhbtmyxW265xV544QUXHRg4cKBdeeWVVr58eduwYYM988wzTiRUqFDBihYtmiUWRRBi1GICuo0EQvYgJRACamgxKqZUlzaWUqKY77v1+7GHbdmTuIJIAsF3VSd0xrgLBAx4+umnbdCgQQ7k4MGDrWPHjm6q4Y8//nC/O/nkk23x4sXWvn17a9q0qYsyZEypK9bavmnzErYyCtStZgWOqevb/m/XfGEf/fWm7/xhy9i5Wg9rW/EC32btn/2H7f/jL9/5w5axYIvGllKjgm+zXlz8hM3ePN13/rBlvK3+Q1anZH3fZu0b+5OlbtzqO3/YMhY6t6VZ8awHMBntvX1ub9u6N3EFwpBjP8i0CooXLx62qpE9eSAQd4FAlGDAgAFOGDCNQMSgW7dubiqB6QemGQoWLGhz5861SZMm2TXXXJPp4yqCkIdWEIdLFUFQBCE9AU0xxOElzMMtFUHIA7wEujTuAmHfvn322GOPWY0aNdy0wg8//GDXX3+9zZkzx2rXrm0vvfSSdejQwWbOnGlHHnmktWnTRgJBaxAS6BX7n6lag5B9lUkgJFaTlkBIrPrKrbVxFwgYTpRgxIgRtm3bNuvatasVKlTIJk+e7BYnLlq0yMaMGWNNmjSxk046yUUTMkuKIOS2CcTnOkUQFEFQBCFxpxgkEOLTb8b6rqEQCEE8tARCEBRjV4YEggSCBIIEQux6HN0pNwQkEHJDLQrXaB+E7KHqM8coNLooFqnPHLOHq68Yotj4VHRgBCQQAkOZt4IkECQQ0hPQZ455e59ifbU+c4w1cd0vFgQkEGJB2cc9JBAkECQQEjfkLoHgo5NTloQjIIEQkiqTQJBAkECQQAhJdxTRDC1SjIgoKTJIIISkGiUQJBAkECQQQtIdRTRDAiEioqTIIIEQkmqUQJBAkECQQAhJdxTRDAmEiIiSIoMEQkiqUQJBAkECQQIhJN1RRDMkECIiSooMEgghqUYJBAkECQQJhJB0RxHNkECIiCgpMkgghKQaJRAkECQQJBBC0h1FNEMCISKipMgggRCSapRAkECQQJBACEl3FNEMCYSIiJIigwRCSKpRAkECQQJBAiEk3VFEMyQQIiJKigwSCCGpRgkECQQJBAmEkHRHEc2QQIiIKCkySCCEpBolECQQJBAkEELSHUU0QwIhIqKkyCCBEJJqlECQQJBAkEAISXcU0QwJhIiIkiKDBEJIqlECQQJBAkECISTdUUQzJBAiIkqKDBIIIalGCQQJBAkECYSQdEcRzZBAiIgoKTJIIISkGiUQJBAkECQQQtIdRTRDAiEioqTIIIEQkmqUQJBAkECQQAhJdxTRDAmEiIiSIkPoBcLu3btt586dVqxYMStSpEiW0PcuW2U7vp+dsJUigSCBIIEggZAoHZgEQqLUVN7sDLVA+Oeff+yZZ56xcuXK2fbt2+3qq6+2MmXKZPrEEgh5awixvrprrSusXbXOvm+768ffbPf8Zb7zhy1j8VZHW6HDq/g267n5j9jMDVN95w9bxgFNBlnd0o18m7V91FTbt14CwTewOGeUQIhzBcTo9qEWCB999JGtW7fO+vTpY8OHD7cGDRpYs2bNJBDMbPTfI+29pa/GqJkEfxsJhOyZSiAE3+aiWWKpLm0spUQx37fo92MP27IncQWRBILvqk7ojKEWCI8++qi1bt3aTjrpJPvxxx/tjz/+sLPOOssWLFhwEPSy2/ZYzdU7ErYy1pctYn+X99/BzLHpNs3GJuzztrTTram18G1/1XU77bDNu33nD1vGPysVt82lCvs26xv7yJbaQt/5w5axg11mlayab7PqrvjHiu/a5zt/2DLOr1Xa9hRK8W3WW/aM7bDtvvOHLePVdlemJtFXKyUPgVALhP/+97923HHHWZs2bWzatGn2119/WcuWLd2/lURABERABMJFoEuXLuEySNbkiUCoBcKECROcGLjppptsyJAh1rZtWzvyyCPz9MC6WAREQAREQAREIDKBUAsEzGeR4vTp013kgLUI2X3JkNXj8iUEixwLFChgJUuWtIIFCx6UdceOHVa0aFGXh+RdU6hQIXdNSor/8GF22LlP8eLFI9eMzxxbt261ffv2uTKxP9Zpy5YtB9yyRIkSBrOMCZ6pqal5tpEvWgoXLpxpHWb27OSnTj1GmeXZv3+/q2++lCEfdVSqVClnL9dnrC+emZ/t2bPHeN5oJ+xgwS520g6xEwYZE22c9wObsd9P2rVrlys3/TNSDm0JJunfCT/lBZWHZ4Yzz0t7wr6s3sH09ZfZ/alP6opEW8iODZy5l9cPBPU82ZVDfcHZTx/Dc/C8ft918lOflM01fq+LxXPrHuEnEHqBQEdBR0XH5+cFyoicRY4vvPCC+xKCl6VixYp2ySWXHNTBvvXWW3b++ee7fNyT6Q06Yhzw6aefbieccEKea5MX+8MPPzTCcJmJlJzcABtHjBjh1mNUqFDB2XnttdfGxGF5dvI8r732mltIiqOpVq2atWvXzv1NwsZx48a5dSREgtavX28dOnTIyWMelPfdd9+1448/3urXr++rnJEjR1r58uVt5cqV7t6ZCUwc0ccff2z/+te/bMaMGfb222/bQw895MQCP7/iiivS7kUbuu222+zSSy91z3T99df7siMvmWj/gwYNssqVK7t6hvs111xzUF1TF61atXL233///b5uyUJg1vbccsstzhFTj/3793fPxbqfM8880w455BBfZQWZCad255132lFHHWUbNmxwdmS1QHnVqlU2ZcoU69w5869iXnnlFSeacI58BdW1a9cDTN24caN9++23duGFF7q+4qKLLnL9RKzSsGHD7OKLL/Y1cKDNrVmzxi644AJf5jG4+vzzz61GjRrGczLIoo/zk2A2dOhQ69evX0wFkx/blCc2BEIvEPKK4YMPPnCNm5efxMLH3r17u86fDrBKlSp2zDHHuBcB4XDYYYfZ4sWL3VcTdFCrV692Tq5bt242a9Ys11m1aNHCdaQ4xhUrVtjRRx/trkHANG/e3HVGvMiMLunUfvrpJ/e7WrVquZe7adOmuRI76VksWrTI7rjjDnvxxRedzWPGjHGjTDrSH374wXX22Pnnn3+658c+zxaeuVGjRrZp0yaXt3bt2la3bl0bO3asG10de+yxtmzZMuMeXINjmj17tit/7969dsoppxwgcL777jvHAuEDj5kzZ7qOvXr16nb33Xe7haU4OZw094LDEUcckatOh6mmk08+2TEkYQ/1gpPHVpjz/82bN9uJJ55oCASeF0bUM/VJ3SAwGjZs6OqBEeaTTz7pbIUn9cW0Fr/7+eefXfTql19+cTZj+1VXXWX//ve/jSmw22+/3eWH59KlSx0H1s0gJPg/ZeRVXNKecNqIVtrtfffd59owDg9BgyBr0qSJe26ek2d59tln7ddff3XMsYd6oT4QS3PnznX1QF0jKmjfjzzyiNWsWdNGjx5tL7/8sntPaOM8L8/Hv+vVq+eeCRsOP/xwxxUHhNjlGYOMjG3bts2JNP7QFnkfES2017Jly7q6Rtjg9LyoFfbBA160fS9S8PzzzzsH7Dl9fk+9Uu+UQ93y/lOXvBO8z14eruHrKcqFMWVyLe07ryLfe5+ffvppV58wpk+qVKmSuxfPRzuiDRHFnD9/vrMLuxG7tGPebZ6VeuHnS5YscXWBICDRRlm7haD98ssvDa6s6UJQ0f75M2/ePFcuwgEbli9f7toMwgvhSLvjPaPv42/eA/4oJT+BpBcINO7u3bu7kYP3IuAoRo0a5To4OhwcG//3BALO7PHHH3cdYePGja19+/buBaQDLl26tHsxWQ9Bx4qzeuedd9w9Jk6c6PIyqsep8jcd8ddff+2EQ6dOnWzw4MFOeGQWhs9Jc/v++++dPTfccIO7jFElLy82YDcOAQfCi09HRkgaexklYwMO57nnnnMdB50FI88HH3zQjTDgMnXqVPczbB8wYIDdfPPNrpOlwzn11FPdc3vJEwjnnnuuG+kSRUCwIMoYHdGZrV271jkfhBajtIcfftg5n5ymjAKBTo+OlA6b0T5RIGzHPho3nOlw+RkOgCkr7IfTaaed5uoFdjhVRqBEZfg5jocOko4QPpSH2KAjf+CBB5xAgA1lk4dOfM6cOa6z/uyzz1zU6YsvvrDrrrvO2ZaX5AkE6gUnQPuk/mBL+5w0aZJrw6+//rqrz5deesmNknlGnvWrr75yjgCBd/nll9tdd93lnoF3AoGAaGVtD22an9N2zznnHPvkk09c3eGkEUU4YATW+++/71gxysehEBnivfA7qvXDAkeGEEK0IThp64gwHCXvFSKWdgd7hM/kyZMd+99++805R9o+jpD0xBNPuGfFuePsFy5c6N4HokmIH+ymXXEv2iXRGdjyvnJfxNA333zjIkd16tRx0Rne4aDC9Z5A4H2knSEEeCacPYIPkULbI7LBgAfhyztNhJO6gz3vF3WBmOU9p32Qh/cVoc+7SD9FHfLMtAv6sTPOOMM+/fRTJwgQG7wnDDJoF9Q5z4p4ok+hnp966im79dZb3Xujo8kkvQAAIABJREFUlPwEkl4g4Azp5Bjd0GHT2TA6ZGSNOGBkzQZMvBieQEC1Ex7HQfDyAIkwG6E6Xtrff//dhfPpuBlN9+rVyzkW/tBp4DRwKrzovHiMvnGwvJx0tkEIBDpEOkg6e5wTTgOBgJDBcTEKoHOhs8d58CyMDHGERB4QSUyr0KHgDBl14GAI4ROipgPgkyU6TpzNG2+84Z6BUCydEoIoo0Dg+RiN8TscN6N67kuHi7PCufTo0cM5abgxVZDTlF4geFNBlEvnT11SF6+++qqLMNDxU8eeQKAOeQY6fJ6ZPN70AU6UkSqdKp0pdYnDhxUdKZ0s9d63b183okIgUJd0sHSYOCHaFJ05IzbEFSMu7pnX5AmEe+65xzElyoHQIjpA20L4IkSw2RMICFN48OzYQR3wLiACsA/7STgCRuQ8K/WG2MDxUP+eQOB+PB8OhCgTeRGmCDNEH9yoe+4RVEIg8D4eeuihrr64H217/PjxjjNODBFM20aoYOt5553n6gZB1rFjR+dkSfwMYcBzEm3B2SKU6RMQfDhTRBXOj/9T/7RjRs84Rdoc9+S9DUog0HYRprQ3BMKVV17p/uZ9hivvJkKH94V3nTZAP0Z/hNDjGREC1DHCCQdOX8M7S/SIukAEIRD4PyKC33EfyuQa773n/aGdIj7IDyNEFG0EwcjgCaENYyIs6afcgqpvlRNOAkkvEHiJUMy8GMzf8rLToaOM6XSYg6WzSS8QcASMgHkR6CjefPNN93LxkvGHMhhpZyYQcNKMZOnMcaaMeOjE6WwI4wclEHDSvNSUS0gUGwlL0oHTORJGpqPJSiAwwuU56DzJx3Pde++99t577zmH6IkAQs2MrBjdIKyyEwiUiTPBJs+RIwzokBiJMcrBCeGoECa5FQh0hN6oHHtxaIyIqEtGlnS+iCYEEQ6xatWqrn4RBwMHDnSdJ2FiHIb33TYvAu2BdkIEgUgI9uJIiHjQcSNsGIF7AoH74bzoyGlbXuiXCAL3xHEGsUbBEwiMbvk3jGGHkKOdIewY7aYXCAgwBARCAvGDc8EuHCx1in2eQCCSQ5tHBPF8sMlMIPA83ANxjCDDeRBp4Oc4Uk90BNHVpZ9i8KJtjOCpD8Q3wgeh40UycF68xzhK6o13jogRKeMUAyNiog1EFahnBAJMaLMMFnjvvXUc3AuOiBOmypiGYU0D/UdeIgi8X0QlEDi0SYQo0zy8O7RVno2+hHeHqSKcNL8jssn0GCKHfoyICZEDnps2QXSBd5W68ASCN8Xg1Qttmb6Dvo1BBNFI2il9HtxoA7xXRAQRnrBFRDBAIl8sF3AG0ZZURu4JJL1A4CVj/pKOEadB42fRHCMGXn5ClLykvBi8EN4iRX6PcqcTwXEwQmeE4S12pOPlZ7yUvHCodEZThC1R9YzEvHl4XmJGtnTEOBvERRDzl9wHm5hvxyEQEuQlJ5SIA6AzY86ZTpxOkxECoyA6RUQEIzDyImIQAXRS3jMyYmSkyLQCIzMiCF7njDMglO8l5qEZjdCB0rHAgY7KC8PjVLzFiVxH54sjz80nq9hLx0pCGNBpEjGgE+eZEB6IMBxpz5493YibTpD6ZfTPtdiIcEIQUYaXcBTUE0IOG6lrRA+hbkZO/JwpJBwyQgchhaBgauayyy5zLHEk8CYv9c7P85poZ0R+CK3jLGGL40CoMNJjdEwdIQTgSz3zLI899phz/EQ5iCxgD7/DsXuJRbOMtBE6OFLaB+8KbZe2hNOFFz+nHrkHiWkkFi96bY36JAQeVCIqgJBElHoCgakNHCXtmnqhzs8++2wnzLCV5/SmBnH0RMlI1CX20g5ItHt40kYQjQg8nLQn6mgnOGXuxwJg3m86Ssrm/4gTRFJuvqhKz4f6IfpDpIs+CGGA+GAEz/voRXAQIohTRD/vDPXNM8OCZyRqhUCgzqgHog/0T3Dj3cS5p39fqV8GFExZ0bapQ94VyuC9p53xHsEQIQRv1tYQESXxnvFHKfkJJL1A8KoQoYDy9dQvo0xeiOzWAtAx83vvGvLzbz9fU5A3CBEQqQlyH/6k76yYIsHuvNoJs9yslch4XU7sifS8Wf0+I+/s+OekHrkfbYU/fkZOsap3zy4vTJ0Zl/RhbIQC8+p07Fl9DZAb9rltI7m5F9dEul/6Z87uHpnly1i291mp9x5l/H9un8G7zls3lP7dza5t5qSNR7ItJ/eJxDzSvfT7xCWQbwRC4laRLBeBvBPAIeAUcyP48n53lSACIpCIBCQQErHWZLMIiIAIiIAIRJmABEKUAat4ERABERABEUhEAhIIiVhrslkEREAEREAEokxAAiHKgFW8CIiACIiACCQiAQmERKw12SwCIiACIiACUSYggRBlwCpeBERABERABBKRgARCItaabBYBERABERCBKBOQQIgyYBUvAiIgAiIgAolIQAIhEWtNNouACIiACIhAlAlIIEQZsIoXAREQAREQgUQkIIGQiLUmm0VABERABEQgygQkEKIMWMWLgAiIgAiIQCISkEBIxFqTzSIgAiIgAiIQZQISCFEGrOJFINoE5syZYytXrrTixYtbtWrVrE6dOhGP+p47d65x3aWXXurLvB07dhjHdpcpUyYtP/ecPXu2tWvXzlcZ6TN99913VqxYMWvRokWOr9UFIiACsSEggRAbzrqLCESNwKOPPmo1a9a0ypUr2+eff27nn3++nXHGGdneb/369caf+vXr+7JrzJgxtnTpUuvdu3da/gULFtioUaPspptu8lVG+kyvvvqqlSpVyrp27Zrja3WBCIhAbAhIIMSGs+4iAlEjMGjQIDv33HPtyCOPtNGjR9u0adOsZcuW9s0339jGjRvtscceszfffNNmzZplVapUsbvuussWLVpkU6ZMseuvv95ef/11mzBhghMZt9xyixUpUsSefvppW7hwodWtW9cuu+wyV8aKFSusf//+dsopp7hn8QQCZYwYMcKJhRIlStiAAQOsfPnyNnDgQHefBg0a2I033mjr1q0zbCUSQbTj5JNPlkCIWqtQwSKQdwISCHlnqBJEIK4EHnnkEatXr55z/sOHD3cRhN27dzsBgBhYsmSJEw09evQwIgHz58+3U0891caPH++mB7jmjjvusKlTp1pqaqqbRlizZo0rh+sOP/xwY0pi8eLFLlpQqFChAwRCp06dbMiQIdavXz/79ddf7dtvv3UiYdmyZVapUiV7/vnn3b3Hjh1rjRs3tqZNm9q9994rgRDXVqObi0BkAhIIkRkphwiEmsD9999vmzZtclMMzZo1c9MLI0eONF7uvn372pdffunm+/n5H3/8YUxJEBVgHUDDhg3ttddecyJg//791qZNGzfCP+qoo+z444+3ffv2uWenDK69+eab01h4EYS2bdva3Xff7QQKAoOyunTpYk8++aS7fsOGDYaI+fDDD919iVQgGipUqKAIQqhblozL7wQkEPJ7C9DzJzyB9FMM3sOkFwjz5s2zd955x43+33rrLStQoIAde+yxLoJw0UUX2eOPP+6mEHD4TC8gFJhyuPrqq93UBNGG1atXu/wPP/ywy5N+ioEy+DnTDyxcREggMpYvX259+vRx4gFhQTSiaNGi1rp1axexOO+88yQQEr716QGSmYAEQjLXrp4tXxB4++23Xbi+du3aac9LdIBFiJ07d7a9e/c6YYCDZyqCaYdJkybZxIkT7Z577nHRBv7wBQSOvHTp0vbiiy/ajBkz7LjjjrNrr73WtmzZ4qIA7du3t9NPP93dhykEnD4LDZlWwA6upYyyZcvaQw89ZHz90KhRI+vQoYNblIiY2bx5s1uX0KRJEzvzzDPzRR3pIUUgEQlIICRirclmEcgFAcL9RA9w0AiDk046ybp16+ZKQkR4awu8oslfsGDBtDsxfUBKSUnJ9O5e+d7vyc8f7ukl/k+EIn25uXgUXSICIhADAhIIMYCsW4hAmAiwgJFFiNWrVw+TWbJFBEQgZAQkEEJWITJHBERABERABMJAQAIhDLUgG0RABERABEQgZAQkEEJWITJHBERABERABMJAIKJAwEh2RVMSAREQAREQARHIHwT4AunBBx9026un/0KKp09JTU1NZZtWVjcfdthhB6xEzh949JQiIAIiIAIikD8JsDU7Z7uwHwqbsKVPTiDs2rXL7YLG1qvsnZ7+c6X8iUxPLQIiIAIiIALJSYDPkPnKiakFdj4lOMCJr2xwdpBA4Afbtm2zrVu3um+ks/r+OTlR6alEQAREQAREIP8QYHM175A3PoNmo7Vy5codBMBFELyfEknYvn272+BESQREQAREQAREIPkIMGPADqrsfsrpsIULF870IQ8QCMmHQU8kAiIgAiIgAiKQGwISCLmhpmtEQAREQAREIMkJSCAkeQXr8URABERABEQgNwQkEHJDTdeIgAiIgAiIQJITkEBI8grW44mACIiACIhAbghIIOSGmq4RAREQAREQgSQnIIGQ5BWsxxMBERABERCB3BCQQMgNNV0jAiIgAiIgAklOQAIhyStYjycCIiACIiACuSEggZAbarpGBERABERABJKcgARCklewHk8EREAEREAEckNAAiE31HSNCIiACIiACCQ5AQmEJK9gPZ4IiIAIiIAI5IZAmkAYNWqUO9GpSJEiVrNmTatdu3bE8iZNmmTFixe3448/PmJeMnBS5D///GMVKlRIy89hkitXrrSKFStagQIFbOTIkda+fXsrVqyYrzK9THPmzHHHVW7ZssX96KijjsrR9cosAiIgAiIgAiLw/wmkCYRnnnnGzj//fOekv/zySzvvvPOsVq1aLufOnTudw8aZe/9OSUmxbdu2ufwlSpQ46HdcR/7du3db0aJFXTm//fabzZ071y6++OI0C/bs2WMvvfSSde/e3Q455BDbtGmTlSlTxpXL9Xv37nXChb8LFixo3NcrO70t06ZNs0MPPdSJG65DuJC4jrL4k9l13s+wA3GkJAIiIAIiIAIiYJYmEJ5//nm77LLLnHP++OOPrVq1ajZv3jzbt2+f+9npp59un376qWOGk+7SpYtNnz7dSpYsaccee6z7HdEBnHinTp2cMCAa4Dnns846y77++mtbvXq1nXnmmda8eXNXFoKB+9WtW9c6dOhg7777rvXo0cNee+01V/aOHTusevXqtm7dOtu4caMTEgiSTz75xDl/hEDnzp1t9uzZTiBgA/Zhxw8//GCFChUyzr6+6KKLrFKlSs7OrVu3ut937NjR/e6bb75x+apWrWrt2rU7qF1g0y+//OJ+Xrp0aevXr5+zQUkEREAEREAEkpVAmkB48sknrUWLFk4QzJw504mFzz77zJo2bWrHHHOMTZw40TnY+vXr23fffefy4Yhx4jjbZcuW2WmnnWbz5893I3GiCzhcHP+SJUuc82YqgakAnLwXCUBIDBkyxImCww47zF5++WW79NJLbfjw4c7x48ARIkQdcOREGTZv3uzuedxxxzkR0KBBAycgPIFAZfF77nvuuec62xETTG0QxUCgIEyITJBv1apVTgARRUg//eFVOqJj6NChzhby8cezP1kbhp5LBERABEQgfxNIEwiDBg2yxo0buxFyw4YNnRhgFN+6dWs74ogj7IsvvnBCgdE8o/WFCxc6Z41AwGH//vvvVqVKFRfer1evni1fvtxFCfgZjheHumDBAvv555+dQPASv3vhhResZ8+ezsF7AuGDDz5wo34cP9dccMEFNn78eDfSX7p0qVvPQH7uh1DITCCwHuGUU05xAmP9+vVumgSBgnDZv3+/1alTxxo1amSTJ0929iJQuA+iIWPC9lmzZrnICcJCSQREQAREQASSmUCmUwzeA6cXCIiCxYsXO8FAeB+xQMgfgVC+fHnnvBnlMy2Bo8WB48hPPfVUt6ahVatWTih8//33LlrgrREgEjF48GAXfWBh4SuvvOIiCNkJBBw9AgVnztqDI4880v7888+DIggZBQLljx492i688EIXSUAMYSd/ly1b1l5//XW77bbb0tZMpK94hAi2IlCUREAEREAERCDZCaQJhK+++sratGmT5rh58HHjxrmoQuXKld2aggkTJrhwPAsByYuzxbGeeOKJLtSP00Yc4OxZe0D+NWvWuMWOCATC/NyHEXyzZs3S2BIhWLRokbFOAYePqJgyZYq1bNnSrRdAaBCNYB0Ao3siHJS9YsUKVxb5mU4oVaqU7dq1y0Ur+MP6BfIS3WDKg7USM2bMcOKA6Efbtm3dVw+UxfMRiSCioCQCIiACIiAC+Z1AjvdBIDSP82ex4bBhw1zInSkIkve79FAz+1lm0Bmh53Re32/ZGe+X2XW5uX9+bzx6fhEQAREQgeQlkGOB4KFgpM7iPdYBKImACIiACIiACCQXgVwLhOTCoKcRAREQAREQARFIT0ACQe1BBERABERABETgIAISCGoUIiACIiACIiACEghqAyIgAiIgAiIgApEJKIIQmZFyiIAIiIAIiEC+I3CAQGAjIDYz4pM/JREQAREQAREQgeQlwJYFHI2Q1RYDaQKBzxY5SRGRoCQCIiACIiACIpDcBBAGHB3AdgXeicfpn9gJBHY45CwDtjBmZ8SIGxYRYfi/Y5czw6dNh5K7UenpREAEREAEEp8AMwYEBhAHiISMvt8JBA5bYqthzlSIKA58MJFA8AFJWURABERABEQgzgQIEKxdu9b5/4wHETqBQPQgxcwOK18+EFMlEALBqEJEQAREQAREIOoE/v77b3eOUtGiRQ+4lwRC1NHrBiIgAiIgAiIQXgKRBUJKilMQQSRFEIKgqDJEQAREQAREIPoEIguE9FMM6RchZrYgMcLvJRCiX6G6gwiIgAiIgAgEQSCyQFAEIQjOKkMEREAEREAEEoqABEJCVZeMFQEREAEREIHYEIgsELL4imHLli02b968AzZQKl2qlBUuUsT2799vjRs1spQCBQ54iuymGPickq8mSpQocdCeC5S3fft297uMmzawkdPGjRvdt5rs/ETiPnyeUbx4cStdunTaz7Zt22Y7d+50ayq8crh+/fr17nr2e1ASAREQAREQgaAI4I/wMWw2yCeDBQsWTCsa/4MvyvgZIX4KH4tfKlSokMvP9fg1fFrJkiXT/Br52Lcg/aZGfKLIn7z6tMgCIYsphjlz5tjHH398AMNOnTpZ/fr1beLEiXbCCSdYuXLlfAmEv/76y2677TZbvXq1+5zi6quvto4dO6Zd++mnn9qQIUPsmWeesQYNGqT9HFg33HCDExbc99FHH3WiYODAgTZhwgQH9pFHHrFjjz3Wvv/+exs0aJDb16F9+/buOoDfeOON9ttvv1m9evXs8ccfTxMUQTUOlSMCIiACIpA/CeC4n3/+eRs1apQbuB5xxBH28MMPO6GAD7333nvtX//6l3Xo0CEN0B9//GE333yz7dixw/k7fBiOHv+FXytVqpQ9/fTTdvjhhzu/hr/jPt27d3dlIUbuvvtuq1Gjhvs7LymyQMgiguAJhJo1a9qqVauc4+3atas1atTIvvvuO2vYsKFVqlQpokD4559/rG/fvta0aVP797//bb/88osNGDDAnnjiCTv66KNt+fLldueddzpnf/vtt9uRRx6ZVuZLL73klBdgbr31VgcHdXbffffZ4MGDbdKkSQ7oU0895YCed955TkD06dPH3njjDfe7mTNnugpAHNSuXdt69uyZF566VgREQAREQAQcAQbLL774oj300ENWpkwZ52cqVKhgl19+ufs3fpPB9CWXXJIWEXj22WddHkTDNddcY9dee60buDIARmy8++679tNPP7l/33XXXc7vEVFgsPvmm286f8dAe+vWre6avKQ8C4QTTzzRhey/+OKLXAmERYsWOWHw0UcfOYCorH79+jmBARiEAuJh6tSpduGFFx4gEFBYCAdEQa9evax///72+++/27Rp0+zBBx90quriiy+2V155xU1PoMIQIIiJDz74wAkR7EdgjBs3zv1s6NCheeGpa0VABERABETAEfjPf/5jTZo0sYsuusj9f+nSpc7v4MgRB2+//baLCHgCgTz4NQa+TDP06NHDHnjgAVu4cKGtXLnSrr/+esNnIgbwa1zLoBe/x8CY8pi2IM8777wTA4EQYYqBeY9u3bo5B9+6descRxB4cB4ageHNw+DoER1t2rQxogSM8IkAMO1w3HHHHbDtM9tB8/vKlSs7QUEoh7URlIHYQCAwPUFI588//3Rhmi5duthpp53mVNwFF1zg/o/SI6rw6quvqmmLgAiIgAiIQJ4JEPXGL5577rmuLEbkt9xyi4sCkDwnn14g8HP82v333++mvnv37m2ffPKJ+9lVV11lTMkzDc+1VapUsfnz5zsfyED7pJNOcuXOnTs3RgIhi30QvCmGzp0722/z5tn8BQvs4osuskaNG/9viqFBA6tUufIBgDNbpLhmzRq78sor3RoEphsY/c+aNcuBmDx5spsmIHzC7wibAKVOnTpp5QIRkQIcBAaO/uWXX7Zhw4Y5VcXvEQjeVAb3orI4W+Kxxx5z0QciCu+9957Lj+JTEgEREAEREIG8EnjrrbecX8HHMKXAGoTZs2e7AW9WAoHFhYgIptgZxOKjuIboABH18ePHu+kFohBMI7CejkE24sBbfB87gRAhgkCIA+eL8/fWIDC3z1oB5lHSp8wEAj8jtD9y5Eg75phjbMSIEW4tAGAJlRBuIQGG0T5TAl6kgbmd4cOH26mnnurCLKeffrpTXMzLVK9e3Vjs0bZtW7eu4I477nCq6pRTTnHlMV0BeOaGjj/+eJsxY4YL/XC9kgiIgAiIgAjklQALBllDRwTbmyZgtE90PDOBwBd7//3vf+2zzz5zkQemxVlUz4JEBtFMvePHWE/HtAW+jVMXW7Zs6cpjYM3av7gLBG+Ogy8BvIRzPeSQQ9yiReZOvM8Ovd9n9ZkjP9+wYYNbkMi8C9MALLSoVatWWtl8oggs75MPfoF6Yp2BlxAJ/OGTyGXLlrk1DUw9IAQIz6S3FWGDfd59ERSZHWuZ1wai60VABERABPIvAQa5TAsw4B0zZoz7uo+FhSR+RzQ7/eeIGf0aEXSi5wzElyxZ4vwUfo1oAf4rfcLn4SOJQuBL8XN5SblepIhTx2AeOn3iYVlxmfG7TvJoq+W8VJWuFQEREAEREIHYEYgsELTVcuxqQ3cSAREQAREQgZAQiCwQstgHITf2K4KQG2q6RgREQAREQARiTyCyQFAEIfa1ojuKgAiIgAiIQJwJSCDEuQJ0exEQAREQAREII4HIAiGLfRAsNdUsJeXAZ0r/s0x+rymGMDYB2SQCIiACIiACBxOILBA0xaB2IwIiIAIiIAL5joAEQr6rcj2wCIiACIiACEQmEFOBENkc5RABERABERABEQgDAQmEMNSCbDiAANuNrlixwjhKXEkE4k2AE/hq1KjhdmRVEoH8REACIT/VdgDPiuPm0BFOGOO8DQ4M4WRMz5nj3L0DQzK7Xcbfs3CVLbDZHpRts71jTjlgiyNN+X368jJez/9J2d0zgMdWESEksHr1anv22Wfd3vNsr96gQQN3EBtbqGfWLmhn6Z18Zm2VLWrTt0Uee+DAgda3b193ZHz66zOWR1vN2F5DiE0mxYHA559/7rZIPvnkk10b8fo8zxQ/bcdrm+mvoQ1HU7hKIMShsSTyLTnjgsNGqlat6k6+5HjsM8880zn2wYMHOyd/2WWXuXPPOe/8/PPPdwdlXXfdde6UT04B5VAu8tx8883u7A7OyUBs8Ds6eA7fQoTwEvGHI1N5gZ555hmXl+PFGdE9+uijbltv7tG8efNExirbc0Fg5cqV9uSTT9rDDz/s2gntoU+fPq4NcpAb+9f369fPOXZOgeXwNg5r46A2js/9/vvvrX79+u4kWMpAGHCODG3pp59+coe4cQwvB7qR2DefU/Po6Cmf4+M5QO7YY491IoI98zlMjkPjlEQgPYGPPvrIHV7YpEkTd5Ij5y3QtjiE6Y033jAOdaKd0te9/vrrrk+lz+M6ToLkhOIFCxa4fvKKK65wfTDigDMZ1q1b5w4onDp1qmu3nO7IkQdBJAmEICjmozIQCHTEnDTGAVqo2nPOOcc5/2rVqrlTy+iMOYzk/fffd6eNcZR2p06d3AmdHTp0sC+++MKdZ/7cc8+5Q73mzZvnDtmic0Vp02E/+OCD1qtXL5s5c6YxUqRsjk3lNLNx48a5ER3X87Lw0qQ/7CQfVUe+flRPIOCcGUUhVps1a+YcPwKWqAJnxSBIOUa+Y8eO7u/GjRu7vLRb2hIn440ePdqdiEebplPs0qWLOzKeY3fpjBEVdMR0wK1atbJvv/3WCYlRo0Y58YtgoG0jKhAKSiKQmUCoW7eu/fLLL27wtHjxYncC8tChQ10/xsnEZ5xxhk2ZMsW1TQQCfSiR1IkTJ7rDB+kf+T/HPXPK41FHHeWuo91xJDRtnWOfg0oSCEGRzCflIBAee+wxN2JCKDCi5xhSOlhGUzjqe+65x0UXOJWTEzkbNWrkThXjCFOUMYd8nXDCCW5kRgfMC4NAoOPlZUEgcJqnp4q/+eYbd44619WpU8eNFnnReEnuv/9+K1u2bD6hr8dMTyC9QGCKifZEZApBynQDbZEIEx3tmjVrrHPnzu6EO9owzp+RPiICgckojt/Tnum4EadEFeiMaYtEIoguIHK5jmgX1yFAEBy0RSJlFStWVCWJgCNAuyOSyuBm5MiRbrSPMKDt0C9yejHR0A8//NCuueYa1/cRYWBQRD9J4ncXX3yxiyoQ/SJKwOCIQRiDLE4hRjyMHz/eRcBog0FOOUggqDHniIAnEOg0CZMR4iWsy3GmjNxw1swB08EyOkM40NFu2bLFWFfAkeB01t27d3fOPSuBwO8I/9JA6ZAJvxF5YK0DUQt+hg0SCDmqvqTK7AkExADH3uKc6XBph7RT2iHtjekoBAEd9dq1a52IYNQljFVFAAAgAElEQVTF2gWuY+RPh5uVQCCCQIdOe2fExv3efffdtJ8xxcV7IIGQVM0rkId54YUXnFBAXF5++eXuuGamChgwbdy40fWD6QXCcccd59ou02GIW9onAgFhSnQA8UDEKr1AYOA0YMAAa9GihZu2CDJJIARJMx+URWPHQXvHefNvT7Hyb+Z/GbkxosssL/O4RAu8hWD8zVwac2Zc4y3E4W9+zh/K88pixMb16fMGNd+WD6ovqR7RaxPeQ9EOvXZHpIBIE+F+2gftiZ/RdsjH72iLiAj+0G69dky5/DtjW+T/XO+V57Xl9HnVFpOqieX5YWhnTE0xcGJNDG3La3e0Fa8t0g/SvrzF1jh92iX/53dEHrx26eXlb8qg/CeeeMJNUyBeg0wSCEHSVFkiIAIiIAIiECMCDKAmTZrk7sYaLm/gFtTtJRCCIqlyREAEREAERCCJCEggJFFl6lFEQAREQAREICgCEghBkVQ5IiACIiACIpBEBCQQkqgy9SgiIAIiIAIiEBSB0AkEP1tOBvXwOS0n49aqOb0+qPyZMYq0xXFQ986unDDXHbaFfYW590VIvO2EFSnedvhps7yTrPROBFv9PE9+yJPZVsNhee6M2xmHxa542RF3gTBmzBgbO3as22KSTUu++uorK1eunPukg++S+ZQjHondrLCNna7YDpgdrPibz6Gwi09Q4pHYFIOdBdlXgI0z2L6Tb2TZOY69CPiulp/FOmEX36WzEx2bIPG9eLwTbcj7Jh4HwnfyZ599drzNcp9ususZu0+yIQrf6vMtNHs98J0+O/7xjX480g8//GDz58937x/7BmDfO++84z41ZR8AtsKOR/vi2/HJkyenbYrF3gWs3uZsED5fpF7Z7yCWCUZff/21+2yNvotP0fjWPQzngsCFPovNedjFlAS/Tz/91G1xzs/jkTZt2uRsYFdAPvFjF0sY0n/cdNNNcWlbcGCDLOzis1jsYm8LfBGfVfO7ePZp9BeceUNih9pYprgLhOnTp7sNdTj8h8ZDJ1mlShV76aWXnLNjQ4l4pJ9//tl14mzdumjRImcTW6uySxudEWIhHomOEofC9sQLFy50nSKihU2FeOkQVLHuoOgocSrsmIhd1GmsG3JmdQEXxBObNvGSsePjfffd5zYgiWfCLuqRvxEudNbsJnn00Ue7DgrxGS9hPGPGDGvatKlzeryD7OuOs2EHS3ZrY6MqdrWMdWLXOc5AYB8CNtyiThEubAyDMKX94Wzildg4id09w3ImCDvu8d09G/OwbTTtn3eBDp93k/4sHolBDG0eAcw2wgzA6F8/+OADtzNgvHaiRJgTPaCNsYkWW8DzN6xmzZrldtdku+14JAar9Kv4HOoylinuAoGHZdveq666yg477DBXSSg3Osm2bdvG3Nmlh88Lxc5WvGiIGLZWnTBhgms0jK7ilVC1I0aMcPt1I2RwLmyQwRaeNGyiCfFIODwEFPUWrxFK+udGuDAq4NtgOiVG7Bx8Eo8RcGb1QceDXQgWIggc+sN5E4xe4nnUNeKA9sXObYgFNm0hEvPrr7+6EXK8+OFIOAPB6ygRCjgVOndGoEHvIuf3HUKg4OCuvfbauAm7zGxFhNI3EJHi7AkOQeN9YCfJeAkE7ESsUI+IYO9gK7bJjqdAwC76C/p37GvTpo17Jxm0EkHwzj3w2yaCykekmIPFuD9tnOh1LFPoBAIhTrbipZOMd/IEAsKALS/pCNgGk8MwmAaJR0JAcdIhoyX27SbMSui3Xbt2bqoGMcPUQ6wTLxVbH/PC4+jCknjpGX0SVeFAHc53IEoVhuQJBBwuhwgxOmDkxxasdAjxSpyZgQDmABjC5ggEnDKjdN5NHE2sE/dldIdTIXIAH066Y2tlptxwhPHqM7788ksnpuI5aMhOINBPvPbaa66/oM1x0Br9R7zWbeCEEXtEgTwbwiAQcMBz5851Z8EwZcQUjde+OKn2gQceiHWzd4KFSDY7MdKPcd4NbS1WKVQCgZHA22+/7RwMHRKOOJ6n9HkCAVvoBOgAOJaTvbFxxPFIH3/8sQtPM8dPOI7QLx0mYV9+TgQh1vPX3kidfcKZq2Oqg04o3gm7EE2IO6IbTFcxdx2W5AkEbw0CQsE7QjheUSCid8xVM7WGQyaCRqiVQ2Fo+9Qr5xLEOmETToV3kVEV4V4iQvybP6eddprVrl071mY5cc5Ik/cu6F3s8vowXgQBMYWI4n1gLhshGq81Qjg5pq6YiqFvP+uss9xjxlsg4AiJSCGKqUeioAhQpvyIIvBuMgiLdaJt896xtuvHH39060liOb0dCoEQa+i5uR8OhlAT0yDxUt7Z2U1DwjErHUyAkDmr3eO1nsVPndB50xF5i7f8XBPLPEQRiLzEs+1Th/xJv0CYaAuOhrUJSiIQNAEiaN55CEGXnQjlSSAkQi3JRhEQAREQARGIMQEJhBgD1+1EQAREQAREIBEISCAkQi3JRhEQAREQARGIMQEJhBgD1+1EQAREQAREIBEISCAkQi3JRhEQAREQARGIMYGIAoFVnEoiIAIiIAIiIAL5jwBf7mX8rD8lNTU1dd26de6zopx88+8dxOEHI59Mse91LJLsyhnlrHixgUhmGw3FcmtgNovym2SXud1J/aZE4hWtT3vp87wDqyJxiyUv2RWpNg78fbx58WkwvjNjG4m3XekpRWq/vGPZCgRelJx8X8+OemwF7CchDmJ16FE07Arim/Cc2MX3uDkRa37qIKs8WdnFpkNsoJMxxeo7dNojh/P4SdRPrDbayqld1GMQ7ccPB/aB8JOwJ5Z2UY9+HHFWdnFGBJuXBc2R/ov2HynFmldO7IpVu4eRX7vIG6t+gnsR/cYZ+0nwCrodsfsn26hnfOac2MX7GM2zdSL534hTDCs27bBxy/11MK4iUlN9V0pKSgErULCAn/rLe54c2ZViBSJENrC6ZvF9dnqjqlYiD5u0SCDkrGpz6ohj1VHm1K5YOmIJhJy1Mb8OTwLhf1z98pJA+B+vpBII8zal2uDlZXP2huWT3Pt277KLSi6zjs3r5Vp9SiDkrLHk1BFLIJg7mdFPirXDUwTBT638/zx+HXEsI2cSCFnXYb6IIEggZP8SH7tvid1wcs1cr6WQQMhZJymBkDNe5JZAyBmznDjiWEaCcmJXrISxBIIEgiII2fQvR+9bajedXEMCIQ/TLDnpviUQckLrf3klEHLGLCeOWAJBUwxZtS5FEHL23iVl7mgKBEKF6RdxaZHi/85s1yLFnL1KEgg54yWBEB1elKpFilqDkLPWleC5/QiEjCui069KzWqKwTs6FpHg7UWRF4GAY02/Sjf9//k3dqT/5DQvXzF4z+s9J5/ZUXb6+7O6ODefuHqrkjP+nVkziuVcbE6FSyxHnhIIOetkJBCiw0sC4X9ctUgxZ+0roXNHEgh0zv3793fneZOqV69ud955Z9rnip4jxpmlFw44zyuvvNJuv/12q1+/vnPguT12lFDX2LFjrVu3bs4Gzhf/+uuvrXv37u7/8+bNs5kzZ1rPnj3T6gKHxxHXGVNm355jW/o5z88++8ztlXDmmWe6y/v162dXX3112hn0OPdnn33WbrrpJl91P3/+fHcGOp8MDR482G6++WZnc5MmTZyN2JpRAHEPCYT/4ZVA8NXM0jJJIESHlwSCBELOWlYS5I4kEHCoDRs2tN9++83Klv3f1yCeKOBvnBhhN28Eyt9sXoFAYM8BNqkgpM7/GYnjiPk9KpSOjO9YGY1SlucIcM78H+eJo+Rb1iFDhtiTTz7p7rd8+XL376eeesr9f+rUqfbVV185MfL/2jsT+CiK7I//Mpkc5B6ucN8sK6ggpxfifa14A+6KXCKgrPfBuognCKiL619gFUWBBVFA8MJVcWFBUFQWFwVX7mODAYGcJiTMkNnPr2LHztCT7uqZxGT/rz+ffJLMVFdVv37d71uvXr0ihPB8w/DyfLbJulkn+8oybNswwobbkGXY/9mzZyuDbgAHE25lZGSo85hoifXQyL/88svqmnh9RruGt4S/eZ38Yb/OOOMMXHfddQq02Lf77rsP06dPV3Ix4IT10PPCa2L/BBAEENy8YgQQ9KTmVF4CCAIIepr1P1DaKSC8//77KuEUjS8zbI0YMQIXXHABNm/ejCeeeAL79u3DzJkz0aFDB2zcuBG33XYbXnzxRTz66KO45ZZbcPnllyMvLw+dOnXC73//ezX6JnDQO0BjTwO/cuVKZaA5su7du7cyrGeffTaGDRuGWbNmVQkIHOVfcskl2L59uzLe//rXv/DRRx+pPjZs2FB5HDiCb9myperPVVddpb776quvVB8PHjyIqVOnomvXrgo4xowZUwEI9FTce++9ePvtt9V1st/0WKxevRqTJ09WHo1Dhw6pejds2KB+2rZti88//xzjx4/HxIkT0bp1a1X/c889pzwR/E2PyK5duxQsNGnSRPWfcEIvDcFDAEEAwc0rxqnBq+lloTr9klUMeq58SZRk/aTYJkqSZY5Vv2KcAkLjxo3VaJgjYRrPp59+WhmzhQsXorCwULnMH3roIWRmZuL6669XBpgj/GnTpqmRMz0QrIOj8htuuAErVqxQUxdz585V2eQ+/vhjPP7442qE3rNnT7z22mvKjU8jT6Nv9iDQSLNeswdh3rx5qgzrYd8uvvhi5b0gXBw4cKDCgzFu3Dg8//zzCiLYf7ZPI01Qefjhh9G0aVMMHTpUTS8YHgQabgIP66L3gqN8XtPixYsrZEEomDRpEi666CIFA8OHD8fo0aOVLNgngs55552npmemTJmi2if0vPrqq9ixYweuuOIKBUSEDiOTpwCCAEIkgEDYpidLJ1V1Ve3x+U9JSTkh9S7PYVv0jjnNQuvmun6Jc4y4KWP61BykWJuvmf1NTk62zFxLDygHedG6V0ZGYauMifyObTnNCFnVPTa81bwHRjxYxJkUBRCiAwjmKYZt27apETBd5DSSHH1znv2RRx5Bo0aNMGTIEGWgzYBAkuNUAuMSCBnvvfeeMqY8unfvrkbXNKBGbu1WrVrhjTfewPz587F//35lvOnSp2KsXbsWb731Fp555hl1Pkf8S5cuVWDwxRdfKGPO0TlH6jTuNNR8WNq3b49Vq1YpMKDXgP17/fXXlRckOztbeUDYR0IEzzUDAq+JXgT2hcrO/1nPlVdeiWuvvVb1g8rK9LnnnHOO8k6wPOVAz0g4QKDszj//fNVPelkoA2OaQgBBAMGNUTRG6gQD/k3PWTTS3XIKjLrP6bbQg4MEGh6rfU7cXENtOYfXy0GLAQZmQOCUJI1ftOQbzWvmvWf/rNLK83r4HfsdaXpmQhLr42GVRt+YNo1Gin3qFyGUnmwjCF4AIZpaY1GXUw/CggUL1OiBLwBSIUfhZkDgTeMonoaQUws01uEA4bHHHlNGm9/TyHK0/u6776ppBY7g77zzTmX8CQf84UEjetdddylXPEf4dNtzFG8AwsiRI5U3w3DR84VII08DzWkPjtqprH/9618V1JgBYcuWLWragJDDulkvpz3MgDBhwgTlLeAon0pJbwenMQginCIgZKxZs0ZBSN++fSsBwqeffqrqZx/pNSEMDR48WMmQ0wljx45VUxbr16+vFCEsgCCA4ObxDwWEZs2auanmhHNoDPPz89WUXejBaTa+G4w4pag0WAsqoQHk4IEDDB5mQKA8+E7hO6u2HQQbDj6s7hVhjgBBb280jtzcXAWiVktAKSNCSrSmjDjQpK0xwEAAIRp3sIo67ACBo1nCgbF2n257jnI5pdCvXz/lHidBshw/4zQCjfSNN96olIbGkvELdLkTLDiaPvfcc0GjSYPYrl07NR3BFwy9AFRsjqapbKzP8DJwmoGrC9gOPQ783BgVcQqBXgS6/xlcyLa//vprpZj0RNDwc0qDUxlULo7w6WkgzLBeBlN27txZgQP7zDgJluVvHmy3T58+6qFatmyZegmy7t/85jeq7g8++EDVe80116j6+EKm4V+3bp2KeaAS8zzGMmzatEm1y1UZO3fuVNDBdvk5YznYvpE7QgBBAMHN4y+A4EZq1ucIINjLUgDBXkZ1toQdIDi9MM6dM3CRAEFPAwP6+Dv0iNSl5bQ/LGfe8tnIWRC6nNCor6b7xX4QcOj1oEeFcMTloOalmQIIAgg6+m6UFUBwIzUBBLdSE0BwK7k6cF6kgGAsR+ScEF1XdCnRi8AjNA9BJImSdEUZSaIk3bZ0ypsTEnFejvLiZ3RhGrEHZmiJlmvOro+SKMlOQid+X9s3azJiEMJNMfD5ZIAu42r4N2ML6DWzijHg1csUg0wxWD0lAgj67446c0Y0AMEcdc9Rb7i96AUQTky1bHguzCmpBRAqPz6SKEnvdeLEg0CZMkCXcGDk3uD0HkGBwbI9evQ4IYBNAEEAQQBB71ms06XLAgFcFr8Hv+vTznWUs+zmqKcCuiN18SBIJkU9Dft586FwHgSO+BhXRN1i8C9jamj86cVi3A/jg7gKh8uNzUckgED44AofAgjje2pyTwNd+ZnLRxKDQAhjojnzQRlbTb0aZSinrVu3qpioSA4JUiyXnn0ehENH8cJmZ/vJV9yQYNDhvYkBYhwWjUYxx/0CEFN1xzwI4leeHIw+pwN8P2VIdNNFAQQ9qQkg6MmLpcWDoCczOw8CA4UZpMvVM1zqxnghJgzjKhsG137yySdqOTCTj5mnG9wCAo0k841wCo0eMwbtcrUQ2w53mAN1Qw02E64xZocriIxllVWVDxdfxHeX+TyrpaCRAAIDj5nHhVDEtjilSOhikLeRej702igj5oBhUDePcNdlpxHRAgTeOyZ8M4LFrdqNdIqB+sZpacZg2cWCRX0VAynaWDNpJ1R+zxsXOhcc7jwGvunU7aT9cGV0+kVFt1v+YWRRi7T/Agh6d1UAQU9eAgj68rIDBO4HQkPFlTk8GCjLUSsNLmMQuKqHSby42uj000+v6IBbQCBs8MXOfCE0klxRxMRkXE7M72gwaei56oft0dPAJcR8j/F/ehtYzlj/zuvjkmLmU6HhYhwFy3N0To8I18ozVwrLE3C6detmKcQlS5ZUxEnxXOY0CT0iAQSey/cjr4srrYxl2VxhxT6zb5Qx7Qj7v3v3bhXkzZVQzBezZ8+eCjlwCTjlT9lw9Rj/5jlnnXWW5bVFAxB4j5hvhivBLr300rCKGCkg0GvFTLpcks4sulUdUQcE3iSdtbk6Bs/IIKX/COuf8b/QL4lBkO2e9TVfPAi6MrMDBOYQ4fJarpHnYIjLbGmUmPXTcG0zU2mXLl1w2WWXRQwInM6gIWvTpo2qi8aRn916660qZwoTm3F5MrOKMvcIjQX3f6Ex5DLigQMHqiRmvXr1UkucaRyZz4RGlDkImEGVS45paOhd4NLqV155RRnSU0891TJZEPtB40cjy/c44Yj5UqIJCEZdhBXmUhgwYID6zSXPXNrNkTOneRjvwRwyvAbGhPBeMB09l4d37NhRfcZEdTyHMEfPD/OucHk5gcjqiBQQWDe9PgQWgp2RwM6qrUgBgXVyuTz1kG0Zy8ut2hJACPM2EEDQe03WhVUMdlckyxzLJSRTDHaaUvl7O0Bgoq5Bgwap6QS66mmwuSKDwMA06JwjZxKv0047rWJHU7bg1oNAl/mZZ57pGBBoDJmtlZ4AplUnQBAQOOVh7N/ywgsvqHTlLMNkasynwr9pgHltNG4PPvhglZ5UJn0ilBCKOHq1OiLxIFgBApeDs056Dgg/TBBHkOF0BKd4jGRu3Nflm2++UbDA62LSIyaQI0iwPKeJ2Gded3UAAmVDyKL3hXljqtraPhqAQAhi0CxB0uy1Cr22WgsIAb8fR/Zl4Whh+bbHPCg0b1yc3tPrsnSQUx/cvthBHIKnBqc+nPYr2ZeBRq1aoF5SkksJ6J0mgKAnL92pD7qK7eYL9XoQvrQAgp4k7QCBBptTkBytcadSGgIaJhqD/v37q4RjHOHTJc6RvHG4BQROD7BOJkCjESCIcITLxGLcb4Xz7Ryp0ljTSHJ6g6BCo0iAobeDgMAN3ggv3BiNXoPbb79dXQfLsLyx5JoGi9fEjdKqGvka8Mlp1nDlog0IBAF6RigLei8YC0KDz83kCEKEAcqIcuA10LNB6GFqel4/oYKeEtZBL0O4FMaRehAoG05xMN09vRT03oQ7IgUE3s85c+YoMKD3p6qj1gLC9qV/Q+KSlUgoKtV7WqW0ksDR1EQcHXwpul19eY0YFgEEPcUTQNCTF0vX1TwIHKHTqDLFOV/8/J+Gh/PMfG4WLVqknlG6+80xSm4BgW5/IwsqjQmD9jhCJhTQ3U5I4RQDYx9oGOlqZj/4s3fvXjUVYQYEAiMNCkGD0yLLly9X59Io0iXPzdKcAoLdXY82ILDvlL2xvT1BgfvXvPnmm0qfGAvBwEDKgfeB7fOHhpGAQNlxWoZTJ1xpEu6IBiCwbsqfG9EZ8RNW7UUCCLw2ZpWlntHLZBcTVysBgUS+9Z4n0f7Az94DO8WS70+UwNYGieg+a1KNLHESQNDTQAEEPXnVZUDgveaIlMFynO9lwCJH5kz9Tdc1VxcwK2roxktuAcGQLEfHNFxcMcGRPw0CD8ZBhAZV01jaLfE1rwSg4a3KE6B/d8vPiAYghLbNOtlfjv7Nrnsaf7OBZDnKxvAS8H/CFMGB8RdVySdagOBEbpEAgpP6zWVqJSBQWXfcNQltD5XvWiWHOwlsT4/DqS8/WbHxibtanJ0lgOBMTkYpAQQ9edVlQDAMH70GNNZ0/9M4cX+Rk046CV27drUM7IsUEPQl/MufUR2A4PaqaIcIcIw7ME/9WNUngFAuFds8CNFYxSCA4FalK58ngCCrGNxoksQg6EnNLgZBr7afSwsgSCZFK90RD4J4ENy+UyqdJ4AggOBGkQQQ9KQmgKAnr6pK1yYPgs5ViQehlnkQPPXTkXhGVwSLShDI/gGB/T8g+GMxYhLiEd+1EwK7snD8cC48GamI79IRJZ9vAgLH1VUkXXQmju3Yi8Du/RU6kHDmafBv3o6Enl1Qsv5rBIs1s0HaaFNi3+4o3fhvBIt+qjfWg5TfXo6SVV+i3oWno3Du2zr66KisAIIAgiNFCSkkgKAnNQEEPXkJIEQmL/EgOPAgJPTojJQBl+Doqi8Qd1I7xNZPR/7M15E2ZiASuv0a+dPm4XhOHtJGXoe4X7XBwd/ej7L88qDH+k/eiaMfrMPRNRt+BoQeXeDftgcZ9w5F/vTXcPxwXmR3MeTsjHE3o3D2UgUtPAgymfOnIG/aXPC7A1ffEdX2WJkAggCCG6USQNCTWiggNGnSxPVeK+aWGWTICHuuHgg9aCQYTBduJ0i9K6g9pZmJl8vwjIBN8x4SnHLh9DPlW1NLfp1KhsGNDGi0ule8j4w5YXrjSPtNDwvvPduz2l+DMmLuCq7OiPRgXBkzUrI+I5jTLmNwrYlBICAk9u2BglmLlbGtP/F2FM5ehpjUJCT3PxfF7/wDMUkJCGQfhu/+4Tg0dmIlQIA/AG+b5ji2dTfyn5uP1Jv6o+itlUgfM1CBRkLvUxDXviWKP1yHjLuHAJ4Y5P1pHvzf7VJyj22YgfS7h8DbPBPF769B0Tv/QNqoAWC/jmcdQO6TL8HTqD58D45EMBAgEiD3kRmI69RGteHfdwAJp3ZU5RQgXH83Uq6/GMlX9FPekNwnZ1X01+2NFkAQQHCjOwIIelIzAIEvVKdLMZ22QCNg9bJnmzQ8xt4BTuurC+WYI8FYSWA2gjSK3OK+tl4zjSfTTYce1XGv2JbVEkVjw7Bo3Weu+uA1Gas/6hQg0HAHDhxGbGYDlG78FvnPLwQCATR45j4FCPQQeDLS0Gj6H08AhGBxCQrnvYOkK/rBv3WPmlr4ccF7SBs9QHkPYuLjFCjQo1D80WeIifcidfg1ODRigkqelNivF5KvPBcFs5Yg/pQOKFnzTwUVxzbvQPodN6Jk9Zeq7qKlf4d/625kjB+FnHHPIuOPIxXIcIrEN24EcifNUoCQ8/AMpA2/Gvl/eQP1LuiDYOkxFL6yLKL7LIAggOBGgQQQ9KRmAALPMvIJWNXA0SONn9NRJMsZW0Nb1WdsShSut/zeiTHV7ZeedE4sXVW/2BemiDdkFDpKpgHkfH91HKyb98/JYXVf+JnVBlSsz+5esQy9RVxKGWqEQ/sVKiNzf3ku5ePkvju5TpWc0OutKFqnAIExCPnTFyImJQkNJt+FvKmzEcg66AgQaNCLP1iLeuf0RNyv28LjS1OA4Bt3M2JbNUXBzNdR/NGnaLL0zypuIHi8XHGO3PuUAghPQx989w9THoSjqzcoL0LGAyPgaZCB2LQUFH+4FvXO74ODwx5CsLAIvodGo+CFRfCNH4UjD/5ZAUfjVyYi709zFCAU/OUNpN06qMJrUPrlNwoW8FO7Tm5maBkBBAEEN3ojgKAnNTMgVHWmsWGbU0DQ68WJpXX6ZZcDIdK+mM932i+eU5PbVNND4RQ+KK9o30du1sScGKHXrNMvel7CQUo07mGdAoR6F5yujDpH43Tv502ZjcB+Z4DAgMX8GQuROuxqlKzfhMTTu5Z7EMYMRNGyvyN16FXIe3Ye0oZfg+K/fYLAwSPK/U8gQVmZCoT0Nm+MwJ7vUX/iHfhx8YdI7H0y8p6bD98fRipoYP+K3lkF/7c74XtsLI7cOQW+CWNQMPtNeHzp8D0wHLkTXyz3IDw6A+mjByqPQlzn9spLcXTFZxHdUwEEAQQ3CiSAoCc1pwZPAKFcrk7lJYBQLi8BhNLK6ZSd5EGI79KhPDbAG4ugP4Di5YwDWKWMd8a4ETi68guUfrkZnrQUZZRzH5+JssLyxEsZd9+EmLQUxLVrqdz/BIHUwVeoOAIGPhYueA9xHVoi+arzUTh/OTLuuQkxXq9aaUDDzyO2WWPlbfD4UlGydqOCCt/40SoGgl6M0s824diWnfA9MjIQVroAAAniSURBVAaIicHxA0eQ98yriOvcDum3DMDxQzlqhUXBjNeRNup6HLptogqoTDynh1qNkTv5ZQT+c0DvTRVSWgBBAMGNAgkg6EnNqcETQBBAqEqzxINgIR2rDHxOAEHvEbYuzeDG4DEHGzJ5Y5U7iSASesTEeSt9Hvo/AQZlQQUuxhGTEIeg/3ilzyq+i+d3AUebRNnJQABBAMFOR6y+F0DQk5oAQvXISzwI4kFQQSF8wMxHTQGCnlrXvdICCAIIbrRWAEFPagII1SMvAQQBBAEEvWdLq7QAggCClsL8VFgAQU9qAgjVIy8BBAEES0DgkpB/P/AU2u3LQYye7knpnyQQRBBbW6Sj5/89artLWzSEJps16UlRNmvSkxdLO80xEG6uPysrC82bN4969LkAgt69dCovAQQBBEtAoFj2rlmPktnLUC+nUE/7pLSSQHGmD8ljb0DHM3pF/YVoJWIBBD3FE0DQk5cAgr68nBpiApUsc9RbLSDLHK31sUYyKbJpvkDz8vLUqME4mLTBKnuU/qNjfwYNHpeXODm47tRufaiTepyUcdovZl9jGlYjI5mTuiMpI4CgJz0BBD15CSDoy0sAQU9mOssJBRB+YUCwap6AUJOGODR4Mpy61dZ+EVwEEIKVILOqV0ZNjqQEEPRe3gII+vISQNCTmQCCvbzs7G+NeRAEEKxvVriRulVpAQQJUrR/5E8sIUGKelLTMcQE9mhn4AvXW51+yRSDTDE40fpaAwgcYXFjDvMovrZOMdTGfjFdJzfZEA+CeBCcPPjmMgIIehLTMcQCCJJJMZx2SaIkC8mEGxFv2v0VFux6Ebmxh7kRohyaEmgcaI6bT7oDXdqfrHmmu+ISg6AnN5li0JOXTDHoy0sHXMSDIB4EJxpWKzwI3L3q6bWPIrvh7hpzxzkRTl0qEywLonF2azx86ZQa8SIIIOhphwCCnrwEEPTlJYCgJzOJQbCXV60ABK5cePyzB1DUOMe+x1IirATi96dg6oUzLfeTj7bYBBD0JCqAoCcvAQR9eQkg6MlMAMFeXgII9jKqMyUEECRI0Y2ySgyCntR0DLHEIEgMQjjtkhgEC8mE24tBPAh6Lymr0gIIAghutEgAQU9qAgjVIy/WymDrmjrEg2Av6TrnQWhWryXS4jKw68dtOFZWedMnXq4nxoMu6d3wXcFm+MvCJz5K9qagSWJzlBw/ih9KsuEP+quUFss3q9cK2wu/tZfqL1RCAEEAwY3qCSDoSU0AoXrkJYBQLlcdcKGHisvbq+uoM4AQ54nHjW1uwUkZXVHkL1QgMGv7NHx/9D+VZJMUm4xHuk7DU1sewpHSQ2Hl1rvh2fhdm1HIO3YEaXHpWPafhVj7w8fgngZWR/uUTriu9RA8tWV8dd2LiOsVQBBAcKNEAgh6UhNAqB55CSAIIITdzdFuiqFT2skY2HoYnt/6JPKO5aB3g75oldwWe4t2Km8CYaB/i4HYWrAFN3e4A2sOrkCb5PZYf3g1/pmzHk3rtVDf/+gvUDBwiu80tEnugMV75yIzsSlGdrwbL22fhgub9kdSbAr+fuA9VW/PBmehT4O+yDl2CK2T22PKlj/qPR01WFoAQQDBjboJIOhJTQCheuQlgCCA4BoQ+ja+AE0SW2DxvrmVtHNQ6xH47PA/sK9oFyac+ieszF6OK1sOQlbRPmzIWYfLm12LZ797AqM63oMNRz5FZkJTtZRyW+EWdEo9Ge/uX4RGCZm4rtVNOFjyPYoDxcjz56B7/T54bfdL6rzlWUvQq+HZyIivj8e+vkfv6ajB0gIIAghu1E0AQU9qAgjVIy8BBAEE14BwVqPz0TypJRbtdQYIf9n6NPYU7cDQdmPxVc7nuLXT/djz407Ee+LRMCETC/a8iN+2HolDpQdQ6C/Aiux3keBJQL8mlyDek4DUuHR8eXgtGiY2xpydM9A5vRuuankDJm/+g97TUYOlBRAEENyomwCCntQEEKpHXgIIAgiuAeFXaZ0xuO1o/PnfT6AwUIDTfL3RNqUjSstKlffg2/xNmHDKM3h//5vKg7B033x8nftP3NzhTizbt0BNO0zfNhX+slKketPRIrm1mmJYtHeOuivemDhM6jYDKw68i41H1uP2Xz+I1Qc/xMkZ3fHSjmfVlEa/zIsx8Zv79Z6OGiwtgCCA4EbdBBD0pCaAUD3yEkAQQHANCAxS7N98IHo1PEvFETCYcM6umUj1pmJIu9tQ4M9TMQILds9SgJBTehiJsYk4XHIYL+94Fhc17Y8eDc5Q5605+BGKA0Vok/IzIHjgwdD2Y9E+tZOKcUjyJmP6d5MxuO0opMf7EBvjhb/Mj0mbH9B7OmqwtACCAIIbdRNA0JOaAEL1yEsAQQDBNSAYKskAwiRvEg6X/lChpd4YLwgQR48XV3xGg58cl4pCf37FZ0neFBwvC6C0rCSshid4EtXyyDKUqTKsJzUuDfn+PL2n4hcoLYAggOBG7QQQ9KQmgFA98hJAEECIGBD0VPP/V2kBBAEENxovgKAnNQGE6pGXAIIAggCC3rOlVVoAQQBBS2F+KiyAoCc1AYTqkZcAggCCJSDwgXti3TgUZh7W0zwpXUkCiVkZmHrJ9BpJVyqbNekpn2zWpCcvluYmbpSb3cFly1Z7HmRlZaF58+ZR3yFWAMHujlT+3qm8BBAEECwBgWJZsuE1fBL8AMe9AT3tk9JKAl5/PM6L6Y9BfW+M+gvRSsQCCHqKJ4CgJy8BBH15OTXEBKrExET9Blye4bRfAggCCGEBobikCN9lf4vC0oIKNYz1eBDr9bpUS73TgmVl8AecwYknJgbeuDi9BlyWdtovX7366NziFKSmpLpsSe80AQQ9eQkg6MlLAEFfXk4NsQCCviEmUFFu0TxkN0cLaYYzLFaCj42Nhd1mEdG6Yf8L/eKmHXS11sQhgKAnZQEEPXkJIOjLSwBBT2Y6myIJIFjL9vvvv0eDBg1OsDsxwWAweOTIETVHmJaWdsLZ/NwgLv425hLNhsX8OSswyhtlvV4v4kwjdXOddqoQrv1w57FfVBgeRvtG/0L7qQsuoefb9d38vdGv0LlYs6yM+sMBQiTtm/tilqm5X+b6c3Nz4fP51Gl2/dKRg3Ff7CjebIit7p+5r+HmrsP1S0f/zHWwHcqLc+qh7Zvvq/narObUI2k/3Fw+P6dhMdcdTv/N8tLRqarKVnVNRgyClczMn1HvOZAI1Y39+/ejWbNmVY78dGRqlDXkFSons87z73D9CvdM6TwPVjLl+4t6ZqVT5r6yHWOKQef6Q3XaSXwIzzEb4nDvVEN2Tqc+dPQvnFxDAcHqnWr0K/R5jEb7VXkQzPexKv232s1R557a2Umz/TXbaEOm2dnZqF+/fsXzx/pycvLwX153Xw5IJ4uCAAAAAElFTkSuQmCC;" vertex="1" parent="1">
                    <mxGeometry x="-29.940000000000005" y="730" width="249.89" height="210" as="geometry"/>
                </mxCell>
            </root>
        </mxGraphModel>
    </diagram>
</mxfile>